G04 #@! TF.GenerationSoftware,KiCad,Pcbnew,5.0.2-bee76a0~70~ubuntu18.04.1*
G04 #@! TF.CreationDate,2019-01-17T16:48:38+08:00*
G04 #@! TF.ProjectId,inAir9B Shield,696e4169-7239-4422-9053-6869656c642e,rev?*
G04 #@! TF.SameCoordinates,Original*
G04 #@! TF.FileFunction,Soldermask,Top*
G04 #@! TF.FilePolarity,Negative*
%FSLAX46Y46*%
G04 Gerber Fmt 4.6, Leading zero omitted, Abs format (unit mm)*
G04 Created by KiCad (PCBNEW 5.0.2-bee76a0~70~ubuntu18.04.1) date Thu Jan 17 16:48:38 2019*
%MOMM*%
%LPD*%
G01*
G04 APERTURE LIST*
%ADD10C,0.100000*%
G04 APERTURE END LIST*
D10*
G36*
X158916821Y-113461313D02*
X158916824Y-113461314D01*
X158916825Y-113461314D01*
X159077239Y-113509975D01*
X159077241Y-113509976D01*
X159077244Y-113509977D01*
X159225078Y-113588995D01*
X159354659Y-113695341D01*
X159461005Y-113824922D01*
X159540023Y-113972756D01*
X159588687Y-114133179D01*
X159605117Y-114300000D01*
X159588687Y-114466821D01*
X159540023Y-114627244D01*
X159461005Y-114775078D01*
X159354659Y-114904659D01*
X159225078Y-115011005D01*
X159077244Y-115090023D01*
X159077241Y-115090024D01*
X159077239Y-115090025D01*
X158916825Y-115138686D01*
X158916824Y-115138686D01*
X158916821Y-115138687D01*
X158791804Y-115151000D01*
X158708196Y-115151000D01*
X158583179Y-115138687D01*
X158583176Y-115138686D01*
X158583175Y-115138686D01*
X158422761Y-115090025D01*
X158422759Y-115090024D01*
X158422756Y-115090023D01*
X158274922Y-115011005D01*
X158145341Y-114904659D01*
X158038995Y-114775078D01*
X157959977Y-114627244D01*
X157911313Y-114466821D01*
X157894883Y-114300000D01*
X157911313Y-114133179D01*
X157959977Y-113972756D01*
X158038995Y-113824922D01*
X158145341Y-113695341D01*
X158274922Y-113588995D01*
X158422756Y-113509977D01*
X158422759Y-113509976D01*
X158422761Y-113509975D01*
X158583175Y-113461314D01*
X158583176Y-113461314D01*
X158583179Y-113461313D01*
X158708196Y-113449000D01*
X158791804Y-113449000D01*
X158916821Y-113461313D01*
X158916821Y-113461313D01*
G37*
G36*
X156376821Y-113461313D02*
X156376824Y-113461314D01*
X156376825Y-113461314D01*
X156537239Y-113509975D01*
X156537241Y-113509976D01*
X156537244Y-113509977D01*
X156685078Y-113588995D01*
X156814659Y-113695341D01*
X156921005Y-113824922D01*
X157000023Y-113972756D01*
X157048687Y-114133179D01*
X157065117Y-114300000D01*
X157048687Y-114466821D01*
X157000023Y-114627244D01*
X156921005Y-114775078D01*
X156814659Y-114904659D01*
X156685078Y-115011005D01*
X156537244Y-115090023D01*
X156537241Y-115090024D01*
X156537239Y-115090025D01*
X156376825Y-115138686D01*
X156376824Y-115138686D01*
X156376821Y-115138687D01*
X156251804Y-115151000D01*
X156168196Y-115151000D01*
X156043179Y-115138687D01*
X156043176Y-115138686D01*
X156043175Y-115138686D01*
X155882761Y-115090025D01*
X155882759Y-115090024D01*
X155882756Y-115090023D01*
X155734922Y-115011005D01*
X155605341Y-114904659D01*
X155498995Y-114775078D01*
X155419977Y-114627244D01*
X155371313Y-114466821D01*
X155354883Y-114300000D01*
X155371313Y-114133179D01*
X155419977Y-113972756D01*
X155498995Y-113824922D01*
X155605341Y-113695341D01*
X155734922Y-113588995D01*
X155882756Y-113509977D01*
X155882759Y-113509976D01*
X155882761Y-113509975D01*
X156043175Y-113461314D01*
X156043176Y-113461314D01*
X156043179Y-113461313D01*
X156168196Y-113449000D01*
X156251804Y-113449000D01*
X156376821Y-113461313D01*
X156376821Y-113461313D01*
G37*
G36*
X153836821Y-113461313D02*
X153836824Y-113461314D01*
X153836825Y-113461314D01*
X153997239Y-113509975D01*
X153997241Y-113509976D01*
X153997244Y-113509977D01*
X154145078Y-113588995D01*
X154274659Y-113695341D01*
X154381005Y-113824922D01*
X154460023Y-113972756D01*
X154508687Y-114133179D01*
X154525117Y-114300000D01*
X154508687Y-114466821D01*
X154460023Y-114627244D01*
X154381005Y-114775078D01*
X154274659Y-114904659D01*
X154145078Y-115011005D01*
X153997244Y-115090023D01*
X153997241Y-115090024D01*
X153997239Y-115090025D01*
X153836825Y-115138686D01*
X153836824Y-115138686D01*
X153836821Y-115138687D01*
X153711804Y-115151000D01*
X153628196Y-115151000D01*
X153503179Y-115138687D01*
X153503176Y-115138686D01*
X153503175Y-115138686D01*
X153342761Y-115090025D01*
X153342759Y-115090024D01*
X153342756Y-115090023D01*
X153194922Y-115011005D01*
X153065341Y-114904659D01*
X152958995Y-114775078D01*
X152879977Y-114627244D01*
X152831313Y-114466821D01*
X152814883Y-114300000D01*
X152831313Y-114133179D01*
X152879977Y-113972756D01*
X152958995Y-113824922D01*
X153065341Y-113695341D01*
X153194922Y-113588995D01*
X153342756Y-113509977D01*
X153342759Y-113509976D01*
X153342761Y-113509975D01*
X153503175Y-113461314D01*
X153503176Y-113461314D01*
X153503179Y-113461313D01*
X153628196Y-113449000D01*
X153711804Y-113449000D01*
X153836821Y-113461313D01*
X153836821Y-113461313D01*
G37*
G36*
X151296821Y-113461313D02*
X151296824Y-113461314D01*
X151296825Y-113461314D01*
X151457239Y-113509975D01*
X151457241Y-113509976D01*
X151457244Y-113509977D01*
X151605078Y-113588995D01*
X151734659Y-113695341D01*
X151841005Y-113824922D01*
X151920023Y-113972756D01*
X151968687Y-114133179D01*
X151985117Y-114300000D01*
X151968687Y-114466821D01*
X151920023Y-114627244D01*
X151841005Y-114775078D01*
X151734659Y-114904659D01*
X151605078Y-115011005D01*
X151457244Y-115090023D01*
X151457241Y-115090024D01*
X151457239Y-115090025D01*
X151296825Y-115138686D01*
X151296824Y-115138686D01*
X151296821Y-115138687D01*
X151171804Y-115151000D01*
X151088196Y-115151000D01*
X150963179Y-115138687D01*
X150963176Y-115138686D01*
X150963175Y-115138686D01*
X150802761Y-115090025D01*
X150802759Y-115090024D01*
X150802756Y-115090023D01*
X150654922Y-115011005D01*
X150525341Y-114904659D01*
X150418995Y-114775078D01*
X150339977Y-114627244D01*
X150291313Y-114466821D01*
X150274883Y-114300000D01*
X150291313Y-114133179D01*
X150339977Y-113972756D01*
X150418995Y-113824922D01*
X150525341Y-113695341D01*
X150654922Y-113588995D01*
X150802756Y-113509977D01*
X150802759Y-113509976D01*
X150802761Y-113509975D01*
X150963175Y-113461314D01*
X150963176Y-113461314D01*
X150963179Y-113461313D01*
X151088196Y-113449000D01*
X151171804Y-113449000D01*
X151296821Y-113461313D01*
X151296821Y-113461313D01*
G37*
G36*
X148756821Y-113461313D02*
X148756824Y-113461314D01*
X148756825Y-113461314D01*
X148917239Y-113509975D01*
X148917241Y-113509976D01*
X148917244Y-113509977D01*
X149065078Y-113588995D01*
X149194659Y-113695341D01*
X149301005Y-113824922D01*
X149380023Y-113972756D01*
X149428687Y-114133179D01*
X149445117Y-114300000D01*
X149428687Y-114466821D01*
X149380023Y-114627244D01*
X149301005Y-114775078D01*
X149194659Y-114904659D01*
X149065078Y-115011005D01*
X148917244Y-115090023D01*
X148917241Y-115090024D01*
X148917239Y-115090025D01*
X148756825Y-115138686D01*
X148756824Y-115138686D01*
X148756821Y-115138687D01*
X148631804Y-115151000D01*
X148548196Y-115151000D01*
X148423179Y-115138687D01*
X148423176Y-115138686D01*
X148423175Y-115138686D01*
X148262761Y-115090025D01*
X148262759Y-115090024D01*
X148262756Y-115090023D01*
X148114922Y-115011005D01*
X147985341Y-114904659D01*
X147878995Y-114775078D01*
X147799977Y-114627244D01*
X147751313Y-114466821D01*
X147734883Y-114300000D01*
X147751313Y-114133179D01*
X147799977Y-113972756D01*
X147878995Y-113824922D01*
X147985341Y-113695341D01*
X148114922Y-113588995D01*
X148262756Y-113509977D01*
X148262759Y-113509976D01*
X148262761Y-113509975D01*
X148423175Y-113461314D01*
X148423176Y-113461314D01*
X148423179Y-113461313D01*
X148548196Y-113449000D01*
X148631804Y-113449000D01*
X148756821Y-113461313D01*
X148756821Y-113461313D01*
G37*
G36*
X146216821Y-113461313D02*
X146216824Y-113461314D01*
X146216825Y-113461314D01*
X146377239Y-113509975D01*
X146377241Y-113509976D01*
X146377244Y-113509977D01*
X146525078Y-113588995D01*
X146654659Y-113695341D01*
X146761005Y-113824922D01*
X146840023Y-113972756D01*
X146888687Y-114133179D01*
X146905117Y-114300000D01*
X146888687Y-114466821D01*
X146840023Y-114627244D01*
X146761005Y-114775078D01*
X146654659Y-114904659D01*
X146525078Y-115011005D01*
X146377244Y-115090023D01*
X146377241Y-115090024D01*
X146377239Y-115090025D01*
X146216825Y-115138686D01*
X146216824Y-115138686D01*
X146216821Y-115138687D01*
X146091804Y-115151000D01*
X146008196Y-115151000D01*
X145883179Y-115138687D01*
X145883176Y-115138686D01*
X145883175Y-115138686D01*
X145722761Y-115090025D01*
X145722759Y-115090024D01*
X145722756Y-115090023D01*
X145574922Y-115011005D01*
X145445341Y-114904659D01*
X145338995Y-114775078D01*
X145259977Y-114627244D01*
X145211313Y-114466821D01*
X145194883Y-114300000D01*
X145211313Y-114133179D01*
X145259977Y-113972756D01*
X145338995Y-113824922D01*
X145445341Y-113695341D01*
X145574922Y-113588995D01*
X145722756Y-113509977D01*
X145722759Y-113509976D01*
X145722761Y-113509975D01*
X145883175Y-113461314D01*
X145883176Y-113461314D01*
X145883179Y-113461313D01*
X146008196Y-113449000D01*
X146091804Y-113449000D01*
X146216821Y-113461313D01*
X146216821Y-113461313D01*
G37*
G36*
X141136821Y-113461313D02*
X141136824Y-113461314D01*
X141136825Y-113461314D01*
X141297239Y-113509975D01*
X141297241Y-113509976D01*
X141297244Y-113509977D01*
X141445078Y-113588995D01*
X141574659Y-113695341D01*
X141681005Y-113824922D01*
X141760023Y-113972756D01*
X141808687Y-114133179D01*
X141825117Y-114300000D01*
X141808687Y-114466821D01*
X141760023Y-114627244D01*
X141681005Y-114775078D01*
X141574659Y-114904659D01*
X141445078Y-115011005D01*
X141297244Y-115090023D01*
X141297241Y-115090024D01*
X141297239Y-115090025D01*
X141136825Y-115138686D01*
X141136824Y-115138686D01*
X141136821Y-115138687D01*
X141011804Y-115151000D01*
X140928196Y-115151000D01*
X140803179Y-115138687D01*
X140803176Y-115138686D01*
X140803175Y-115138686D01*
X140642761Y-115090025D01*
X140642759Y-115090024D01*
X140642756Y-115090023D01*
X140494922Y-115011005D01*
X140365341Y-114904659D01*
X140258995Y-114775078D01*
X140179977Y-114627244D01*
X140131313Y-114466821D01*
X140114883Y-114300000D01*
X140131313Y-114133179D01*
X140179977Y-113972756D01*
X140258995Y-113824922D01*
X140365341Y-113695341D01*
X140494922Y-113588995D01*
X140642756Y-113509977D01*
X140642759Y-113509976D01*
X140642761Y-113509975D01*
X140803175Y-113461314D01*
X140803176Y-113461314D01*
X140803179Y-113461313D01*
X140928196Y-113449000D01*
X141011804Y-113449000D01*
X141136821Y-113461313D01*
X141136821Y-113461313D01*
G37*
G36*
X138596821Y-113461313D02*
X138596824Y-113461314D01*
X138596825Y-113461314D01*
X138757239Y-113509975D01*
X138757241Y-113509976D01*
X138757244Y-113509977D01*
X138905078Y-113588995D01*
X139034659Y-113695341D01*
X139141005Y-113824922D01*
X139220023Y-113972756D01*
X139268687Y-114133179D01*
X139285117Y-114300000D01*
X139268687Y-114466821D01*
X139220023Y-114627244D01*
X139141005Y-114775078D01*
X139034659Y-114904659D01*
X138905078Y-115011005D01*
X138757244Y-115090023D01*
X138757241Y-115090024D01*
X138757239Y-115090025D01*
X138596825Y-115138686D01*
X138596824Y-115138686D01*
X138596821Y-115138687D01*
X138471804Y-115151000D01*
X138388196Y-115151000D01*
X138263179Y-115138687D01*
X138263176Y-115138686D01*
X138263175Y-115138686D01*
X138102761Y-115090025D01*
X138102759Y-115090024D01*
X138102756Y-115090023D01*
X137954922Y-115011005D01*
X137825341Y-114904659D01*
X137718995Y-114775078D01*
X137639977Y-114627244D01*
X137591313Y-114466821D01*
X137574883Y-114300000D01*
X137591313Y-114133179D01*
X137639977Y-113972756D01*
X137718995Y-113824922D01*
X137825341Y-113695341D01*
X137954922Y-113588995D01*
X138102756Y-113509977D01*
X138102759Y-113509976D01*
X138102761Y-113509975D01*
X138263175Y-113461314D01*
X138263176Y-113461314D01*
X138263179Y-113461313D01*
X138388196Y-113449000D01*
X138471804Y-113449000D01*
X138596821Y-113461313D01*
X138596821Y-113461313D01*
G37*
G36*
X133516821Y-113461313D02*
X133516824Y-113461314D01*
X133516825Y-113461314D01*
X133677239Y-113509975D01*
X133677241Y-113509976D01*
X133677244Y-113509977D01*
X133825078Y-113588995D01*
X133954659Y-113695341D01*
X134061005Y-113824922D01*
X134140023Y-113972756D01*
X134188687Y-114133179D01*
X134205117Y-114300000D01*
X134188687Y-114466821D01*
X134140023Y-114627244D01*
X134061005Y-114775078D01*
X133954659Y-114904659D01*
X133825078Y-115011005D01*
X133677244Y-115090023D01*
X133677241Y-115090024D01*
X133677239Y-115090025D01*
X133516825Y-115138686D01*
X133516824Y-115138686D01*
X133516821Y-115138687D01*
X133391804Y-115151000D01*
X133308196Y-115151000D01*
X133183179Y-115138687D01*
X133183176Y-115138686D01*
X133183175Y-115138686D01*
X133022761Y-115090025D01*
X133022759Y-115090024D01*
X133022756Y-115090023D01*
X132874922Y-115011005D01*
X132745341Y-114904659D01*
X132638995Y-114775078D01*
X132559977Y-114627244D01*
X132511313Y-114466821D01*
X132494883Y-114300000D01*
X132511313Y-114133179D01*
X132559977Y-113972756D01*
X132638995Y-113824922D01*
X132745341Y-113695341D01*
X132874922Y-113588995D01*
X133022756Y-113509977D01*
X133022759Y-113509976D01*
X133022761Y-113509975D01*
X133183175Y-113461314D01*
X133183176Y-113461314D01*
X133183179Y-113461313D01*
X133308196Y-113449000D01*
X133391804Y-113449000D01*
X133516821Y-113461313D01*
X133516821Y-113461313D01*
G37*
G36*
X130976821Y-113461313D02*
X130976824Y-113461314D01*
X130976825Y-113461314D01*
X131137239Y-113509975D01*
X131137241Y-113509976D01*
X131137244Y-113509977D01*
X131285078Y-113588995D01*
X131414659Y-113695341D01*
X131521005Y-113824922D01*
X131600023Y-113972756D01*
X131648687Y-114133179D01*
X131665117Y-114300000D01*
X131648687Y-114466821D01*
X131600023Y-114627244D01*
X131521005Y-114775078D01*
X131414659Y-114904659D01*
X131285078Y-115011005D01*
X131137244Y-115090023D01*
X131137241Y-115090024D01*
X131137239Y-115090025D01*
X130976825Y-115138686D01*
X130976824Y-115138686D01*
X130976821Y-115138687D01*
X130851804Y-115151000D01*
X130768196Y-115151000D01*
X130643179Y-115138687D01*
X130643176Y-115138686D01*
X130643175Y-115138686D01*
X130482761Y-115090025D01*
X130482759Y-115090024D01*
X130482756Y-115090023D01*
X130334922Y-115011005D01*
X130205341Y-114904659D01*
X130098995Y-114775078D01*
X130019977Y-114627244D01*
X129971313Y-114466821D01*
X129954883Y-114300000D01*
X129971313Y-114133179D01*
X130019977Y-113972756D01*
X130098995Y-113824922D01*
X130205341Y-113695341D01*
X130334922Y-113588995D01*
X130482756Y-113509977D01*
X130482759Y-113509976D01*
X130482761Y-113509975D01*
X130643175Y-113461314D01*
X130643176Y-113461314D01*
X130643179Y-113461313D01*
X130768196Y-113449000D01*
X130851804Y-113449000D01*
X130976821Y-113461313D01*
X130976821Y-113461313D01*
G37*
G36*
X128436821Y-113461313D02*
X128436824Y-113461314D01*
X128436825Y-113461314D01*
X128597239Y-113509975D01*
X128597241Y-113509976D01*
X128597244Y-113509977D01*
X128745078Y-113588995D01*
X128874659Y-113695341D01*
X128981005Y-113824922D01*
X129060023Y-113972756D01*
X129108687Y-114133179D01*
X129125117Y-114300000D01*
X129108687Y-114466821D01*
X129060023Y-114627244D01*
X128981005Y-114775078D01*
X128874659Y-114904659D01*
X128745078Y-115011005D01*
X128597244Y-115090023D01*
X128597241Y-115090024D01*
X128597239Y-115090025D01*
X128436825Y-115138686D01*
X128436824Y-115138686D01*
X128436821Y-115138687D01*
X128311804Y-115151000D01*
X128228196Y-115151000D01*
X128103179Y-115138687D01*
X128103176Y-115138686D01*
X128103175Y-115138686D01*
X127942761Y-115090025D01*
X127942759Y-115090024D01*
X127942756Y-115090023D01*
X127794922Y-115011005D01*
X127665341Y-114904659D01*
X127558995Y-114775078D01*
X127479977Y-114627244D01*
X127431313Y-114466821D01*
X127414883Y-114300000D01*
X127431313Y-114133179D01*
X127479977Y-113972756D01*
X127558995Y-113824922D01*
X127665341Y-113695341D01*
X127794922Y-113588995D01*
X127942756Y-113509977D01*
X127942759Y-113509976D01*
X127942761Y-113509975D01*
X128103175Y-113461314D01*
X128103176Y-113461314D01*
X128103179Y-113461313D01*
X128228196Y-113449000D01*
X128311804Y-113449000D01*
X128436821Y-113461313D01*
X128436821Y-113461313D01*
G37*
G36*
X125896821Y-113461313D02*
X125896824Y-113461314D01*
X125896825Y-113461314D01*
X126057239Y-113509975D01*
X126057241Y-113509976D01*
X126057244Y-113509977D01*
X126205078Y-113588995D01*
X126334659Y-113695341D01*
X126441005Y-113824922D01*
X126520023Y-113972756D01*
X126568687Y-114133179D01*
X126585117Y-114300000D01*
X126568687Y-114466821D01*
X126520023Y-114627244D01*
X126441005Y-114775078D01*
X126334659Y-114904659D01*
X126205078Y-115011005D01*
X126057244Y-115090023D01*
X126057241Y-115090024D01*
X126057239Y-115090025D01*
X125896825Y-115138686D01*
X125896824Y-115138686D01*
X125896821Y-115138687D01*
X125771804Y-115151000D01*
X125688196Y-115151000D01*
X125563179Y-115138687D01*
X125563176Y-115138686D01*
X125563175Y-115138686D01*
X125402761Y-115090025D01*
X125402759Y-115090024D01*
X125402756Y-115090023D01*
X125254922Y-115011005D01*
X125125341Y-114904659D01*
X125018995Y-114775078D01*
X124939977Y-114627244D01*
X124891313Y-114466821D01*
X124874883Y-114300000D01*
X124891313Y-114133179D01*
X124939977Y-113972756D01*
X125018995Y-113824922D01*
X125125341Y-113695341D01*
X125254922Y-113588995D01*
X125402756Y-113509977D01*
X125402759Y-113509976D01*
X125402761Y-113509975D01*
X125563175Y-113461314D01*
X125563176Y-113461314D01*
X125563179Y-113461313D01*
X125688196Y-113449000D01*
X125771804Y-113449000D01*
X125896821Y-113461313D01*
X125896821Y-113461313D01*
G37*
G36*
X124041000Y-115151000D02*
X122339000Y-115151000D01*
X122339000Y-113449000D01*
X124041000Y-113449000D01*
X124041000Y-115151000D01*
X124041000Y-115151000D01*
G37*
G36*
X136056821Y-113461313D02*
X136056824Y-113461314D01*
X136056825Y-113461314D01*
X136217239Y-113509975D01*
X136217241Y-113509976D01*
X136217244Y-113509977D01*
X136365078Y-113588995D01*
X136494659Y-113695341D01*
X136601005Y-113824922D01*
X136680023Y-113972756D01*
X136728687Y-114133179D01*
X136745117Y-114300000D01*
X136728687Y-114466821D01*
X136680023Y-114627244D01*
X136601005Y-114775078D01*
X136494659Y-114904659D01*
X136365078Y-115011005D01*
X136217244Y-115090023D01*
X136217241Y-115090024D01*
X136217239Y-115090025D01*
X136056825Y-115138686D01*
X136056824Y-115138686D01*
X136056821Y-115138687D01*
X135931804Y-115151000D01*
X135848196Y-115151000D01*
X135723179Y-115138687D01*
X135723176Y-115138686D01*
X135723175Y-115138686D01*
X135562761Y-115090025D01*
X135562759Y-115090024D01*
X135562756Y-115090023D01*
X135414922Y-115011005D01*
X135285341Y-114904659D01*
X135178995Y-114775078D01*
X135099977Y-114627244D01*
X135051313Y-114466821D01*
X135034883Y-114300000D01*
X135051313Y-114133179D01*
X135099977Y-113972756D01*
X135178995Y-113824922D01*
X135285341Y-113695341D01*
X135414922Y-113588995D01*
X135562756Y-113509977D01*
X135562759Y-113509976D01*
X135562761Y-113509975D01*
X135723175Y-113461314D01*
X135723176Y-113461314D01*
X135723179Y-113461313D01*
X135848196Y-113449000D01*
X135931804Y-113449000D01*
X136056821Y-113461313D01*
X136056821Y-113461313D01*
G37*
G36*
X155473938Y-109105716D02*
X155494556Y-109111970D01*
X155513556Y-109122126D01*
X155530208Y-109135792D01*
X155543874Y-109152444D01*
X155554030Y-109171444D01*
X155560284Y-109192062D01*
X155563000Y-109219640D01*
X155563000Y-109728360D01*
X155560284Y-109755938D01*
X155554030Y-109776556D01*
X155543874Y-109795556D01*
X155530208Y-109812208D01*
X155513556Y-109825874D01*
X155494556Y-109836030D01*
X155473938Y-109842284D01*
X155446360Y-109845000D01*
X154987640Y-109845000D01*
X154960062Y-109842284D01*
X154939444Y-109836030D01*
X154920444Y-109825874D01*
X154903792Y-109812208D01*
X154890126Y-109795556D01*
X154879970Y-109776556D01*
X154873716Y-109755938D01*
X154871000Y-109728360D01*
X154871000Y-109219640D01*
X154873716Y-109192062D01*
X154879970Y-109171444D01*
X154890126Y-109152444D01*
X154903792Y-109135792D01*
X154920444Y-109122126D01*
X154939444Y-109111970D01*
X154960062Y-109105716D01*
X154987640Y-109103000D01*
X155446360Y-109103000D01*
X155473938Y-109105716D01*
X155473938Y-109105716D01*
G37*
G36*
X156443938Y-109105716D02*
X156464556Y-109111970D01*
X156483556Y-109122126D01*
X156500208Y-109135792D01*
X156513874Y-109152444D01*
X156524030Y-109171444D01*
X156530284Y-109192062D01*
X156533000Y-109219640D01*
X156533000Y-109728360D01*
X156530284Y-109755938D01*
X156524030Y-109776556D01*
X156513874Y-109795556D01*
X156500208Y-109812208D01*
X156483556Y-109825874D01*
X156464556Y-109836030D01*
X156443938Y-109842284D01*
X156416360Y-109845000D01*
X155957640Y-109845000D01*
X155930062Y-109842284D01*
X155909444Y-109836030D01*
X155890444Y-109825874D01*
X155873792Y-109812208D01*
X155860126Y-109795556D01*
X155849970Y-109776556D01*
X155843716Y-109755938D01*
X155841000Y-109728360D01*
X155841000Y-109219640D01*
X155843716Y-109192062D01*
X155849970Y-109171444D01*
X155860126Y-109152444D01*
X155873792Y-109135792D01*
X155890444Y-109122126D01*
X155909444Y-109111970D01*
X155930062Y-109105716D01*
X155957640Y-109103000D01*
X156416360Y-109103000D01*
X156443938Y-109105716D01*
X156443938Y-109105716D01*
G37*
G36*
X150468946Y-109021759D02*
X150489564Y-109028013D01*
X150508564Y-109038169D01*
X150525216Y-109051835D01*
X150538882Y-109068487D01*
X150549038Y-109087487D01*
X150555292Y-109108105D01*
X150558008Y-109135683D01*
X150558008Y-109644403D01*
X150555292Y-109671981D01*
X150549038Y-109692599D01*
X150538882Y-109711599D01*
X150525216Y-109728251D01*
X150508564Y-109741917D01*
X150489564Y-109752073D01*
X150468946Y-109758327D01*
X150441368Y-109761043D01*
X149982648Y-109761043D01*
X149955070Y-109758327D01*
X149934452Y-109752073D01*
X149915452Y-109741917D01*
X149898800Y-109728251D01*
X149885134Y-109711599D01*
X149874978Y-109692599D01*
X149868724Y-109671981D01*
X149866008Y-109644403D01*
X149866008Y-109135683D01*
X149868724Y-109108105D01*
X149874978Y-109087487D01*
X149885134Y-109068487D01*
X149898800Y-109051835D01*
X149915452Y-109038169D01*
X149934452Y-109028013D01*
X149955070Y-109021759D01*
X149982648Y-109019043D01*
X150441368Y-109019043D01*
X150468946Y-109021759D01*
X150468946Y-109021759D01*
G37*
G36*
X151438946Y-109021759D02*
X151459564Y-109028013D01*
X151478564Y-109038169D01*
X151495216Y-109051835D01*
X151508882Y-109068487D01*
X151519038Y-109087487D01*
X151525292Y-109108105D01*
X151528008Y-109135683D01*
X151528008Y-109644403D01*
X151525292Y-109671981D01*
X151519038Y-109692599D01*
X151508882Y-109711599D01*
X151495216Y-109728251D01*
X151478564Y-109741917D01*
X151459564Y-109752073D01*
X151438946Y-109758327D01*
X151411368Y-109761043D01*
X150952648Y-109761043D01*
X150925070Y-109758327D01*
X150904452Y-109752073D01*
X150885452Y-109741917D01*
X150868800Y-109728251D01*
X150855134Y-109711599D01*
X150844978Y-109692599D01*
X150838724Y-109671981D01*
X150836008Y-109644403D01*
X150836008Y-109135683D01*
X150838724Y-109108105D01*
X150844978Y-109087487D01*
X150855134Y-109068487D01*
X150868800Y-109051835D01*
X150885452Y-109038169D01*
X150904452Y-109028013D01*
X150925070Y-109021759D01*
X150952648Y-109019043D01*
X151411368Y-109019043D01*
X151438946Y-109021759D01*
X151438946Y-109021759D01*
G37*
G36*
X145507826Y-108955547D02*
X145528444Y-108961801D01*
X145547444Y-108971957D01*
X145564096Y-108985623D01*
X145577762Y-109002275D01*
X145587918Y-109021275D01*
X145594172Y-109041893D01*
X145596888Y-109069471D01*
X145596888Y-109578191D01*
X145594172Y-109605769D01*
X145587918Y-109626387D01*
X145577762Y-109645387D01*
X145564096Y-109662039D01*
X145547444Y-109675705D01*
X145528444Y-109685861D01*
X145507826Y-109692115D01*
X145480248Y-109694831D01*
X145021528Y-109694831D01*
X144993950Y-109692115D01*
X144973332Y-109685861D01*
X144954332Y-109675705D01*
X144937680Y-109662039D01*
X144924014Y-109645387D01*
X144913858Y-109626387D01*
X144907604Y-109605769D01*
X144904888Y-109578191D01*
X144904888Y-109069471D01*
X144907604Y-109041893D01*
X144913858Y-109021275D01*
X144924014Y-109002275D01*
X144937680Y-108985623D01*
X144954332Y-108971957D01*
X144973332Y-108961801D01*
X144993950Y-108955547D01*
X145021528Y-108952831D01*
X145480248Y-108952831D01*
X145507826Y-108955547D01*
X145507826Y-108955547D01*
G37*
G36*
X146477826Y-108955547D02*
X146498444Y-108961801D01*
X146517444Y-108971957D01*
X146534096Y-108985623D01*
X146547762Y-109002275D01*
X146557918Y-109021275D01*
X146564172Y-109041893D01*
X146566888Y-109069471D01*
X146566888Y-109578191D01*
X146564172Y-109605769D01*
X146557918Y-109626387D01*
X146547762Y-109645387D01*
X146534096Y-109662039D01*
X146517444Y-109675705D01*
X146498444Y-109685861D01*
X146477826Y-109692115D01*
X146450248Y-109694831D01*
X145991528Y-109694831D01*
X145963950Y-109692115D01*
X145943332Y-109685861D01*
X145924332Y-109675705D01*
X145907680Y-109662039D01*
X145894014Y-109645387D01*
X145883858Y-109626387D01*
X145877604Y-109605769D01*
X145874888Y-109578191D01*
X145874888Y-109069471D01*
X145877604Y-109041893D01*
X145883858Y-109021275D01*
X145894014Y-109002275D01*
X145907680Y-108985623D01*
X145924332Y-108971957D01*
X145943332Y-108961801D01*
X145963950Y-108955547D01*
X145991528Y-108952831D01*
X146450248Y-108952831D01*
X146477826Y-108955547D01*
X146477826Y-108955547D01*
G37*
G36*
X156286466Y-106067565D02*
X156325137Y-106079296D01*
X156360779Y-106098348D01*
X156392017Y-106123983D01*
X156417652Y-106155221D01*
X156436704Y-106190863D01*
X156448435Y-106229534D01*
X156453000Y-106275888D01*
X156453000Y-106927112D01*
X156448435Y-106973466D01*
X156436704Y-107012137D01*
X156417652Y-107047779D01*
X156392017Y-107079017D01*
X156360779Y-107104652D01*
X156325137Y-107123704D01*
X156286466Y-107135435D01*
X156240112Y-107140000D01*
X155163888Y-107140000D01*
X155117534Y-107135435D01*
X155078863Y-107123704D01*
X155043221Y-107104652D01*
X155011983Y-107079017D01*
X154986348Y-107047779D01*
X154967296Y-107012137D01*
X154955565Y-106973466D01*
X154951000Y-106927112D01*
X154951000Y-106275888D01*
X154955565Y-106229534D01*
X154967296Y-106190863D01*
X154986348Y-106155221D01*
X155011983Y-106123983D01*
X155043221Y-106098348D01*
X155078863Y-106079296D01*
X155117534Y-106067565D01*
X155163888Y-106063000D01*
X156240112Y-106063000D01*
X156286466Y-106067565D01*
X156286466Y-106067565D01*
G37*
G36*
X151281474Y-105983608D02*
X151320145Y-105995339D01*
X151355787Y-106014391D01*
X151387025Y-106040026D01*
X151412660Y-106071264D01*
X151431712Y-106106906D01*
X151443443Y-106145577D01*
X151448008Y-106191931D01*
X151448008Y-106843155D01*
X151443443Y-106889509D01*
X151431712Y-106928180D01*
X151412660Y-106963822D01*
X151387025Y-106995060D01*
X151355787Y-107020695D01*
X151320145Y-107039747D01*
X151281474Y-107051478D01*
X151235120Y-107056043D01*
X150158896Y-107056043D01*
X150112542Y-107051478D01*
X150073871Y-107039747D01*
X150038229Y-107020695D01*
X150006991Y-106995060D01*
X149981356Y-106963822D01*
X149962304Y-106928180D01*
X149950573Y-106889509D01*
X149946008Y-106843155D01*
X149946008Y-106191931D01*
X149950573Y-106145577D01*
X149962304Y-106106906D01*
X149981356Y-106071264D01*
X150006991Y-106040026D01*
X150038229Y-106014391D01*
X150073871Y-105995339D01*
X150112542Y-105983608D01*
X150158896Y-105979043D01*
X151235120Y-105979043D01*
X151281474Y-105983608D01*
X151281474Y-105983608D01*
G37*
G36*
X146320354Y-105917396D02*
X146359025Y-105929127D01*
X146394667Y-105948179D01*
X146425905Y-105973814D01*
X146451540Y-106005052D01*
X146470592Y-106040694D01*
X146482323Y-106079365D01*
X146486888Y-106125719D01*
X146486888Y-106776943D01*
X146482323Y-106823297D01*
X146470592Y-106861968D01*
X146451540Y-106897610D01*
X146425905Y-106928848D01*
X146394667Y-106954483D01*
X146359025Y-106973535D01*
X146320354Y-106985266D01*
X146274000Y-106989831D01*
X145197776Y-106989831D01*
X145151422Y-106985266D01*
X145112751Y-106973535D01*
X145077109Y-106954483D01*
X145045871Y-106928848D01*
X145020236Y-106897610D01*
X145001184Y-106861968D01*
X144989453Y-106823297D01*
X144984888Y-106776943D01*
X144984888Y-106125719D01*
X144989453Y-106079365D01*
X145001184Y-106040694D01*
X145020236Y-106005052D01*
X145045871Y-105973814D01*
X145077109Y-105948179D01*
X145112751Y-105929127D01*
X145151422Y-105917396D01*
X145197776Y-105912831D01*
X146274000Y-105912831D01*
X146320354Y-105917396D01*
X146320354Y-105917396D01*
G37*
G36*
X156286466Y-104192565D02*
X156325137Y-104204296D01*
X156360779Y-104223348D01*
X156392017Y-104248983D01*
X156417652Y-104280221D01*
X156436704Y-104315863D01*
X156448435Y-104354534D01*
X156453000Y-104400888D01*
X156453000Y-105052112D01*
X156448435Y-105098466D01*
X156436704Y-105137137D01*
X156417652Y-105172779D01*
X156392017Y-105204017D01*
X156360779Y-105229652D01*
X156325137Y-105248704D01*
X156286466Y-105260435D01*
X156240112Y-105265000D01*
X155163888Y-105265000D01*
X155117534Y-105260435D01*
X155078863Y-105248704D01*
X155043221Y-105229652D01*
X155011983Y-105204017D01*
X154986348Y-105172779D01*
X154967296Y-105137137D01*
X154955565Y-105098466D01*
X154951000Y-105052112D01*
X154951000Y-104400888D01*
X154955565Y-104354534D01*
X154967296Y-104315863D01*
X154986348Y-104280221D01*
X155011983Y-104248983D01*
X155043221Y-104223348D01*
X155078863Y-104204296D01*
X155117534Y-104192565D01*
X155163888Y-104188000D01*
X156240112Y-104188000D01*
X156286466Y-104192565D01*
X156286466Y-104192565D01*
G37*
G36*
X151281474Y-104108608D02*
X151320145Y-104120339D01*
X151355787Y-104139391D01*
X151387025Y-104165026D01*
X151412660Y-104196264D01*
X151431712Y-104231906D01*
X151443443Y-104270577D01*
X151448008Y-104316931D01*
X151448008Y-104968155D01*
X151443443Y-105014509D01*
X151431712Y-105053180D01*
X151412660Y-105088822D01*
X151387025Y-105120060D01*
X151355787Y-105145695D01*
X151320145Y-105164747D01*
X151281474Y-105176478D01*
X151235120Y-105181043D01*
X150158896Y-105181043D01*
X150112542Y-105176478D01*
X150073871Y-105164747D01*
X150038229Y-105145695D01*
X150006991Y-105120060D01*
X149981356Y-105088822D01*
X149962304Y-105053180D01*
X149950573Y-105014509D01*
X149946008Y-104968155D01*
X149946008Y-104316931D01*
X149950573Y-104270577D01*
X149962304Y-104231906D01*
X149981356Y-104196264D01*
X150006991Y-104165026D01*
X150038229Y-104139391D01*
X150073871Y-104120339D01*
X150112542Y-104108608D01*
X150158896Y-104104043D01*
X151235120Y-104104043D01*
X151281474Y-104108608D01*
X151281474Y-104108608D01*
G37*
G36*
X146320354Y-104042396D02*
X146359025Y-104054127D01*
X146394667Y-104073179D01*
X146425905Y-104098814D01*
X146451540Y-104130052D01*
X146470592Y-104165694D01*
X146482323Y-104204365D01*
X146486888Y-104250719D01*
X146486888Y-104901943D01*
X146482323Y-104948297D01*
X146470592Y-104986968D01*
X146451540Y-105022610D01*
X146425905Y-105053848D01*
X146394667Y-105079483D01*
X146359025Y-105098535D01*
X146320354Y-105110266D01*
X146274000Y-105114831D01*
X145197776Y-105114831D01*
X145151422Y-105110266D01*
X145112751Y-105098535D01*
X145077109Y-105079483D01*
X145045871Y-105053848D01*
X145020236Y-105022610D01*
X145001184Y-104986968D01*
X144989453Y-104948297D01*
X144984888Y-104901943D01*
X144984888Y-104250719D01*
X144989453Y-104204365D01*
X145001184Y-104165694D01*
X145020236Y-104130052D01*
X145045871Y-104098814D01*
X145077109Y-104073179D01*
X145112751Y-104054127D01*
X145151422Y-104042396D01*
X145197776Y-104037831D01*
X146274000Y-104037831D01*
X146320354Y-104042396D01*
X146320354Y-104042396D01*
G37*
G36*
X130881938Y-103771716D02*
X130902556Y-103777970D01*
X130921556Y-103788126D01*
X130938208Y-103801792D01*
X130951874Y-103818444D01*
X130962030Y-103837444D01*
X130968284Y-103858062D01*
X130971000Y-103885640D01*
X130971000Y-104394360D01*
X130968284Y-104421938D01*
X130962030Y-104442556D01*
X130951874Y-104461556D01*
X130938208Y-104478208D01*
X130921556Y-104491874D01*
X130902556Y-104502030D01*
X130881938Y-104508284D01*
X130854360Y-104511000D01*
X130395640Y-104511000D01*
X130368062Y-104508284D01*
X130347444Y-104502030D01*
X130328444Y-104491874D01*
X130311792Y-104478208D01*
X130298126Y-104461556D01*
X130287970Y-104442556D01*
X130281716Y-104421938D01*
X130279000Y-104394360D01*
X130279000Y-103885640D01*
X130281716Y-103858062D01*
X130287970Y-103837444D01*
X130298126Y-103818444D01*
X130311792Y-103801792D01*
X130328444Y-103788126D01*
X130347444Y-103777970D01*
X130368062Y-103771716D01*
X130395640Y-103769000D01*
X130854360Y-103769000D01*
X130881938Y-103771716D01*
X130881938Y-103771716D01*
G37*
G36*
X131851938Y-103771716D02*
X131872556Y-103777970D01*
X131891556Y-103788126D01*
X131908208Y-103801792D01*
X131921874Y-103818444D01*
X131932030Y-103837444D01*
X131938284Y-103858062D01*
X131941000Y-103885640D01*
X131941000Y-104394360D01*
X131938284Y-104421938D01*
X131932030Y-104442556D01*
X131921874Y-104461556D01*
X131908208Y-104478208D01*
X131891556Y-104491874D01*
X131872556Y-104502030D01*
X131851938Y-104508284D01*
X131824360Y-104511000D01*
X131365640Y-104511000D01*
X131338062Y-104508284D01*
X131317444Y-104502030D01*
X131298444Y-104491874D01*
X131281792Y-104478208D01*
X131268126Y-104461556D01*
X131257970Y-104442556D01*
X131251716Y-104421938D01*
X131249000Y-104394360D01*
X131249000Y-103885640D01*
X131251716Y-103858062D01*
X131257970Y-103837444D01*
X131268126Y-103818444D01*
X131281792Y-103801792D01*
X131298444Y-103788126D01*
X131317444Y-103777970D01*
X131338062Y-103771716D01*
X131365640Y-103769000D01*
X131824360Y-103769000D01*
X131851938Y-103771716D01*
X131851938Y-103771716D01*
G37*
G36*
X134730443Y-99435519D02*
X134796627Y-99442037D01*
X134909853Y-99476384D01*
X134966467Y-99493557D01*
X135105087Y-99567652D01*
X135122991Y-99577222D01*
X135158729Y-99606552D01*
X135260186Y-99689814D01*
X135343448Y-99791271D01*
X135372778Y-99827009D01*
X135372779Y-99827011D01*
X135456443Y-99983533D01*
X135456443Y-99983534D01*
X135507963Y-100153373D01*
X135525359Y-100330000D01*
X135507963Y-100506627D01*
X135473616Y-100619853D01*
X135456443Y-100676467D01*
X135382348Y-100815087D01*
X135372778Y-100832991D01*
X135343448Y-100868729D01*
X135260186Y-100970186D01*
X135158729Y-101053448D01*
X135122991Y-101082778D01*
X135122989Y-101082779D01*
X134966467Y-101166443D01*
X134909853Y-101183616D01*
X134796627Y-101217963D01*
X134730443Y-101224481D01*
X134664260Y-101231000D01*
X134575740Y-101231000D01*
X134509558Y-101224482D01*
X134443373Y-101217963D01*
X134330147Y-101183616D01*
X134273533Y-101166443D01*
X134117011Y-101082779D01*
X134117009Y-101082778D01*
X134081271Y-101053448D01*
X133979814Y-100970186D01*
X133896552Y-100868729D01*
X133867222Y-100832991D01*
X133857652Y-100815087D01*
X133783557Y-100676467D01*
X133766384Y-100619853D01*
X133732037Y-100506627D01*
X133714641Y-100330000D01*
X133732037Y-100153373D01*
X133783557Y-99983534D01*
X133783557Y-99983533D01*
X133867221Y-99827011D01*
X133867222Y-99827009D01*
X133896552Y-99791271D01*
X133979814Y-99689814D01*
X134081271Y-99606552D01*
X134117009Y-99577222D01*
X134134913Y-99567652D01*
X134273533Y-99493557D01*
X134330147Y-99476384D01*
X134443373Y-99442037D01*
X134509558Y-99435518D01*
X134575740Y-99429000D01*
X134664260Y-99429000D01*
X134730443Y-99435519D01*
X134730443Y-99435519D01*
G37*
G36*
X132190443Y-99435519D02*
X132256627Y-99442037D01*
X132369853Y-99476384D01*
X132426467Y-99493557D01*
X132565087Y-99567652D01*
X132582991Y-99577222D01*
X132618729Y-99606552D01*
X132720186Y-99689814D01*
X132803448Y-99791271D01*
X132832778Y-99827009D01*
X132832779Y-99827011D01*
X132916443Y-99983533D01*
X132916443Y-99983534D01*
X132967963Y-100153373D01*
X132985359Y-100330000D01*
X132967963Y-100506627D01*
X132933616Y-100619853D01*
X132916443Y-100676467D01*
X132842348Y-100815087D01*
X132832778Y-100832991D01*
X132803448Y-100868729D01*
X132720186Y-100970186D01*
X132618729Y-101053448D01*
X132582991Y-101082778D01*
X132582989Y-101082779D01*
X132426467Y-101166443D01*
X132369853Y-101183616D01*
X132256627Y-101217963D01*
X132190443Y-101224481D01*
X132124260Y-101231000D01*
X132035740Y-101231000D01*
X131969558Y-101224482D01*
X131903373Y-101217963D01*
X131790147Y-101183616D01*
X131733533Y-101166443D01*
X131577011Y-101082779D01*
X131577009Y-101082778D01*
X131541271Y-101053448D01*
X131439814Y-100970186D01*
X131356552Y-100868729D01*
X131327222Y-100832991D01*
X131317652Y-100815087D01*
X131243557Y-100676467D01*
X131226384Y-100619853D01*
X131192037Y-100506627D01*
X131174641Y-100330000D01*
X131192037Y-100153373D01*
X131243557Y-99983534D01*
X131243557Y-99983533D01*
X131327221Y-99827011D01*
X131327222Y-99827009D01*
X131356552Y-99791271D01*
X131439814Y-99689814D01*
X131541271Y-99606552D01*
X131577009Y-99577222D01*
X131594913Y-99567652D01*
X131733533Y-99493557D01*
X131790147Y-99476384D01*
X131903373Y-99442037D01*
X131969558Y-99435518D01*
X132035740Y-99429000D01*
X132124260Y-99429000D01*
X132190443Y-99435519D01*
X132190443Y-99435519D01*
G37*
G36*
X140601000Y-101231000D02*
X138799000Y-101231000D01*
X138799000Y-99429000D01*
X140601000Y-99429000D01*
X140601000Y-101231000D01*
X140601000Y-101231000D01*
G37*
G36*
X127110443Y-99435519D02*
X127176627Y-99442037D01*
X127289853Y-99476384D01*
X127346467Y-99493557D01*
X127485087Y-99567652D01*
X127502991Y-99577222D01*
X127538729Y-99606552D01*
X127640186Y-99689814D01*
X127723448Y-99791271D01*
X127752778Y-99827009D01*
X127752779Y-99827011D01*
X127836443Y-99983533D01*
X127836443Y-99983534D01*
X127887963Y-100153373D01*
X127905359Y-100330000D01*
X127887963Y-100506627D01*
X127853616Y-100619853D01*
X127836443Y-100676467D01*
X127762348Y-100815087D01*
X127752778Y-100832991D01*
X127723448Y-100868729D01*
X127640186Y-100970186D01*
X127538729Y-101053448D01*
X127502991Y-101082778D01*
X127502989Y-101082779D01*
X127346467Y-101166443D01*
X127289853Y-101183616D01*
X127176627Y-101217963D01*
X127110443Y-101224481D01*
X127044260Y-101231000D01*
X126955740Y-101231000D01*
X126889558Y-101224482D01*
X126823373Y-101217963D01*
X126710147Y-101183616D01*
X126653533Y-101166443D01*
X126497011Y-101082779D01*
X126497009Y-101082778D01*
X126461271Y-101053448D01*
X126359814Y-100970186D01*
X126276552Y-100868729D01*
X126247222Y-100832991D01*
X126237652Y-100815087D01*
X126163557Y-100676467D01*
X126146384Y-100619853D01*
X126112037Y-100506627D01*
X126094641Y-100330000D01*
X126112037Y-100153373D01*
X126163557Y-99983534D01*
X126163557Y-99983533D01*
X126247221Y-99827011D01*
X126247222Y-99827009D01*
X126276552Y-99791271D01*
X126359814Y-99689814D01*
X126461271Y-99606552D01*
X126497009Y-99577222D01*
X126514913Y-99567652D01*
X126653533Y-99493557D01*
X126710147Y-99476384D01*
X126823373Y-99442037D01*
X126889558Y-99435518D01*
X126955740Y-99429000D01*
X127044260Y-99429000D01*
X127110443Y-99435519D01*
X127110443Y-99435519D01*
G37*
G36*
X137270443Y-99435519D02*
X137336627Y-99442037D01*
X137449853Y-99476384D01*
X137506467Y-99493557D01*
X137645087Y-99567652D01*
X137662991Y-99577222D01*
X137698729Y-99606552D01*
X137800186Y-99689814D01*
X137883448Y-99791271D01*
X137912778Y-99827009D01*
X137912779Y-99827011D01*
X137996443Y-99983533D01*
X137996443Y-99983534D01*
X138047963Y-100153373D01*
X138065359Y-100330000D01*
X138047963Y-100506627D01*
X138013616Y-100619853D01*
X137996443Y-100676467D01*
X137922348Y-100815087D01*
X137912778Y-100832991D01*
X137883448Y-100868729D01*
X137800186Y-100970186D01*
X137698729Y-101053448D01*
X137662991Y-101082778D01*
X137662989Y-101082779D01*
X137506467Y-101166443D01*
X137449853Y-101183616D01*
X137336627Y-101217963D01*
X137270443Y-101224481D01*
X137204260Y-101231000D01*
X137115740Y-101231000D01*
X137049558Y-101224482D01*
X136983373Y-101217963D01*
X136870147Y-101183616D01*
X136813533Y-101166443D01*
X136657011Y-101082779D01*
X136657009Y-101082778D01*
X136621271Y-101053448D01*
X136519814Y-100970186D01*
X136436552Y-100868729D01*
X136407222Y-100832991D01*
X136397652Y-100815087D01*
X136323557Y-100676467D01*
X136306384Y-100619853D01*
X136272037Y-100506627D01*
X136254641Y-100330000D01*
X136272037Y-100153373D01*
X136323557Y-99983534D01*
X136323557Y-99983533D01*
X136407221Y-99827011D01*
X136407222Y-99827009D01*
X136436552Y-99791271D01*
X136519814Y-99689814D01*
X136621271Y-99606552D01*
X136657009Y-99577222D01*
X136674913Y-99567652D01*
X136813533Y-99493557D01*
X136870147Y-99476384D01*
X136983373Y-99442037D01*
X137049558Y-99435518D01*
X137115740Y-99429000D01*
X137204260Y-99429000D01*
X137270443Y-99435519D01*
X137270443Y-99435519D01*
G37*
G36*
X129650443Y-99435519D02*
X129716627Y-99442037D01*
X129829853Y-99476384D01*
X129886467Y-99493557D01*
X130025087Y-99567652D01*
X130042991Y-99577222D01*
X130078729Y-99606552D01*
X130180186Y-99689814D01*
X130263448Y-99791271D01*
X130292778Y-99827009D01*
X130292779Y-99827011D01*
X130376443Y-99983533D01*
X130376443Y-99983534D01*
X130427963Y-100153373D01*
X130445359Y-100330000D01*
X130427963Y-100506627D01*
X130393616Y-100619853D01*
X130376443Y-100676467D01*
X130302348Y-100815087D01*
X130292778Y-100832991D01*
X130263448Y-100868729D01*
X130180186Y-100970186D01*
X130078729Y-101053448D01*
X130042991Y-101082778D01*
X130042989Y-101082779D01*
X129886467Y-101166443D01*
X129829853Y-101183616D01*
X129716627Y-101217963D01*
X129650443Y-101224481D01*
X129584260Y-101231000D01*
X129495740Y-101231000D01*
X129429558Y-101224482D01*
X129363373Y-101217963D01*
X129250147Y-101183616D01*
X129193533Y-101166443D01*
X129037011Y-101082779D01*
X129037009Y-101082778D01*
X129001271Y-101053448D01*
X128899814Y-100970186D01*
X128816552Y-100868729D01*
X128787222Y-100832991D01*
X128777652Y-100815087D01*
X128703557Y-100676467D01*
X128686384Y-100619853D01*
X128652037Y-100506627D01*
X128634641Y-100330000D01*
X128652037Y-100153373D01*
X128703557Y-99983534D01*
X128703557Y-99983533D01*
X128787221Y-99827011D01*
X128787222Y-99827009D01*
X128816552Y-99791271D01*
X128899814Y-99689814D01*
X129001271Y-99606552D01*
X129037009Y-99577222D01*
X129054913Y-99567652D01*
X129193533Y-99493557D01*
X129250147Y-99476384D01*
X129363373Y-99442037D01*
X129429558Y-99435518D01*
X129495740Y-99429000D01*
X129584260Y-99429000D01*
X129650443Y-99435519D01*
X129650443Y-99435519D01*
G37*
G36*
X124570443Y-99435519D02*
X124636627Y-99442037D01*
X124749853Y-99476384D01*
X124806467Y-99493557D01*
X124945087Y-99567652D01*
X124962991Y-99577222D01*
X124998729Y-99606552D01*
X125100186Y-99689814D01*
X125183448Y-99791271D01*
X125212778Y-99827009D01*
X125212779Y-99827011D01*
X125296443Y-99983533D01*
X125296443Y-99983534D01*
X125347963Y-100153373D01*
X125365359Y-100330000D01*
X125347963Y-100506627D01*
X125313616Y-100619853D01*
X125296443Y-100676467D01*
X125222348Y-100815087D01*
X125212778Y-100832991D01*
X125183448Y-100868729D01*
X125100186Y-100970186D01*
X124998729Y-101053448D01*
X124962991Y-101082778D01*
X124962989Y-101082779D01*
X124806467Y-101166443D01*
X124749853Y-101183616D01*
X124636627Y-101217963D01*
X124570443Y-101224481D01*
X124504260Y-101231000D01*
X124415740Y-101231000D01*
X124349558Y-101224482D01*
X124283373Y-101217963D01*
X124170147Y-101183616D01*
X124113533Y-101166443D01*
X123957011Y-101082779D01*
X123957009Y-101082778D01*
X123921271Y-101053448D01*
X123819814Y-100970186D01*
X123736552Y-100868729D01*
X123707222Y-100832991D01*
X123697652Y-100815087D01*
X123623557Y-100676467D01*
X123606384Y-100619853D01*
X123572037Y-100506627D01*
X123554641Y-100330000D01*
X123572037Y-100153373D01*
X123623557Y-99983534D01*
X123623557Y-99983533D01*
X123707221Y-99827011D01*
X123707222Y-99827009D01*
X123736552Y-99791271D01*
X123819814Y-99689814D01*
X123921271Y-99606552D01*
X123957009Y-99577222D01*
X123974913Y-99567652D01*
X124113533Y-99493557D01*
X124170147Y-99476384D01*
X124283373Y-99442037D01*
X124349558Y-99435518D01*
X124415740Y-99429000D01*
X124504260Y-99429000D01*
X124570443Y-99435519D01*
X124570443Y-99435519D01*
G37*
G36*
X129650443Y-76575519D02*
X129716627Y-76582037D01*
X129829853Y-76616384D01*
X129886467Y-76633557D01*
X130025087Y-76707652D01*
X130042991Y-76717222D01*
X130078729Y-76746552D01*
X130180186Y-76829814D01*
X130263448Y-76931271D01*
X130292778Y-76967009D01*
X130292779Y-76967011D01*
X130376443Y-77123533D01*
X130376443Y-77123534D01*
X130427963Y-77293373D01*
X130445359Y-77470000D01*
X130427963Y-77646627D01*
X130393616Y-77759853D01*
X130376443Y-77816467D01*
X130302348Y-77955087D01*
X130292778Y-77972991D01*
X130263448Y-78008729D01*
X130180186Y-78110186D01*
X130078729Y-78193448D01*
X130042991Y-78222778D01*
X130042989Y-78222779D01*
X129886467Y-78306443D01*
X129829853Y-78323616D01*
X129716627Y-78357963D01*
X129650443Y-78364481D01*
X129584260Y-78371000D01*
X129495740Y-78371000D01*
X129429557Y-78364481D01*
X129363373Y-78357963D01*
X129250147Y-78323616D01*
X129193533Y-78306443D01*
X129037011Y-78222779D01*
X129037009Y-78222778D01*
X129001271Y-78193448D01*
X128899814Y-78110186D01*
X128816552Y-78008729D01*
X128787222Y-77972991D01*
X128777652Y-77955087D01*
X128703557Y-77816467D01*
X128686384Y-77759853D01*
X128652037Y-77646627D01*
X128634641Y-77470000D01*
X128652037Y-77293373D01*
X128703557Y-77123534D01*
X128703557Y-77123533D01*
X128787221Y-76967011D01*
X128787222Y-76967009D01*
X128816552Y-76931271D01*
X128899814Y-76829814D01*
X129001271Y-76746552D01*
X129037009Y-76717222D01*
X129054913Y-76707652D01*
X129193533Y-76633557D01*
X129250147Y-76616384D01*
X129363373Y-76582037D01*
X129429557Y-76575519D01*
X129495740Y-76569000D01*
X129584260Y-76569000D01*
X129650443Y-76575519D01*
X129650443Y-76575519D01*
G37*
G36*
X139810443Y-76575519D02*
X139876627Y-76582037D01*
X139989853Y-76616384D01*
X140046467Y-76633557D01*
X140185087Y-76707652D01*
X140202991Y-76717222D01*
X140238729Y-76746552D01*
X140340186Y-76829814D01*
X140423448Y-76931271D01*
X140452778Y-76967009D01*
X140452779Y-76967011D01*
X140536443Y-77123533D01*
X140536443Y-77123534D01*
X140587963Y-77293373D01*
X140605359Y-77470000D01*
X140587963Y-77646627D01*
X140553616Y-77759853D01*
X140536443Y-77816467D01*
X140462348Y-77955087D01*
X140452778Y-77972991D01*
X140423448Y-78008729D01*
X140340186Y-78110186D01*
X140238729Y-78193448D01*
X140202991Y-78222778D01*
X140202989Y-78222779D01*
X140046467Y-78306443D01*
X139989853Y-78323616D01*
X139876627Y-78357963D01*
X139810443Y-78364481D01*
X139744260Y-78371000D01*
X139655740Y-78371000D01*
X139589557Y-78364481D01*
X139523373Y-78357963D01*
X139410147Y-78323616D01*
X139353533Y-78306443D01*
X139197011Y-78222779D01*
X139197009Y-78222778D01*
X139161271Y-78193448D01*
X139059814Y-78110186D01*
X138976552Y-78008729D01*
X138947222Y-77972991D01*
X138937652Y-77955087D01*
X138863557Y-77816467D01*
X138846384Y-77759853D01*
X138812037Y-77646627D01*
X138794641Y-77470000D01*
X138812037Y-77293373D01*
X138863557Y-77123534D01*
X138863557Y-77123533D01*
X138947221Y-76967011D01*
X138947222Y-76967009D01*
X138976552Y-76931271D01*
X139059814Y-76829814D01*
X139161271Y-76746552D01*
X139197009Y-76717222D01*
X139214913Y-76707652D01*
X139353533Y-76633557D01*
X139410147Y-76616384D01*
X139523373Y-76582037D01*
X139589557Y-76575519D01*
X139655740Y-76569000D01*
X139744260Y-76569000D01*
X139810443Y-76575519D01*
X139810443Y-76575519D01*
G37*
G36*
X137270443Y-76575519D02*
X137336627Y-76582037D01*
X137449853Y-76616384D01*
X137506467Y-76633557D01*
X137645087Y-76707652D01*
X137662991Y-76717222D01*
X137698729Y-76746552D01*
X137800186Y-76829814D01*
X137883448Y-76931271D01*
X137912778Y-76967009D01*
X137912779Y-76967011D01*
X137996443Y-77123533D01*
X137996443Y-77123534D01*
X138047963Y-77293373D01*
X138065359Y-77470000D01*
X138047963Y-77646627D01*
X138013616Y-77759853D01*
X137996443Y-77816467D01*
X137922348Y-77955087D01*
X137912778Y-77972991D01*
X137883448Y-78008729D01*
X137800186Y-78110186D01*
X137698729Y-78193448D01*
X137662991Y-78222778D01*
X137662989Y-78222779D01*
X137506467Y-78306443D01*
X137449853Y-78323616D01*
X137336627Y-78357963D01*
X137270443Y-78364481D01*
X137204260Y-78371000D01*
X137115740Y-78371000D01*
X137049557Y-78364481D01*
X136983373Y-78357963D01*
X136870147Y-78323616D01*
X136813533Y-78306443D01*
X136657011Y-78222779D01*
X136657009Y-78222778D01*
X136621271Y-78193448D01*
X136519814Y-78110186D01*
X136436552Y-78008729D01*
X136407222Y-77972991D01*
X136397652Y-77955087D01*
X136323557Y-77816467D01*
X136306384Y-77759853D01*
X136272037Y-77646627D01*
X136254641Y-77470000D01*
X136272037Y-77293373D01*
X136323557Y-77123534D01*
X136323557Y-77123533D01*
X136407221Y-76967011D01*
X136407222Y-76967009D01*
X136436552Y-76931271D01*
X136519814Y-76829814D01*
X136621271Y-76746552D01*
X136657009Y-76717222D01*
X136674913Y-76707652D01*
X136813533Y-76633557D01*
X136870147Y-76616384D01*
X136983373Y-76582037D01*
X137049557Y-76575519D01*
X137115740Y-76569000D01*
X137204260Y-76569000D01*
X137270443Y-76575519D01*
X137270443Y-76575519D01*
G37*
G36*
X134730443Y-76575519D02*
X134796627Y-76582037D01*
X134909853Y-76616384D01*
X134966467Y-76633557D01*
X135105087Y-76707652D01*
X135122991Y-76717222D01*
X135158729Y-76746552D01*
X135260186Y-76829814D01*
X135343448Y-76931271D01*
X135372778Y-76967009D01*
X135372779Y-76967011D01*
X135456443Y-77123533D01*
X135456443Y-77123534D01*
X135507963Y-77293373D01*
X135525359Y-77470000D01*
X135507963Y-77646627D01*
X135473616Y-77759853D01*
X135456443Y-77816467D01*
X135382348Y-77955087D01*
X135372778Y-77972991D01*
X135343448Y-78008729D01*
X135260186Y-78110186D01*
X135158729Y-78193448D01*
X135122991Y-78222778D01*
X135122989Y-78222779D01*
X134966467Y-78306443D01*
X134909853Y-78323616D01*
X134796627Y-78357963D01*
X134730443Y-78364481D01*
X134664260Y-78371000D01*
X134575740Y-78371000D01*
X134509557Y-78364481D01*
X134443373Y-78357963D01*
X134330147Y-78323616D01*
X134273533Y-78306443D01*
X134117011Y-78222779D01*
X134117009Y-78222778D01*
X134081271Y-78193448D01*
X133979814Y-78110186D01*
X133896552Y-78008729D01*
X133867222Y-77972991D01*
X133857652Y-77955087D01*
X133783557Y-77816467D01*
X133766384Y-77759853D01*
X133732037Y-77646627D01*
X133714641Y-77470000D01*
X133732037Y-77293373D01*
X133783557Y-77123534D01*
X133783557Y-77123533D01*
X133867221Y-76967011D01*
X133867222Y-76967009D01*
X133896552Y-76931271D01*
X133979814Y-76829814D01*
X134081271Y-76746552D01*
X134117009Y-76717222D01*
X134134913Y-76707652D01*
X134273533Y-76633557D01*
X134330147Y-76616384D01*
X134443373Y-76582037D01*
X134509557Y-76575519D01*
X134575740Y-76569000D01*
X134664260Y-76569000D01*
X134730443Y-76575519D01*
X134730443Y-76575519D01*
G37*
G36*
X125361000Y-78371000D02*
X123559000Y-78371000D01*
X123559000Y-76569000D01*
X125361000Y-76569000D01*
X125361000Y-78371000D01*
X125361000Y-78371000D01*
G37*
G36*
X132190443Y-76575519D02*
X132256627Y-76582037D01*
X132369853Y-76616384D01*
X132426467Y-76633557D01*
X132565087Y-76707652D01*
X132582991Y-76717222D01*
X132618729Y-76746552D01*
X132720186Y-76829814D01*
X132803448Y-76931271D01*
X132832778Y-76967009D01*
X132832779Y-76967011D01*
X132916443Y-77123533D01*
X132916443Y-77123534D01*
X132967963Y-77293373D01*
X132985359Y-77470000D01*
X132967963Y-77646627D01*
X132933616Y-77759853D01*
X132916443Y-77816467D01*
X132842348Y-77955087D01*
X132832778Y-77972991D01*
X132803448Y-78008729D01*
X132720186Y-78110186D01*
X132618729Y-78193448D01*
X132582991Y-78222778D01*
X132582989Y-78222779D01*
X132426467Y-78306443D01*
X132369853Y-78323616D01*
X132256627Y-78357963D01*
X132190443Y-78364481D01*
X132124260Y-78371000D01*
X132035740Y-78371000D01*
X131969557Y-78364481D01*
X131903373Y-78357963D01*
X131790147Y-78323616D01*
X131733533Y-78306443D01*
X131577011Y-78222779D01*
X131577009Y-78222778D01*
X131541271Y-78193448D01*
X131439814Y-78110186D01*
X131356552Y-78008729D01*
X131327222Y-77972991D01*
X131317652Y-77955087D01*
X131243557Y-77816467D01*
X131226384Y-77759853D01*
X131192037Y-77646627D01*
X131174641Y-77470000D01*
X131192037Y-77293373D01*
X131243557Y-77123534D01*
X131243557Y-77123533D01*
X131327221Y-76967011D01*
X131327222Y-76967009D01*
X131356552Y-76931271D01*
X131439814Y-76829814D01*
X131541271Y-76746552D01*
X131577009Y-76717222D01*
X131594913Y-76707652D01*
X131733533Y-76633557D01*
X131790147Y-76616384D01*
X131903373Y-76582037D01*
X131969557Y-76575519D01*
X132035740Y-76569000D01*
X132124260Y-76569000D01*
X132190443Y-76575519D01*
X132190443Y-76575519D01*
G37*
G36*
X127110443Y-76575519D02*
X127176627Y-76582037D01*
X127289853Y-76616384D01*
X127346467Y-76633557D01*
X127485087Y-76707652D01*
X127502991Y-76717222D01*
X127538729Y-76746552D01*
X127640186Y-76829814D01*
X127723448Y-76931271D01*
X127752778Y-76967009D01*
X127752779Y-76967011D01*
X127836443Y-77123533D01*
X127836443Y-77123534D01*
X127887963Y-77293373D01*
X127905359Y-77470000D01*
X127887963Y-77646627D01*
X127853616Y-77759853D01*
X127836443Y-77816467D01*
X127762348Y-77955087D01*
X127752778Y-77972991D01*
X127723448Y-78008729D01*
X127640186Y-78110186D01*
X127538729Y-78193448D01*
X127502991Y-78222778D01*
X127502989Y-78222779D01*
X127346467Y-78306443D01*
X127289853Y-78323616D01*
X127176627Y-78357963D01*
X127110443Y-78364481D01*
X127044260Y-78371000D01*
X126955740Y-78371000D01*
X126889557Y-78364481D01*
X126823373Y-78357963D01*
X126710147Y-78323616D01*
X126653533Y-78306443D01*
X126497011Y-78222779D01*
X126497009Y-78222778D01*
X126461271Y-78193448D01*
X126359814Y-78110186D01*
X126276552Y-78008729D01*
X126247222Y-77972991D01*
X126237652Y-77955087D01*
X126163557Y-77816467D01*
X126146384Y-77759853D01*
X126112037Y-77646627D01*
X126094641Y-77470000D01*
X126112037Y-77293373D01*
X126163557Y-77123534D01*
X126163557Y-77123533D01*
X126247221Y-76967011D01*
X126247222Y-76967009D01*
X126276552Y-76931271D01*
X126359814Y-76829814D01*
X126461271Y-76746552D01*
X126497009Y-76717222D01*
X126514913Y-76707652D01*
X126653533Y-76633557D01*
X126710147Y-76616384D01*
X126823373Y-76582037D01*
X126889557Y-76575519D01*
X126955740Y-76569000D01*
X127044260Y-76569000D01*
X127110443Y-76575519D01*
X127110443Y-76575519D01*
G37*
G36*
X149491000Y-72021000D02*
X147689000Y-72021000D01*
X147689000Y-70219000D01*
X149491000Y-70219000D01*
X149491000Y-72021000D01*
X149491000Y-72021000D01*
G37*
G36*
X156320442Y-70225518D02*
X156386627Y-70232037D01*
X156499853Y-70266384D01*
X156556467Y-70283557D01*
X156695087Y-70357652D01*
X156712991Y-70367222D01*
X156748729Y-70396552D01*
X156850186Y-70479814D01*
X156933448Y-70581271D01*
X156962778Y-70617009D01*
X156962779Y-70617011D01*
X157046443Y-70773533D01*
X157046443Y-70773534D01*
X157097963Y-70943373D01*
X157115359Y-71120000D01*
X157097963Y-71296627D01*
X157063616Y-71409853D01*
X157046443Y-71466467D01*
X156972348Y-71605087D01*
X156962778Y-71622991D01*
X156933448Y-71658729D01*
X156850186Y-71760186D01*
X156748729Y-71843448D01*
X156712991Y-71872778D01*
X156712989Y-71872779D01*
X156556467Y-71956443D01*
X156499853Y-71973616D01*
X156386627Y-72007963D01*
X156320443Y-72014481D01*
X156254260Y-72021000D01*
X156165740Y-72021000D01*
X156099557Y-72014481D01*
X156033373Y-72007963D01*
X155920147Y-71973616D01*
X155863533Y-71956443D01*
X155707011Y-71872779D01*
X155707009Y-71872778D01*
X155671271Y-71843448D01*
X155569814Y-71760186D01*
X155486552Y-71658729D01*
X155457222Y-71622991D01*
X155447652Y-71605087D01*
X155373557Y-71466467D01*
X155356384Y-71409853D01*
X155322037Y-71296627D01*
X155304641Y-71120000D01*
X155322037Y-70943373D01*
X155373557Y-70773534D01*
X155373557Y-70773533D01*
X155457221Y-70617011D01*
X155457222Y-70617009D01*
X155486552Y-70581271D01*
X155569814Y-70479814D01*
X155671271Y-70396552D01*
X155707009Y-70367222D01*
X155724913Y-70357652D01*
X155863533Y-70283557D01*
X155920147Y-70266384D01*
X156033373Y-70232037D01*
X156099558Y-70225518D01*
X156165740Y-70219000D01*
X156254260Y-70219000D01*
X156320442Y-70225518D01*
X156320442Y-70225518D01*
G37*
G36*
X151240442Y-70225518D02*
X151306627Y-70232037D01*
X151419853Y-70266384D01*
X151476467Y-70283557D01*
X151615087Y-70357652D01*
X151632991Y-70367222D01*
X151668729Y-70396552D01*
X151770186Y-70479814D01*
X151853448Y-70581271D01*
X151882778Y-70617009D01*
X151882779Y-70617011D01*
X151966443Y-70773533D01*
X151966443Y-70773534D01*
X152017963Y-70943373D01*
X152035359Y-71120000D01*
X152017963Y-71296627D01*
X151983616Y-71409853D01*
X151966443Y-71466467D01*
X151892348Y-71605087D01*
X151882778Y-71622991D01*
X151853448Y-71658729D01*
X151770186Y-71760186D01*
X151668729Y-71843448D01*
X151632991Y-71872778D01*
X151632989Y-71872779D01*
X151476467Y-71956443D01*
X151419853Y-71973616D01*
X151306627Y-72007963D01*
X151240443Y-72014481D01*
X151174260Y-72021000D01*
X151085740Y-72021000D01*
X151019557Y-72014481D01*
X150953373Y-72007963D01*
X150840147Y-71973616D01*
X150783533Y-71956443D01*
X150627011Y-71872779D01*
X150627009Y-71872778D01*
X150591271Y-71843448D01*
X150489814Y-71760186D01*
X150406552Y-71658729D01*
X150377222Y-71622991D01*
X150367652Y-71605087D01*
X150293557Y-71466467D01*
X150276384Y-71409853D01*
X150242037Y-71296627D01*
X150224641Y-71120000D01*
X150242037Y-70943373D01*
X150293557Y-70773534D01*
X150293557Y-70773533D01*
X150377221Y-70617011D01*
X150377222Y-70617009D01*
X150406552Y-70581271D01*
X150489814Y-70479814D01*
X150591271Y-70396552D01*
X150627009Y-70367222D01*
X150644913Y-70357652D01*
X150783533Y-70283557D01*
X150840147Y-70266384D01*
X150953373Y-70232037D01*
X151019558Y-70225518D01*
X151085740Y-70219000D01*
X151174260Y-70219000D01*
X151240442Y-70225518D01*
X151240442Y-70225518D01*
G37*
G36*
X153780442Y-70225518D02*
X153846627Y-70232037D01*
X153959853Y-70266384D01*
X154016467Y-70283557D01*
X154155087Y-70357652D01*
X154172991Y-70367222D01*
X154208729Y-70396552D01*
X154310186Y-70479814D01*
X154393448Y-70581271D01*
X154422778Y-70617009D01*
X154422779Y-70617011D01*
X154506443Y-70773533D01*
X154506443Y-70773534D01*
X154557963Y-70943373D01*
X154575359Y-71120000D01*
X154557963Y-71296627D01*
X154523616Y-71409853D01*
X154506443Y-71466467D01*
X154432348Y-71605087D01*
X154422778Y-71622991D01*
X154393448Y-71658729D01*
X154310186Y-71760186D01*
X154208729Y-71843448D01*
X154172991Y-71872778D01*
X154172989Y-71872779D01*
X154016467Y-71956443D01*
X153959853Y-71973616D01*
X153846627Y-72007963D01*
X153780443Y-72014481D01*
X153714260Y-72021000D01*
X153625740Y-72021000D01*
X153559557Y-72014481D01*
X153493373Y-72007963D01*
X153380147Y-71973616D01*
X153323533Y-71956443D01*
X153167011Y-71872779D01*
X153167009Y-71872778D01*
X153131271Y-71843448D01*
X153029814Y-71760186D01*
X152946552Y-71658729D01*
X152917222Y-71622991D01*
X152907652Y-71605087D01*
X152833557Y-71466467D01*
X152816384Y-71409853D01*
X152782037Y-71296627D01*
X152764641Y-71120000D01*
X152782037Y-70943373D01*
X152833557Y-70773534D01*
X152833557Y-70773533D01*
X152917221Y-70617011D01*
X152917222Y-70617009D01*
X152946552Y-70581271D01*
X153029814Y-70479814D01*
X153131271Y-70396552D01*
X153167009Y-70367222D01*
X153184913Y-70357652D01*
X153323533Y-70283557D01*
X153380147Y-70266384D01*
X153493373Y-70232037D01*
X153559558Y-70225518D01*
X153625740Y-70219000D01*
X153714260Y-70219000D01*
X153780442Y-70225518D01*
X153780442Y-70225518D01*
G37*
G36*
X116756821Y-65201313D02*
X116756824Y-65201314D01*
X116756825Y-65201314D01*
X116917239Y-65249975D01*
X116917241Y-65249976D01*
X116917244Y-65249977D01*
X117065078Y-65328995D01*
X117194659Y-65435341D01*
X117301005Y-65564922D01*
X117380023Y-65712756D01*
X117428687Y-65873179D01*
X117445117Y-66040000D01*
X117428687Y-66206821D01*
X117380023Y-66367244D01*
X117301005Y-66515078D01*
X117194659Y-66644659D01*
X117065078Y-66751005D01*
X116917244Y-66830023D01*
X116917241Y-66830024D01*
X116917239Y-66830025D01*
X116756825Y-66878686D01*
X116756824Y-66878686D01*
X116756821Y-66878687D01*
X116631804Y-66891000D01*
X116548196Y-66891000D01*
X116423179Y-66878687D01*
X116423176Y-66878686D01*
X116423175Y-66878686D01*
X116262761Y-66830025D01*
X116262759Y-66830024D01*
X116262756Y-66830023D01*
X116114922Y-66751005D01*
X115985341Y-66644659D01*
X115878995Y-66515078D01*
X115799977Y-66367244D01*
X115751313Y-66206821D01*
X115734883Y-66040000D01*
X115751313Y-65873179D01*
X115799977Y-65712756D01*
X115878995Y-65564922D01*
X115985341Y-65435341D01*
X116114922Y-65328995D01*
X116262756Y-65249977D01*
X116262759Y-65249976D01*
X116262761Y-65249975D01*
X116423175Y-65201314D01*
X116423176Y-65201314D01*
X116423179Y-65201313D01*
X116548196Y-65189000D01*
X116631804Y-65189000D01*
X116756821Y-65201313D01*
X116756821Y-65201313D01*
G37*
G36*
X121836821Y-65201313D02*
X121836824Y-65201314D01*
X121836825Y-65201314D01*
X121997239Y-65249975D01*
X121997241Y-65249976D01*
X121997244Y-65249977D01*
X122145078Y-65328995D01*
X122274659Y-65435341D01*
X122381005Y-65564922D01*
X122460023Y-65712756D01*
X122508687Y-65873179D01*
X122525117Y-66040000D01*
X122508687Y-66206821D01*
X122460023Y-66367244D01*
X122381005Y-66515078D01*
X122274659Y-66644659D01*
X122145078Y-66751005D01*
X121997244Y-66830023D01*
X121997241Y-66830024D01*
X121997239Y-66830025D01*
X121836825Y-66878686D01*
X121836824Y-66878686D01*
X121836821Y-66878687D01*
X121711804Y-66891000D01*
X121628196Y-66891000D01*
X121503179Y-66878687D01*
X121503176Y-66878686D01*
X121503175Y-66878686D01*
X121342761Y-66830025D01*
X121342759Y-66830024D01*
X121342756Y-66830023D01*
X121194922Y-66751005D01*
X121065341Y-66644659D01*
X120958995Y-66515078D01*
X120879977Y-66367244D01*
X120831313Y-66206821D01*
X120814883Y-66040000D01*
X120831313Y-65873179D01*
X120879977Y-65712756D01*
X120958995Y-65564922D01*
X121065341Y-65435341D01*
X121194922Y-65328995D01*
X121342756Y-65249977D01*
X121342759Y-65249976D01*
X121342761Y-65249975D01*
X121503175Y-65201314D01*
X121503176Y-65201314D01*
X121503179Y-65201313D01*
X121628196Y-65189000D01*
X121711804Y-65189000D01*
X121836821Y-65201313D01*
X121836821Y-65201313D01*
G37*
G36*
X124376821Y-65201313D02*
X124376824Y-65201314D01*
X124376825Y-65201314D01*
X124537239Y-65249975D01*
X124537241Y-65249976D01*
X124537244Y-65249977D01*
X124685078Y-65328995D01*
X124814659Y-65435341D01*
X124921005Y-65564922D01*
X125000023Y-65712756D01*
X125048687Y-65873179D01*
X125065117Y-66040000D01*
X125048687Y-66206821D01*
X125000023Y-66367244D01*
X124921005Y-66515078D01*
X124814659Y-66644659D01*
X124685078Y-66751005D01*
X124537244Y-66830023D01*
X124537241Y-66830024D01*
X124537239Y-66830025D01*
X124376825Y-66878686D01*
X124376824Y-66878686D01*
X124376821Y-66878687D01*
X124251804Y-66891000D01*
X124168196Y-66891000D01*
X124043179Y-66878687D01*
X124043176Y-66878686D01*
X124043175Y-66878686D01*
X123882761Y-66830025D01*
X123882759Y-66830024D01*
X123882756Y-66830023D01*
X123734922Y-66751005D01*
X123605341Y-66644659D01*
X123498995Y-66515078D01*
X123419977Y-66367244D01*
X123371313Y-66206821D01*
X123354883Y-66040000D01*
X123371313Y-65873179D01*
X123419977Y-65712756D01*
X123498995Y-65564922D01*
X123605341Y-65435341D01*
X123734922Y-65328995D01*
X123882756Y-65249977D01*
X123882759Y-65249976D01*
X123882761Y-65249975D01*
X124043175Y-65201314D01*
X124043176Y-65201314D01*
X124043179Y-65201313D01*
X124168196Y-65189000D01*
X124251804Y-65189000D01*
X124376821Y-65201313D01*
X124376821Y-65201313D01*
G37*
G36*
X126916821Y-65201313D02*
X126916824Y-65201314D01*
X126916825Y-65201314D01*
X127077239Y-65249975D01*
X127077241Y-65249976D01*
X127077244Y-65249977D01*
X127225078Y-65328995D01*
X127354659Y-65435341D01*
X127461005Y-65564922D01*
X127540023Y-65712756D01*
X127588687Y-65873179D01*
X127605117Y-66040000D01*
X127588687Y-66206821D01*
X127540023Y-66367244D01*
X127461005Y-66515078D01*
X127354659Y-66644659D01*
X127225078Y-66751005D01*
X127077244Y-66830023D01*
X127077241Y-66830024D01*
X127077239Y-66830025D01*
X126916825Y-66878686D01*
X126916824Y-66878686D01*
X126916821Y-66878687D01*
X126791804Y-66891000D01*
X126708196Y-66891000D01*
X126583179Y-66878687D01*
X126583176Y-66878686D01*
X126583175Y-66878686D01*
X126422761Y-66830025D01*
X126422759Y-66830024D01*
X126422756Y-66830023D01*
X126274922Y-66751005D01*
X126145341Y-66644659D01*
X126038995Y-66515078D01*
X125959977Y-66367244D01*
X125911313Y-66206821D01*
X125894883Y-66040000D01*
X125911313Y-65873179D01*
X125959977Y-65712756D01*
X126038995Y-65564922D01*
X126145341Y-65435341D01*
X126274922Y-65328995D01*
X126422756Y-65249977D01*
X126422759Y-65249976D01*
X126422761Y-65249975D01*
X126583175Y-65201314D01*
X126583176Y-65201314D01*
X126583179Y-65201313D01*
X126708196Y-65189000D01*
X126791804Y-65189000D01*
X126916821Y-65201313D01*
X126916821Y-65201313D01*
G37*
G36*
X129456821Y-65201313D02*
X129456824Y-65201314D01*
X129456825Y-65201314D01*
X129617239Y-65249975D01*
X129617241Y-65249976D01*
X129617244Y-65249977D01*
X129765078Y-65328995D01*
X129894659Y-65435341D01*
X130001005Y-65564922D01*
X130080023Y-65712756D01*
X130128687Y-65873179D01*
X130145117Y-66040000D01*
X130128687Y-66206821D01*
X130080023Y-66367244D01*
X130001005Y-66515078D01*
X129894659Y-66644659D01*
X129765078Y-66751005D01*
X129617244Y-66830023D01*
X129617241Y-66830024D01*
X129617239Y-66830025D01*
X129456825Y-66878686D01*
X129456824Y-66878686D01*
X129456821Y-66878687D01*
X129331804Y-66891000D01*
X129248196Y-66891000D01*
X129123179Y-66878687D01*
X129123176Y-66878686D01*
X129123175Y-66878686D01*
X128962761Y-66830025D01*
X128962759Y-66830024D01*
X128962756Y-66830023D01*
X128814922Y-66751005D01*
X128685341Y-66644659D01*
X128578995Y-66515078D01*
X128499977Y-66367244D01*
X128451313Y-66206821D01*
X128434883Y-66040000D01*
X128451313Y-65873179D01*
X128499977Y-65712756D01*
X128578995Y-65564922D01*
X128685341Y-65435341D01*
X128814922Y-65328995D01*
X128962756Y-65249977D01*
X128962759Y-65249976D01*
X128962761Y-65249975D01*
X129123175Y-65201314D01*
X129123176Y-65201314D01*
X129123179Y-65201313D01*
X129248196Y-65189000D01*
X129331804Y-65189000D01*
X129456821Y-65201313D01*
X129456821Y-65201313D01*
G37*
G36*
X134536821Y-65201313D02*
X134536824Y-65201314D01*
X134536825Y-65201314D01*
X134697239Y-65249975D01*
X134697241Y-65249976D01*
X134697244Y-65249977D01*
X134845078Y-65328995D01*
X134974659Y-65435341D01*
X135081005Y-65564922D01*
X135160023Y-65712756D01*
X135208687Y-65873179D01*
X135225117Y-66040000D01*
X135208687Y-66206821D01*
X135160023Y-66367244D01*
X135081005Y-66515078D01*
X134974659Y-66644659D01*
X134845078Y-66751005D01*
X134697244Y-66830023D01*
X134697241Y-66830024D01*
X134697239Y-66830025D01*
X134536825Y-66878686D01*
X134536824Y-66878686D01*
X134536821Y-66878687D01*
X134411804Y-66891000D01*
X134328196Y-66891000D01*
X134203179Y-66878687D01*
X134203176Y-66878686D01*
X134203175Y-66878686D01*
X134042761Y-66830025D01*
X134042759Y-66830024D01*
X134042756Y-66830023D01*
X133894922Y-66751005D01*
X133765341Y-66644659D01*
X133658995Y-66515078D01*
X133579977Y-66367244D01*
X133531313Y-66206821D01*
X133514883Y-66040000D01*
X133531313Y-65873179D01*
X133579977Y-65712756D01*
X133658995Y-65564922D01*
X133765341Y-65435341D01*
X133894922Y-65328995D01*
X134042756Y-65249977D01*
X134042759Y-65249976D01*
X134042761Y-65249975D01*
X134203175Y-65201314D01*
X134203176Y-65201314D01*
X134203179Y-65201313D01*
X134328196Y-65189000D01*
X134411804Y-65189000D01*
X134536821Y-65201313D01*
X134536821Y-65201313D01*
G37*
G36*
X137076821Y-65201313D02*
X137076824Y-65201314D01*
X137076825Y-65201314D01*
X137237239Y-65249975D01*
X137237241Y-65249976D01*
X137237244Y-65249977D01*
X137385078Y-65328995D01*
X137514659Y-65435341D01*
X137621005Y-65564922D01*
X137700023Y-65712756D01*
X137748687Y-65873179D01*
X137765117Y-66040000D01*
X137748687Y-66206821D01*
X137700023Y-66367244D01*
X137621005Y-66515078D01*
X137514659Y-66644659D01*
X137385078Y-66751005D01*
X137237244Y-66830023D01*
X137237241Y-66830024D01*
X137237239Y-66830025D01*
X137076825Y-66878686D01*
X137076824Y-66878686D01*
X137076821Y-66878687D01*
X136951804Y-66891000D01*
X136868196Y-66891000D01*
X136743179Y-66878687D01*
X136743176Y-66878686D01*
X136743175Y-66878686D01*
X136582761Y-66830025D01*
X136582759Y-66830024D01*
X136582756Y-66830023D01*
X136434922Y-66751005D01*
X136305341Y-66644659D01*
X136198995Y-66515078D01*
X136119977Y-66367244D01*
X136071313Y-66206821D01*
X136054883Y-66040000D01*
X136071313Y-65873179D01*
X136119977Y-65712756D01*
X136198995Y-65564922D01*
X136305341Y-65435341D01*
X136434922Y-65328995D01*
X136582756Y-65249977D01*
X136582759Y-65249976D01*
X136582761Y-65249975D01*
X136743175Y-65201314D01*
X136743176Y-65201314D01*
X136743179Y-65201313D01*
X136868196Y-65189000D01*
X136951804Y-65189000D01*
X137076821Y-65201313D01*
X137076821Y-65201313D01*
G37*
G36*
X141136821Y-65201313D02*
X141136824Y-65201314D01*
X141136825Y-65201314D01*
X141297239Y-65249975D01*
X141297241Y-65249976D01*
X141297244Y-65249977D01*
X141445078Y-65328995D01*
X141574659Y-65435341D01*
X141681005Y-65564922D01*
X141760023Y-65712756D01*
X141808687Y-65873179D01*
X141825117Y-66040000D01*
X141808687Y-66206821D01*
X141760023Y-66367244D01*
X141681005Y-66515078D01*
X141574659Y-66644659D01*
X141445078Y-66751005D01*
X141297244Y-66830023D01*
X141297241Y-66830024D01*
X141297239Y-66830025D01*
X141136825Y-66878686D01*
X141136824Y-66878686D01*
X141136821Y-66878687D01*
X141011804Y-66891000D01*
X140928196Y-66891000D01*
X140803179Y-66878687D01*
X140803176Y-66878686D01*
X140803175Y-66878686D01*
X140642761Y-66830025D01*
X140642759Y-66830024D01*
X140642756Y-66830023D01*
X140494922Y-66751005D01*
X140365341Y-66644659D01*
X140258995Y-66515078D01*
X140179977Y-66367244D01*
X140131313Y-66206821D01*
X140114883Y-66040000D01*
X140131313Y-65873179D01*
X140179977Y-65712756D01*
X140258995Y-65564922D01*
X140365341Y-65435341D01*
X140494922Y-65328995D01*
X140642756Y-65249977D01*
X140642759Y-65249976D01*
X140642761Y-65249975D01*
X140803175Y-65201314D01*
X140803176Y-65201314D01*
X140803179Y-65201313D01*
X140928196Y-65189000D01*
X141011804Y-65189000D01*
X141136821Y-65201313D01*
X141136821Y-65201313D01*
G37*
G36*
X143676821Y-65201313D02*
X143676824Y-65201314D01*
X143676825Y-65201314D01*
X143837239Y-65249975D01*
X143837241Y-65249976D01*
X143837244Y-65249977D01*
X143985078Y-65328995D01*
X144114659Y-65435341D01*
X144221005Y-65564922D01*
X144300023Y-65712756D01*
X144348687Y-65873179D01*
X144365117Y-66040000D01*
X144348687Y-66206821D01*
X144300023Y-66367244D01*
X144221005Y-66515078D01*
X144114659Y-66644659D01*
X143985078Y-66751005D01*
X143837244Y-66830023D01*
X143837241Y-66830024D01*
X143837239Y-66830025D01*
X143676825Y-66878686D01*
X143676824Y-66878686D01*
X143676821Y-66878687D01*
X143551804Y-66891000D01*
X143468196Y-66891000D01*
X143343179Y-66878687D01*
X143343176Y-66878686D01*
X143343175Y-66878686D01*
X143182761Y-66830025D01*
X143182759Y-66830024D01*
X143182756Y-66830023D01*
X143034922Y-66751005D01*
X142905341Y-66644659D01*
X142798995Y-66515078D01*
X142719977Y-66367244D01*
X142671313Y-66206821D01*
X142654883Y-66040000D01*
X142671313Y-65873179D01*
X142719977Y-65712756D01*
X142798995Y-65564922D01*
X142905341Y-65435341D01*
X143034922Y-65328995D01*
X143182756Y-65249977D01*
X143182759Y-65249976D01*
X143182761Y-65249975D01*
X143343175Y-65201314D01*
X143343176Y-65201314D01*
X143343179Y-65201313D01*
X143468196Y-65189000D01*
X143551804Y-65189000D01*
X143676821Y-65201313D01*
X143676821Y-65201313D01*
G37*
G36*
X146216821Y-65201313D02*
X146216824Y-65201314D01*
X146216825Y-65201314D01*
X146377239Y-65249975D01*
X146377241Y-65249976D01*
X146377244Y-65249977D01*
X146525078Y-65328995D01*
X146654659Y-65435341D01*
X146761005Y-65564922D01*
X146840023Y-65712756D01*
X146888687Y-65873179D01*
X146905117Y-66040000D01*
X146888687Y-66206821D01*
X146840023Y-66367244D01*
X146761005Y-66515078D01*
X146654659Y-66644659D01*
X146525078Y-66751005D01*
X146377244Y-66830023D01*
X146377241Y-66830024D01*
X146377239Y-66830025D01*
X146216825Y-66878686D01*
X146216824Y-66878686D01*
X146216821Y-66878687D01*
X146091804Y-66891000D01*
X146008196Y-66891000D01*
X145883179Y-66878687D01*
X145883176Y-66878686D01*
X145883175Y-66878686D01*
X145722761Y-66830025D01*
X145722759Y-66830024D01*
X145722756Y-66830023D01*
X145574922Y-66751005D01*
X145445341Y-66644659D01*
X145338995Y-66515078D01*
X145259977Y-66367244D01*
X145211313Y-66206821D01*
X145194883Y-66040000D01*
X145211313Y-65873179D01*
X145259977Y-65712756D01*
X145338995Y-65564922D01*
X145445341Y-65435341D01*
X145574922Y-65328995D01*
X145722756Y-65249977D01*
X145722759Y-65249976D01*
X145722761Y-65249975D01*
X145883175Y-65201314D01*
X145883176Y-65201314D01*
X145883179Y-65201313D01*
X146008196Y-65189000D01*
X146091804Y-65189000D01*
X146216821Y-65201313D01*
X146216821Y-65201313D01*
G37*
G36*
X148756821Y-65201313D02*
X148756824Y-65201314D01*
X148756825Y-65201314D01*
X148917239Y-65249975D01*
X148917241Y-65249976D01*
X148917244Y-65249977D01*
X149065078Y-65328995D01*
X149194659Y-65435341D01*
X149301005Y-65564922D01*
X149380023Y-65712756D01*
X149428687Y-65873179D01*
X149445117Y-66040000D01*
X149428687Y-66206821D01*
X149380023Y-66367244D01*
X149301005Y-66515078D01*
X149194659Y-66644659D01*
X149065078Y-66751005D01*
X148917244Y-66830023D01*
X148917241Y-66830024D01*
X148917239Y-66830025D01*
X148756825Y-66878686D01*
X148756824Y-66878686D01*
X148756821Y-66878687D01*
X148631804Y-66891000D01*
X148548196Y-66891000D01*
X148423179Y-66878687D01*
X148423176Y-66878686D01*
X148423175Y-66878686D01*
X148262761Y-66830025D01*
X148262759Y-66830024D01*
X148262756Y-66830023D01*
X148114922Y-66751005D01*
X147985341Y-66644659D01*
X147878995Y-66515078D01*
X147799977Y-66367244D01*
X147751313Y-66206821D01*
X147734883Y-66040000D01*
X147751313Y-65873179D01*
X147799977Y-65712756D01*
X147878995Y-65564922D01*
X147985341Y-65435341D01*
X148114922Y-65328995D01*
X148262756Y-65249977D01*
X148262759Y-65249976D01*
X148262761Y-65249975D01*
X148423175Y-65201314D01*
X148423176Y-65201314D01*
X148423179Y-65201313D01*
X148548196Y-65189000D01*
X148631804Y-65189000D01*
X148756821Y-65201313D01*
X148756821Y-65201313D01*
G37*
G36*
X151296821Y-65201313D02*
X151296824Y-65201314D01*
X151296825Y-65201314D01*
X151457239Y-65249975D01*
X151457241Y-65249976D01*
X151457244Y-65249977D01*
X151605078Y-65328995D01*
X151734659Y-65435341D01*
X151841005Y-65564922D01*
X151920023Y-65712756D01*
X151968687Y-65873179D01*
X151985117Y-66040000D01*
X151968687Y-66206821D01*
X151920023Y-66367244D01*
X151841005Y-66515078D01*
X151734659Y-66644659D01*
X151605078Y-66751005D01*
X151457244Y-66830023D01*
X151457241Y-66830024D01*
X151457239Y-66830025D01*
X151296825Y-66878686D01*
X151296824Y-66878686D01*
X151296821Y-66878687D01*
X151171804Y-66891000D01*
X151088196Y-66891000D01*
X150963179Y-66878687D01*
X150963176Y-66878686D01*
X150963175Y-66878686D01*
X150802761Y-66830025D01*
X150802759Y-66830024D01*
X150802756Y-66830023D01*
X150654922Y-66751005D01*
X150525341Y-66644659D01*
X150418995Y-66515078D01*
X150339977Y-66367244D01*
X150291313Y-66206821D01*
X150274883Y-66040000D01*
X150291313Y-65873179D01*
X150339977Y-65712756D01*
X150418995Y-65564922D01*
X150525341Y-65435341D01*
X150654922Y-65328995D01*
X150802756Y-65249977D01*
X150802759Y-65249976D01*
X150802761Y-65249975D01*
X150963175Y-65201314D01*
X150963176Y-65201314D01*
X150963179Y-65201313D01*
X151088196Y-65189000D01*
X151171804Y-65189000D01*
X151296821Y-65201313D01*
X151296821Y-65201313D01*
G37*
G36*
X153836821Y-65201313D02*
X153836824Y-65201314D01*
X153836825Y-65201314D01*
X153997239Y-65249975D01*
X153997241Y-65249976D01*
X153997244Y-65249977D01*
X154145078Y-65328995D01*
X154274659Y-65435341D01*
X154381005Y-65564922D01*
X154460023Y-65712756D01*
X154508687Y-65873179D01*
X154525117Y-66040000D01*
X154508687Y-66206821D01*
X154460023Y-66367244D01*
X154381005Y-66515078D01*
X154274659Y-66644659D01*
X154145078Y-66751005D01*
X153997244Y-66830023D01*
X153997241Y-66830024D01*
X153997239Y-66830025D01*
X153836825Y-66878686D01*
X153836824Y-66878686D01*
X153836821Y-66878687D01*
X153711804Y-66891000D01*
X153628196Y-66891000D01*
X153503179Y-66878687D01*
X153503176Y-66878686D01*
X153503175Y-66878686D01*
X153342761Y-66830025D01*
X153342759Y-66830024D01*
X153342756Y-66830023D01*
X153194922Y-66751005D01*
X153065341Y-66644659D01*
X152958995Y-66515078D01*
X152879977Y-66367244D01*
X152831313Y-66206821D01*
X152814883Y-66040000D01*
X152831313Y-65873179D01*
X152879977Y-65712756D01*
X152958995Y-65564922D01*
X153065341Y-65435341D01*
X153194922Y-65328995D01*
X153342756Y-65249977D01*
X153342759Y-65249976D01*
X153342761Y-65249975D01*
X153503175Y-65201314D01*
X153503176Y-65201314D01*
X153503179Y-65201313D01*
X153628196Y-65189000D01*
X153711804Y-65189000D01*
X153836821Y-65201313D01*
X153836821Y-65201313D01*
G37*
G36*
X114216821Y-65201313D02*
X114216824Y-65201314D01*
X114216825Y-65201314D01*
X114377239Y-65249975D01*
X114377241Y-65249976D01*
X114377244Y-65249977D01*
X114525078Y-65328995D01*
X114654659Y-65435341D01*
X114761005Y-65564922D01*
X114840023Y-65712756D01*
X114888687Y-65873179D01*
X114905117Y-66040000D01*
X114888687Y-66206821D01*
X114840023Y-66367244D01*
X114761005Y-66515078D01*
X114654659Y-66644659D01*
X114525078Y-66751005D01*
X114377244Y-66830023D01*
X114377241Y-66830024D01*
X114377239Y-66830025D01*
X114216825Y-66878686D01*
X114216824Y-66878686D01*
X114216821Y-66878687D01*
X114091804Y-66891000D01*
X114008196Y-66891000D01*
X113883179Y-66878687D01*
X113883176Y-66878686D01*
X113883175Y-66878686D01*
X113722761Y-66830025D01*
X113722759Y-66830024D01*
X113722756Y-66830023D01*
X113574922Y-66751005D01*
X113445341Y-66644659D01*
X113338995Y-66515078D01*
X113259977Y-66367244D01*
X113211313Y-66206821D01*
X113194883Y-66040000D01*
X113211313Y-65873179D01*
X113259977Y-65712756D01*
X113338995Y-65564922D01*
X113445341Y-65435341D01*
X113574922Y-65328995D01*
X113722756Y-65249977D01*
X113722759Y-65249976D01*
X113722761Y-65249975D01*
X113883175Y-65201314D01*
X113883176Y-65201314D01*
X113883179Y-65201313D01*
X114008196Y-65189000D01*
X114091804Y-65189000D01*
X114216821Y-65201313D01*
X114216821Y-65201313D01*
G37*
G36*
X131996821Y-65201313D02*
X131996824Y-65201314D01*
X131996825Y-65201314D01*
X132157239Y-65249975D01*
X132157241Y-65249976D01*
X132157244Y-65249977D01*
X132305078Y-65328995D01*
X132434659Y-65435341D01*
X132541005Y-65564922D01*
X132620023Y-65712756D01*
X132668687Y-65873179D01*
X132685117Y-66040000D01*
X132668687Y-66206821D01*
X132620023Y-66367244D01*
X132541005Y-66515078D01*
X132434659Y-66644659D01*
X132305078Y-66751005D01*
X132157244Y-66830023D01*
X132157241Y-66830024D01*
X132157239Y-66830025D01*
X131996825Y-66878686D01*
X131996824Y-66878686D01*
X131996821Y-66878687D01*
X131871804Y-66891000D01*
X131788196Y-66891000D01*
X131663179Y-66878687D01*
X131663176Y-66878686D01*
X131663175Y-66878686D01*
X131502761Y-66830025D01*
X131502759Y-66830024D01*
X131502756Y-66830023D01*
X131354922Y-66751005D01*
X131225341Y-66644659D01*
X131118995Y-66515078D01*
X131039977Y-66367244D01*
X130991313Y-66206821D01*
X130974883Y-66040000D01*
X130991313Y-65873179D01*
X131039977Y-65712756D01*
X131118995Y-65564922D01*
X131225341Y-65435341D01*
X131354922Y-65328995D01*
X131502756Y-65249977D01*
X131502759Y-65249976D01*
X131502761Y-65249975D01*
X131663175Y-65201314D01*
X131663176Y-65201314D01*
X131663179Y-65201313D01*
X131788196Y-65189000D01*
X131871804Y-65189000D01*
X131996821Y-65201313D01*
X131996821Y-65201313D01*
G37*
G36*
X119296821Y-65201313D02*
X119296824Y-65201314D01*
X119296825Y-65201314D01*
X119457239Y-65249975D01*
X119457241Y-65249976D01*
X119457244Y-65249977D01*
X119605078Y-65328995D01*
X119734659Y-65435341D01*
X119841005Y-65564922D01*
X119920023Y-65712756D01*
X119968687Y-65873179D01*
X119985117Y-66040000D01*
X119968687Y-66206821D01*
X119920023Y-66367244D01*
X119841005Y-66515078D01*
X119734659Y-66644659D01*
X119605078Y-66751005D01*
X119457244Y-66830023D01*
X119457241Y-66830024D01*
X119457239Y-66830025D01*
X119296825Y-66878686D01*
X119296824Y-66878686D01*
X119296821Y-66878687D01*
X119171804Y-66891000D01*
X119088196Y-66891000D01*
X118963179Y-66878687D01*
X118963176Y-66878686D01*
X118963175Y-66878686D01*
X118802761Y-66830025D01*
X118802759Y-66830024D01*
X118802756Y-66830023D01*
X118654922Y-66751005D01*
X118525341Y-66644659D01*
X118418995Y-66515078D01*
X118339977Y-66367244D01*
X118291313Y-66206821D01*
X118274883Y-66040000D01*
X118291313Y-65873179D01*
X118339977Y-65712756D01*
X118418995Y-65564922D01*
X118525341Y-65435341D01*
X118654922Y-65328995D01*
X118802756Y-65249977D01*
X118802759Y-65249976D01*
X118802761Y-65249975D01*
X118963175Y-65201314D01*
X118963176Y-65201314D01*
X118963179Y-65201313D01*
X119088196Y-65189000D01*
X119171804Y-65189000D01*
X119296821Y-65201313D01*
X119296821Y-65201313D01*
G37*
G36*
X158916821Y-65201313D02*
X158916824Y-65201314D01*
X158916825Y-65201314D01*
X159077239Y-65249975D01*
X159077241Y-65249976D01*
X159077244Y-65249977D01*
X159225078Y-65328995D01*
X159354659Y-65435341D01*
X159461005Y-65564922D01*
X159540023Y-65712756D01*
X159588687Y-65873179D01*
X159605117Y-66040000D01*
X159588687Y-66206821D01*
X159540023Y-66367244D01*
X159461005Y-66515078D01*
X159354659Y-66644659D01*
X159225078Y-66751005D01*
X159077244Y-66830023D01*
X159077241Y-66830024D01*
X159077239Y-66830025D01*
X158916825Y-66878686D01*
X158916824Y-66878686D01*
X158916821Y-66878687D01*
X158791804Y-66891000D01*
X158708196Y-66891000D01*
X158583179Y-66878687D01*
X158583176Y-66878686D01*
X158583175Y-66878686D01*
X158422761Y-66830025D01*
X158422759Y-66830024D01*
X158422756Y-66830023D01*
X158274922Y-66751005D01*
X158145341Y-66644659D01*
X158038995Y-66515078D01*
X157959977Y-66367244D01*
X157911313Y-66206821D01*
X157894883Y-66040000D01*
X157911313Y-65873179D01*
X157959977Y-65712756D01*
X158038995Y-65564922D01*
X158145341Y-65435341D01*
X158274922Y-65328995D01*
X158422756Y-65249977D01*
X158422759Y-65249976D01*
X158422761Y-65249975D01*
X158583175Y-65201314D01*
X158583176Y-65201314D01*
X158583179Y-65201313D01*
X158708196Y-65189000D01*
X158791804Y-65189000D01*
X158916821Y-65201313D01*
X158916821Y-65201313D01*
G37*
G36*
X156376821Y-65201313D02*
X156376824Y-65201314D01*
X156376825Y-65201314D01*
X156537239Y-65249975D01*
X156537241Y-65249976D01*
X156537244Y-65249977D01*
X156685078Y-65328995D01*
X156814659Y-65435341D01*
X156921005Y-65564922D01*
X157000023Y-65712756D01*
X157048687Y-65873179D01*
X157065117Y-66040000D01*
X157048687Y-66206821D01*
X157000023Y-66367244D01*
X156921005Y-66515078D01*
X156814659Y-66644659D01*
X156685078Y-66751005D01*
X156537244Y-66830023D01*
X156537241Y-66830024D01*
X156537239Y-66830025D01*
X156376825Y-66878686D01*
X156376824Y-66878686D01*
X156376821Y-66878687D01*
X156251804Y-66891000D01*
X156168196Y-66891000D01*
X156043179Y-66878687D01*
X156043176Y-66878686D01*
X156043175Y-66878686D01*
X155882761Y-66830025D01*
X155882759Y-66830024D01*
X155882756Y-66830023D01*
X155734922Y-66751005D01*
X155605341Y-66644659D01*
X155498995Y-66515078D01*
X155419977Y-66367244D01*
X155371313Y-66206821D01*
X155354883Y-66040000D01*
X155371313Y-65873179D01*
X155419977Y-65712756D01*
X155498995Y-65564922D01*
X155605341Y-65435341D01*
X155734922Y-65328995D01*
X155882756Y-65249977D01*
X155882759Y-65249976D01*
X155882761Y-65249975D01*
X156043175Y-65201314D01*
X156043176Y-65201314D01*
X156043179Y-65201313D01*
X156168196Y-65189000D01*
X156251804Y-65189000D01*
X156376821Y-65201313D01*
X156376821Y-65201313D01*
G37*
M02*
