G04 #@! TF.GenerationSoftware,KiCad,Pcbnew,5.0.2-bee76a0~70~ubuntu18.04.1*
G04 #@! TF.CreationDate,2019-01-17T16:48:38+08:00*
G04 #@! TF.ProjectId,inAir9B Shield,696e4169-7239-4422-9053-6869656c642e,rev?*
G04 #@! TF.SameCoordinates,Original*
G04 #@! TF.FileFunction,Copper,L2,Bot*
G04 #@! TF.FilePolarity,Positive*
%FSLAX46Y46*%
G04 Gerber Fmt 4.6, Leading zero omitted, Abs format (unit mm)*
G04 Created by KiCad (PCBNEW 5.0.2-bee76a0~70~ubuntu18.04.1) date Thu Jan 17 16:48:38 2019*
%MOMM*%
%LPD*%
G01*
G04 APERTURE LIST*
G04 #@! TA.AperFunction,ComponentPad*
%ADD10O,1.600000X1.600000*%
G04 #@! TD*
G04 #@! TA.AperFunction,ComponentPad*
%ADD11R,1.600000X1.600000*%
G04 #@! TD*
G04 #@! TA.AperFunction,ComponentPad*
%ADD12R,1.700000X1.700000*%
G04 #@! TD*
G04 #@! TA.AperFunction,ComponentPad*
%ADD13O,1.700000X1.700000*%
G04 #@! TD*
G04 #@! TA.AperFunction,ViaPad*
%ADD14C,0.800000*%
G04 #@! TD*
G04 #@! TA.AperFunction,Conductor*
%ADD15C,0.250000*%
G04 #@! TD*
G04 #@! TA.AperFunction,Conductor*
%ADD16C,0.500000*%
G04 #@! TD*
G04 #@! TA.AperFunction,Conductor*
%ADD17C,0.254000*%
G04 #@! TD*
G04 APERTURE END LIST*
D10*
G04 #@! TO.P,A1,32*
G04 #@! TO.N,Net-(A1-Pad32)*
X114050000Y-66040000D03*
G04 #@! TO.P,A1,31*
G04 #@! TO.N,Net-(A1-Pad31)*
X116590000Y-66040000D03*
D11*
G04 #@! TO.P,A1,1*
G04 #@! TO.N,Net-(A1-Pad1)*
X123190000Y-114300000D03*
D10*
G04 #@! TO.P,A1,17*
G04 #@! TO.N,/D0*
X153670000Y-66040000D03*
G04 #@! TO.P,A1,2*
G04 #@! TO.N,Net-(A1-Pad2)*
X125730000Y-114300000D03*
G04 #@! TO.P,A1,18*
G04 #@! TO.N,Net-(A1-Pad18)*
X151130000Y-66040000D03*
G04 #@! TO.P,A1,3*
G04 #@! TO.N,Net-(A1-Pad3)*
X128270000Y-114300000D03*
G04 #@! TO.P,A1,19*
G04 #@! TO.N,Net-(A1-Pad19)*
X148590000Y-66040000D03*
G04 #@! TO.P,A1,4*
G04 #@! TO.N,+3V3*
X130810000Y-114300000D03*
G04 #@! TO.P,A1,20*
G04 #@! TO.N,Net-(A1-Pad20)*
X146050000Y-66040000D03*
G04 #@! TO.P,A1,5*
G04 #@! TO.N,Net-(A1-Pad5)*
X133350000Y-114300000D03*
G04 #@! TO.P,A1,21*
G04 #@! TO.N,/D1*
X143510000Y-66040000D03*
G04 #@! TO.P,A1,6*
G04 #@! TO.N,GND*
X135890000Y-114300000D03*
G04 #@! TO.P,A1,22*
G04 #@! TO.N,/D2*
X140970000Y-66040000D03*
G04 #@! TO.P,A1,7*
G04 #@! TO.N,GND*
X138430000Y-114300000D03*
G04 #@! TO.P,A1,23*
G04 #@! TO.N,Net-(A1-Pad23)*
X136910000Y-66040000D03*
G04 #@! TO.P,A1,8*
G04 #@! TO.N,Net-(A1-Pad8)*
X140970000Y-114300000D03*
G04 #@! TO.P,A1,24*
G04 #@! TO.N,/RST*
X134370000Y-66040000D03*
G04 #@! TO.P,A1,9*
G04 #@! TO.N,Net-(A1-Pad9)*
X146050000Y-114300000D03*
G04 #@! TO.P,A1,25*
G04 #@! TO.N,/CS*
X131830000Y-66040000D03*
G04 #@! TO.P,A1,10*
G04 #@! TO.N,Net-(A1-Pad10)*
X148590000Y-114300000D03*
G04 #@! TO.P,A1,26*
G04 #@! TO.N,/MOSI*
X129290000Y-66040000D03*
G04 #@! TO.P,A1,11*
G04 #@! TO.N,Net-(A1-Pad11)*
X151130000Y-114300000D03*
G04 #@! TO.P,A1,27*
G04 #@! TO.N,/MISO*
X126750000Y-66040000D03*
G04 #@! TO.P,A1,12*
G04 #@! TO.N,Net-(A1-Pad12)*
X153670000Y-114300000D03*
G04 #@! TO.P,A1,28*
G04 #@! TO.N,/SCK*
X124210000Y-66040000D03*
G04 #@! TO.P,A1,13*
G04 #@! TO.N,Net-(A1-Pad13)*
X156210000Y-114300000D03*
G04 #@! TO.P,A1,29*
G04 #@! TO.N,GND*
X121670000Y-66040000D03*
G04 #@! TO.P,A1,14*
G04 #@! TO.N,Net-(A1-Pad14)*
X158750000Y-114300000D03*
G04 #@! TO.P,A1,30*
G04 #@! TO.N,Net-(A1-Pad30)*
X119130000Y-66040000D03*
G04 #@! TO.P,A1,15*
G04 #@! TO.N,Net-(A1-Pad15)*
X158750000Y-66040000D03*
G04 #@! TO.P,A1,16*
G04 #@! TO.N,Net-(A1-Pad16)*
X156210000Y-66040000D03*
G04 #@! TD*
D12*
G04 #@! TO.P,J1,1*
G04 #@! TO.N,Net-(A1-Pad16)*
X148590000Y-71120000D03*
D13*
G04 #@! TO.P,J1,2*
G04 #@! TO.N,Net-(A1-Pad15)*
X151130000Y-71120000D03*
G04 #@! TO.P,J1,3*
G04 #@! TO.N,GND*
X153670000Y-71120000D03*
G04 #@! TO.P,J1,4*
G04 #@! TO.N,+3V3*
X156210000Y-71120000D03*
G04 #@! TD*
G04 #@! TO.P,J2,7*
G04 #@! TO.N,GND*
X124460000Y-100330000D03*
G04 #@! TO.P,J2,6*
G04 #@! TO.N,/CS*
X127000000Y-100330000D03*
G04 #@! TO.P,J2,5*
G04 #@! TO.N,Net-(J2-Pad5)*
X129540000Y-100330000D03*
G04 #@! TO.P,J2,4*
G04 #@! TO.N,/RST*
X132080000Y-100330000D03*
G04 #@! TO.P,J2,3*
G04 #@! TO.N,/D0*
X134620000Y-100330000D03*
G04 #@! TO.P,J2,2*
G04 #@! TO.N,/D1*
X137160000Y-100330000D03*
D12*
G04 #@! TO.P,J2,1*
G04 #@! TO.N,/D2*
X139700000Y-100330000D03*
G04 #@! TD*
G04 #@! TO.P,J3,1*
G04 #@! TO.N,Net-(J3-Pad1)*
X124460000Y-77470000D03*
D13*
G04 #@! TO.P,J3,2*
G04 #@! TO.N,+3V3*
X127000000Y-77470000D03*
G04 #@! TO.P,J3,3*
G04 #@! TO.N,/SCK*
X129540000Y-77470000D03*
G04 #@! TO.P,J3,4*
G04 #@! TO.N,/MISO*
X132080000Y-77470000D03*
G04 #@! TO.P,J3,5*
G04 #@! TO.N,/MOSI*
X134620000Y-77470000D03*
G04 #@! TO.P,J3,6*
G04 #@! TO.N,Net-(J3-Pad6)*
X137160000Y-77470000D03*
G04 #@! TO.P,J3,7*
G04 #@! TO.N,Net-(J3-Pad7)*
X139700000Y-77470000D03*
G04 #@! TD*
D14*
G04 #@! TO.N,GND*
X137160000Y-87630000D03*
X139700000Y-87630000D03*
X142240000Y-87630000D03*
X137160000Y-72390000D03*
X149860000Y-75946000D03*
X139700000Y-72390000D03*
X154940000Y-74930000D03*
G04 #@! TD*
D15*
G04 #@! TO.N,+3V3*
X127000000Y-77470000D02*
X127588000Y-77470000D01*
D16*
X127000000Y-77470000D02*
X129286000Y-79756000D01*
X155360001Y-71969999D02*
X156210000Y-71120000D01*
X147574000Y-79756000D02*
X155360001Y-71969999D01*
X129286000Y-79756000D02*
X147574000Y-79756000D01*
D15*
G04 #@! TO.N,/CS*
X127000000Y-100330000D02*
X127000000Y-99154700D01*
X127000000Y-99154700D02*
X125806000Y-97960700D01*
X125806000Y-97960700D02*
X125806000Y-73189300D01*
X125806000Y-73189300D02*
X131830000Y-67165300D01*
X131830000Y-67165300D02*
X131830000Y-66040000D01*
G04 #@! TO.N,Net-(A1-Pad15)*
X151130000Y-71120000D02*
X152305000Y-71120000D01*
X152305000Y-71120000D02*
X152305000Y-70752600D01*
X152305000Y-70752600D02*
X155893000Y-67165300D01*
X155893000Y-67165300D02*
X156781000Y-67165300D01*
X156781000Y-67165300D02*
X157625000Y-66321400D01*
X157625000Y-66321400D02*
X157625000Y-66040000D01*
X157625000Y-66040000D02*
X158750000Y-66040000D01*
G04 #@! TO.N,Net-(A1-Pad16)*
X148590000Y-71120000D02*
X149765000Y-71120000D01*
X149765000Y-71120000D02*
X149765000Y-70752600D01*
X149765000Y-70752600D02*
X153353000Y-67165300D01*
X153353000Y-67165300D02*
X154241000Y-67165300D01*
X154241000Y-67165300D02*
X155085000Y-66321400D01*
X155085000Y-66321400D02*
X155085000Y-66040000D01*
X155085000Y-66040000D02*
X156210000Y-66040000D01*
G04 #@! TD*
D17*
G04 #@! TO.N,GND*
G36*
X160809001Y-64969237D02*
X160809000Y-76152631D01*
X160799578Y-76200000D01*
X160809000Y-76247369D01*
X160809000Y-76247372D01*
X160836908Y-76387676D01*
X160943219Y-76546781D01*
X160983380Y-76573616D01*
X163349001Y-78939237D01*
X163349000Y-111560764D01*
X160983378Y-113926386D01*
X160943220Y-113953219D01*
X160916387Y-113993377D01*
X160916384Y-113993380D01*
X160836908Y-114112324D01*
X160799578Y-114300000D01*
X160809001Y-114347374D01*
X160809000Y-116359000D01*
X120849236Y-116359000D01*
X119861000Y-115370764D01*
X119861000Y-113500000D01*
X122001536Y-113500000D01*
X122001536Y-115100000D01*
X122031106Y-115248659D01*
X122115314Y-115374686D01*
X122241341Y-115458894D01*
X122390000Y-115488464D01*
X123990000Y-115488464D01*
X124138659Y-115458894D01*
X124264686Y-115374686D01*
X124348894Y-115248659D01*
X124378464Y-115100000D01*
X124378464Y-114300000D01*
X124525863Y-114300000D01*
X124617522Y-114760803D01*
X124878547Y-115151453D01*
X125269197Y-115412478D01*
X125613682Y-115481000D01*
X125846318Y-115481000D01*
X126190803Y-115412478D01*
X126581453Y-115151453D01*
X126842478Y-114760803D01*
X126934137Y-114300000D01*
X127065863Y-114300000D01*
X127157522Y-114760803D01*
X127418547Y-115151453D01*
X127809197Y-115412478D01*
X128153682Y-115481000D01*
X128386318Y-115481000D01*
X128730803Y-115412478D01*
X129121453Y-115151453D01*
X129382478Y-114760803D01*
X129474137Y-114300000D01*
X129605863Y-114300000D01*
X129697522Y-114760803D01*
X129958547Y-115151453D01*
X130349197Y-115412478D01*
X130693682Y-115481000D01*
X130926318Y-115481000D01*
X131270803Y-115412478D01*
X131661453Y-115151453D01*
X131922478Y-114760803D01*
X132014137Y-114300000D01*
X132145863Y-114300000D01*
X132237522Y-114760803D01*
X132498547Y-115151453D01*
X132889197Y-115412478D01*
X133233682Y-115481000D01*
X133466318Y-115481000D01*
X133810803Y-115412478D01*
X134201453Y-115151453D01*
X134462478Y-114760803D01*
X134528875Y-114427002D01*
X134619370Y-114427002D01*
X134498086Y-114649041D01*
X134737611Y-115155134D01*
X135152577Y-115531041D01*
X135540961Y-115691904D01*
X135763000Y-115569915D01*
X135763000Y-114427000D01*
X136017000Y-114427000D01*
X136017000Y-115569915D01*
X136239039Y-115691904D01*
X136627423Y-115531041D01*
X137042389Y-115155134D01*
X137160000Y-114906633D01*
X137277611Y-115155134D01*
X137692577Y-115531041D01*
X138080961Y-115691904D01*
X138303000Y-115569915D01*
X138303000Y-114427000D01*
X136017000Y-114427000D01*
X135763000Y-114427000D01*
X135743000Y-114427000D01*
X135743000Y-114173000D01*
X135763000Y-114173000D01*
X135763000Y-113030085D01*
X136017000Y-113030085D01*
X136017000Y-114173000D01*
X138303000Y-114173000D01*
X138303000Y-113030085D01*
X138557000Y-113030085D01*
X138557000Y-114173000D01*
X138577000Y-114173000D01*
X138577000Y-114427000D01*
X138557000Y-114427000D01*
X138557000Y-115569915D01*
X138779039Y-115691904D01*
X139167423Y-115531041D01*
X139582389Y-115155134D01*
X139821914Y-114649041D01*
X139700630Y-114427002D01*
X139791125Y-114427002D01*
X139857522Y-114760803D01*
X140118547Y-115151453D01*
X140509197Y-115412478D01*
X140853682Y-115481000D01*
X141086318Y-115481000D01*
X141430803Y-115412478D01*
X141821453Y-115151453D01*
X142082478Y-114760803D01*
X142174137Y-114300000D01*
X144845863Y-114300000D01*
X144937522Y-114760803D01*
X145198547Y-115151453D01*
X145589197Y-115412478D01*
X145933682Y-115481000D01*
X146166318Y-115481000D01*
X146510803Y-115412478D01*
X146901453Y-115151453D01*
X147162478Y-114760803D01*
X147254137Y-114300000D01*
X147385863Y-114300000D01*
X147477522Y-114760803D01*
X147738547Y-115151453D01*
X148129197Y-115412478D01*
X148473682Y-115481000D01*
X148706318Y-115481000D01*
X149050803Y-115412478D01*
X149441453Y-115151453D01*
X149702478Y-114760803D01*
X149794137Y-114300000D01*
X149925863Y-114300000D01*
X150017522Y-114760803D01*
X150278547Y-115151453D01*
X150669197Y-115412478D01*
X151013682Y-115481000D01*
X151246318Y-115481000D01*
X151590803Y-115412478D01*
X151981453Y-115151453D01*
X152242478Y-114760803D01*
X152334137Y-114300000D01*
X152465863Y-114300000D01*
X152557522Y-114760803D01*
X152818547Y-115151453D01*
X153209197Y-115412478D01*
X153553682Y-115481000D01*
X153786318Y-115481000D01*
X154130803Y-115412478D01*
X154521453Y-115151453D01*
X154782478Y-114760803D01*
X154874137Y-114300000D01*
X155005863Y-114300000D01*
X155097522Y-114760803D01*
X155358547Y-115151453D01*
X155749197Y-115412478D01*
X156093682Y-115481000D01*
X156326318Y-115481000D01*
X156670803Y-115412478D01*
X157061453Y-115151453D01*
X157322478Y-114760803D01*
X157414137Y-114300000D01*
X157545863Y-114300000D01*
X157637522Y-114760803D01*
X157898547Y-115151453D01*
X158289197Y-115412478D01*
X158633682Y-115481000D01*
X158866318Y-115481000D01*
X159210803Y-115412478D01*
X159601453Y-115151453D01*
X159862478Y-114760803D01*
X159954137Y-114300000D01*
X159862478Y-113839197D01*
X159601453Y-113448547D01*
X159210803Y-113187522D01*
X158866318Y-113119000D01*
X158633682Y-113119000D01*
X158289197Y-113187522D01*
X157898547Y-113448547D01*
X157637522Y-113839197D01*
X157545863Y-114300000D01*
X157414137Y-114300000D01*
X157322478Y-113839197D01*
X157061453Y-113448547D01*
X156670803Y-113187522D01*
X156326318Y-113119000D01*
X156093682Y-113119000D01*
X155749197Y-113187522D01*
X155358547Y-113448547D01*
X155097522Y-113839197D01*
X155005863Y-114300000D01*
X154874137Y-114300000D01*
X154782478Y-113839197D01*
X154521453Y-113448547D01*
X154130803Y-113187522D01*
X153786318Y-113119000D01*
X153553682Y-113119000D01*
X153209197Y-113187522D01*
X152818547Y-113448547D01*
X152557522Y-113839197D01*
X152465863Y-114300000D01*
X152334137Y-114300000D01*
X152242478Y-113839197D01*
X151981453Y-113448547D01*
X151590803Y-113187522D01*
X151246318Y-113119000D01*
X151013682Y-113119000D01*
X150669197Y-113187522D01*
X150278547Y-113448547D01*
X150017522Y-113839197D01*
X149925863Y-114300000D01*
X149794137Y-114300000D01*
X149702478Y-113839197D01*
X149441453Y-113448547D01*
X149050803Y-113187522D01*
X148706318Y-113119000D01*
X148473682Y-113119000D01*
X148129197Y-113187522D01*
X147738547Y-113448547D01*
X147477522Y-113839197D01*
X147385863Y-114300000D01*
X147254137Y-114300000D01*
X147162478Y-113839197D01*
X146901453Y-113448547D01*
X146510803Y-113187522D01*
X146166318Y-113119000D01*
X145933682Y-113119000D01*
X145589197Y-113187522D01*
X145198547Y-113448547D01*
X144937522Y-113839197D01*
X144845863Y-114300000D01*
X142174137Y-114300000D01*
X142082478Y-113839197D01*
X141821453Y-113448547D01*
X141430803Y-113187522D01*
X141086318Y-113119000D01*
X140853682Y-113119000D01*
X140509197Y-113187522D01*
X140118547Y-113448547D01*
X139857522Y-113839197D01*
X139791125Y-114172998D01*
X139700630Y-114172998D01*
X139821914Y-113950959D01*
X139582389Y-113444866D01*
X139167423Y-113068959D01*
X138779039Y-112908096D01*
X138557000Y-113030085D01*
X138303000Y-113030085D01*
X138080961Y-112908096D01*
X137692577Y-113068959D01*
X137277611Y-113444866D01*
X137160000Y-113693367D01*
X137042389Y-113444866D01*
X136627423Y-113068959D01*
X136239039Y-112908096D01*
X136017000Y-113030085D01*
X135763000Y-113030085D01*
X135540961Y-112908096D01*
X135152577Y-113068959D01*
X134737611Y-113444866D01*
X134498086Y-113950959D01*
X134619370Y-114172998D01*
X134528875Y-114172998D01*
X134462478Y-113839197D01*
X134201453Y-113448547D01*
X133810803Y-113187522D01*
X133466318Y-113119000D01*
X133233682Y-113119000D01*
X132889197Y-113187522D01*
X132498547Y-113448547D01*
X132237522Y-113839197D01*
X132145863Y-114300000D01*
X132014137Y-114300000D01*
X131922478Y-113839197D01*
X131661453Y-113448547D01*
X131270803Y-113187522D01*
X130926318Y-113119000D01*
X130693682Y-113119000D01*
X130349197Y-113187522D01*
X129958547Y-113448547D01*
X129697522Y-113839197D01*
X129605863Y-114300000D01*
X129474137Y-114300000D01*
X129382478Y-113839197D01*
X129121453Y-113448547D01*
X128730803Y-113187522D01*
X128386318Y-113119000D01*
X128153682Y-113119000D01*
X127809197Y-113187522D01*
X127418547Y-113448547D01*
X127157522Y-113839197D01*
X127065863Y-114300000D01*
X126934137Y-114300000D01*
X126842478Y-113839197D01*
X126581453Y-113448547D01*
X126190803Y-113187522D01*
X125846318Y-113119000D01*
X125613682Y-113119000D01*
X125269197Y-113187522D01*
X124878547Y-113448547D01*
X124617522Y-113839197D01*
X124525863Y-114300000D01*
X124378464Y-114300000D01*
X124378464Y-113500000D01*
X124348894Y-113351341D01*
X124264686Y-113225314D01*
X124138659Y-113141106D01*
X123990000Y-113111536D01*
X122390000Y-113111536D01*
X122241341Y-113141106D01*
X122115314Y-113225314D01*
X122031106Y-113351341D01*
X122001536Y-113500000D01*
X119861000Y-113500000D01*
X119861000Y-100686892D01*
X123018514Y-100686892D01*
X123264817Y-101211358D01*
X123693076Y-101601645D01*
X124103110Y-101771476D01*
X124333000Y-101650155D01*
X124333000Y-100457000D01*
X123139181Y-100457000D01*
X123018514Y-100686892D01*
X119861000Y-100686892D01*
X119861000Y-99973108D01*
X123018514Y-99973108D01*
X123139181Y-100203000D01*
X124333000Y-100203000D01*
X124333000Y-99009845D01*
X124103110Y-98888524D01*
X123693076Y-99058355D01*
X123264817Y-99448642D01*
X123018514Y-99973108D01*
X119861000Y-99973108D01*
X119861000Y-76620000D01*
X123221536Y-76620000D01*
X123221536Y-78320000D01*
X123251106Y-78468659D01*
X123335314Y-78594686D01*
X123461341Y-78678894D01*
X123610000Y-78708464D01*
X125300001Y-78708464D01*
X125300000Y-97910866D01*
X125290087Y-97960700D01*
X125300000Y-98010534D01*
X125329359Y-98158130D01*
X125441194Y-98325506D01*
X125483447Y-98353738D01*
X126388074Y-99258366D01*
X126112499Y-99442499D01*
X125842245Y-99846963D01*
X125655183Y-99448642D01*
X125226924Y-99058355D01*
X124816890Y-98888524D01*
X124587000Y-99009845D01*
X124587000Y-100203000D01*
X124607000Y-100203000D01*
X124607000Y-100457000D01*
X124587000Y-100457000D01*
X124587000Y-101650155D01*
X124816890Y-101771476D01*
X125226924Y-101601645D01*
X125655183Y-101211358D01*
X125842245Y-100813037D01*
X126112499Y-101217501D01*
X126519688Y-101489576D01*
X126878761Y-101561000D01*
X127121239Y-101561000D01*
X127480312Y-101489576D01*
X127887501Y-101217501D01*
X128159576Y-100810312D01*
X128255116Y-100330000D01*
X128284884Y-100330000D01*
X128380424Y-100810312D01*
X128652499Y-101217501D01*
X129059688Y-101489576D01*
X129418761Y-101561000D01*
X129661239Y-101561000D01*
X130020312Y-101489576D01*
X130427501Y-101217501D01*
X130699576Y-100810312D01*
X130795116Y-100330000D01*
X130824884Y-100330000D01*
X130920424Y-100810312D01*
X131192499Y-101217501D01*
X131599688Y-101489576D01*
X131958761Y-101561000D01*
X132201239Y-101561000D01*
X132560312Y-101489576D01*
X132967501Y-101217501D01*
X133239576Y-100810312D01*
X133335116Y-100330000D01*
X133364884Y-100330000D01*
X133460424Y-100810312D01*
X133732499Y-101217501D01*
X134139688Y-101489576D01*
X134498761Y-101561000D01*
X134741239Y-101561000D01*
X135100312Y-101489576D01*
X135507501Y-101217501D01*
X135779576Y-100810312D01*
X135875116Y-100330000D01*
X135904884Y-100330000D01*
X136000424Y-100810312D01*
X136272499Y-101217501D01*
X136679688Y-101489576D01*
X137038761Y-101561000D01*
X137281239Y-101561000D01*
X137640312Y-101489576D01*
X138047501Y-101217501D01*
X138319576Y-100810312D01*
X138415116Y-100330000D01*
X138319576Y-99849688D01*
X138072559Y-99480000D01*
X138461536Y-99480000D01*
X138461536Y-101180000D01*
X138491106Y-101328659D01*
X138575314Y-101454686D01*
X138701341Y-101538894D01*
X138850000Y-101568464D01*
X140550000Y-101568464D01*
X140698659Y-101538894D01*
X140824686Y-101454686D01*
X140908894Y-101328659D01*
X140938464Y-101180000D01*
X140938464Y-99480000D01*
X140908894Y-99331341D01*
X140824686Y-99205314D01*
X140698659Y-99121106D01*
X140550000Y-99091536D01*
X138850000Y-99091536D01*
X138701341Y-99121106D01*
X138575314Y-99205314D01*
X138491106Y-99331341D01*
X138461536Y-99480000D01*
X138072559Y-99480000D01*
X138047501Y-99442499D01*
X137640312Y-99170424D01*
X137281239Y-99099000D01*
X137038761Y-99099000D01*
X136679688Y-99170424D01*
X136272499Y-99442499D01*
X136000424Y-99849688D01*
X135904884Y-100330000D01*
X135875116Y-100330000D01*
X135779576Y-99849688D01*
X135507501Y-99442499D01*
X135100312Y-99170424D01*
X134741239Y-99099000D01*
X134498761Y-99099000D01*
X134139688Y-99170424D01*
X133732499Y-99442499D01*
X133460424Y-99849688D01*
X133364884Y-100330000D01*
X133335116Y-100330000D01*
X133239576Y-99849688D01*
X132967501Y-99442499D01*
X132560312Y-99170424D01*
X132201239Y-99099000D01*
X131958761Y-99099000D01*
X131599688Y-99170424D01*
X131192499Y-99442499D01*
X130920424Y-99849688D01*
X130824884Y-100330000D01*
X130795116Y-100330000D01*
X130699576Y-99849688D01*
X130427501Y-99442499D01*
X130020312Y-99170424D01*
X129661239Y-99099000D01*
X129418761Y-99099000D01*
X129059688Y-99170424D01*
X128652499Y-99442499D01*
X128380424Y-99849688D01*
X128284884Y-100330000D01*
X128255116Y-100330000D01*
X128159576Y-99849688D01*
X127887501Y-99442499D01*
X127508975Y-99189576D01*
X127515913Y-99154700D01*
X127504833Y-99099000D01*
X127476641Y-98957269D01*
X127364806Y-98789894D01*
X127322555Y-98761663D01*
X126312000Y-97751109D01*
X126312000Y-78490803D01*
X126519688Y-78629576D01*
X126878761Y-78701000D01*
X127121239Y-78701000D01*
X127302564Y-78664932D01*
X128795869Y-80158238D01*
X128831074Y-80210926D01*
X129039796Y-80350389D01*
X129223852Y-80387000D01*
X129285999Y-80399362D01*
X129348146Y-80387000D01*
X147511852Y-80387000D01*
X147574000Y-80399362D01*
X147636148Y-80387000D01*
X147820204Y-80350389D01*
X148028926Y-80210926D01*
X148064133Y-80158235D01*
X155850130Y-72372239D01*
X155850132Y-72372236D01*
X155907436Y-72314932D01*
X156088761Y-72351000D01*
X156331239Y-72351000D01*
X156690312Y-72279576D01*
X157097501Y-72007501D01*
X157369576Y-71600312D01*
X157465116Y-71120000D01*
X157369576Y-70639688D01*
X157097501Y-70232499D01*
X156690312Y-69960424D01*
X156331239Y-69889000D01*
X156088761Y-69889000D01*
X155729688Y-69960424D01*
X155322499Y-70232499D01*
X155052245Y-70636963D01*
X154865183Y-70238642D01*
X154436924Y-69848355D01*
X154075012Y-69698456D01*
X156102563Y-67671300D01*
X156731150Y-67671300D01*
X156780970Y-67681213D01*
X156830820Y-67671300D01*
X156830835Y-67671300D01*
X156883584Y-67660808D01*
X156978403Y-67641952D01*
X156978415Y-67641944D01*
X156978431Y-67641941D01*
X157076683Y-67576292D01*
X157103534Y-67558353D01*
X157103540Y-67558347D01*
X157145806Y-67530106D01*
X157174030Y-67487866D01*
X157847268Y-66814708D01*
X157898547Y-66891453D01*
X158289197Y-67152478D01*
X158633682Y-67221000D01*
X158866318Y-67221000D01*
X159210803Y-67152478D01*
X159601453Y-66891453D01*
X159862478Y-66500803D01*
X159954137Y-66040000D01*
X159862478Y-65579197D01*
X159601453Y-65188547D01*
X159210803Y-64927522D01*
X158866318Y-64859000D01*
X158633682Y-64859000D01*
X158289197Y-64927522D01*
X157898547Y-65188547D01*
X157668556Y-65532751D01*
X157625000Y-65524087D01*
X157575165Y-65534000D01*
X157427569Y-65563359D01*
X157332026Y-65627198D01*
X157322478Y-65579197D01*
X157061453Y-65188547D01*
X156670803Y-64927522D01*
X156326318Y-64859000D01*
X156093682Y-64859000D01*
X155749197Y-64927522D01*
X155358547Y-65188547D01*
X155128556Y-65532751D01*
X155085000Y-65524087D01*
X155035165Y-65534000D01*
X154887569Y-65563359D01*
X154792026Y-65627198D01*
X154782478Y-65579197D01*
X154521453Y-65188547D01*
X154130803Y-64927522D01*
X153786318Y-64859000D01*
X153553682Y-64859000D01*
X153209197Y-64927522D01*
X152818547Y-65188547D01*
X152557522Y-65579197D01*
X152465863Y-66040000D01*
X152557522Y-66500803D01*
X152818547Y-66891453D01*
X152874107Y-66928577D01*
X149751566Y-70050510D01*
X149714686Y-69995314D01*
X149588659Y-69911106D01*
X149440000Y-69881536D01*
X147740000Y-69881536D01*
X147591341Y-69911106D01*
X147465314Y-69995314D01*
X147381106Y-70121341D01*
X147351536Y-70270000D01*
X147351536Y-71970000D01*
X147381106Y-72118659D01*
X147465314Y-72244686D01*
X147591341Y-72328894D01*
X147740000Y-72358464D01*
X149440000Y-72358464D01*
X149588659Y-72328894D01*
X149714686Y-72244686D01*
X149798894Y-72118659D01*
X149828464Y-71970000D01*
X149828464Y-71623289D01*
X149962431Y-71596641D01*
X149968842Y-71592358D01*
X149970424Y-71600312D01*
X150242499Y-72007501D01*
X150649688Y-72279576D01*
X151008761Y-72351000D01*
X151251239Y-72351000D01*
X151610312Y-72279576D01*
X152017501Y-72007501D01*
X152270388Y-71629028D01*
X152303008Y-71635517D01*
X152474817Y-72001358D01*
X152903076Y-72391645D01*
X153313110Y-72561476D01*
X153543000Y-72440155D01*
X153543000Y-71247000D01*
X153523000Y-71247000D01*
X153523000Y-70993000D01*
X153543000Y-70993000D01*
X153543000Y-70973000D01*
X153797000Y-70973000D01*
X153797000Y-70993000D01*
X153817000Y-70993000D01*
X153817000Y-71247000D01*
X153797000Y-71247000D01*
X153797000Y-72440155D01*
X153928224Y-72509407D01*
X147312632Y-79125000D01*
X129547369Y-79125000D01*
X129036352Y-78613984D01*
X129059688Y-78629576D01*
X129418761Y-78701000D01*
X129661239Y-78701000D01*
X130020312Y-78629576D01*
X130427501Y-78357501D01*
X130699576Y-77950312D01*
X130795116Y-77470000D01*
X130824884Y-77470000D01*
X130920424Y-77950312D01*
X131192499Y-78357501D01*
X131599688Y-78629576D01*
X131958761Y-78701000D01*
X132201239Y-78701000D01*
X132560312Y-78629576D01*
X132967501Y-78357501D01*
X133239576Y-77950312D01*
X133335116Y-77470000D01*
X133364884Y-77470000D01*
X133460424Y-77950312D01*
X133732499Y-78357501D01*
X134139688Y-78629576D01*
X134498761Y-78701000D01*
X134741239Y-78701000D01*
X135100312Y-78629576D01*
X135507501Y-78357501D01*
X135779576Y-77950312D01*
X135875116Y-77470000D01*
X135904884Y-77470000D01*
X136000424Y-77950312D01*
X136272499Y-78357501D01*
X136679688Y-78629576D01*
X137038761Y-78701000D01*
X137281239Y-78701000D01*
X137640312Y-78629576D01*
X138047501Y-78357501D01*
X138319576Y-77950312D01*
X138415116Y-77470000D01*
X138444884Y-77470000D01*
X138540424Y-77950312D01*
X138812499Y-78357501D01*
X139219688Y-78629576D01*
X139578761Y-78701000D01*
X139821239Y-78701000D01*
X140180312Y-78629576D01*
X140587501Y-78357501D01*
X140859576Y-77950312D01*
X140955116Y-77470000D01*
X140859576Y-76989688D01*
X140587501Y-76582499D01*
X140180312Y-76310424D01*
X139821239Y-76239000D01*
X139578761Y-76239000D01*
X139219688Y-76310424D01*
X138812499Y-76582499D01*
X138540424Y-76989688D01*
X138444884Y-77470000D01*
X138415116Y-77470000D01*
X138319576Y-76989688D01*
X138047501Y-76582499D01*
X137640312Y-76310424D01*
X137281239Y-76239000D01*
X137038761Y-76239000D01*
X136679688Y-76310424D01*
X136272499Y-76582499D01*
X136000424Y-76989688D01*
X135904884Y-77470000D01*
X135875116Y-77470000D01*
X135779576Y-76989688D01*
X135507501Y-76582499D01*
X135100312Y-76310424D01*
X134741239Y-76239000D01*
X134498761Y-76239000D01*
X134139688Y-76310424D01*
X133732499Y-76582499D01*
X133460424Y-76989688D01*
X133364884Y-77470000D01*
X133335116Y-77470000D01*
X133239576Y-76989688D01*
X132967501Y-76582499D01*
X132560312Y-76310424D01*
X132201239Y-76239000D01*
X131958761Y-76239000D01*
X131599688Y-76310424D01*
X131192499Y-76582499D01*
X130920424Y-76989688D01*
X130824884Y-77470000D01*
X130795116Y-77470000D01*
X130699576Y-76989688D01*
X130427501Y-76582499D01*
X130020312Y-76310424D01*
X129661239Y-76239000D01*
X129418761Y-76239000D01*
X129059688Y-76310424D01*
X128652499Y-76582499D01*
X128380424Y-76989688D01*
X128284884Y-77470000D01*
X128380424Y-77950312D01*
X128396017Y-77973649D01*
X128194932Y-77772564D01*
X128255116Y-77470000D01*
X128159576Y-76989688D01*
X127887501Y-76582499D01*
X127480312Y-76310424D01*
X127121239Y-76239000D01*
X126878761Y-76239000D01*
X126519688Y-76310424D01*
X126312000Y-76449197D01*
X126312000Y-73398891D01*
X132152556Y-67558336D01*
X132194806Y-67530106D01*
X132306641Y-67362731D01*
X132336000Y-67215135D01*
X132336000Y-67215134D01*
X132345913Y-67165301D01*
X132337196Y-67121479D01*
X132681453Y-66891453D01*
X132942478Y-66500803D01*
X133034137Y-66040000D01*
X133165863Y-66040000D01*
X133257522Y-66500803D01*
X133518547Y-66891453D01*
X133909197Y-67152478D01*
X134253682Y-67221000D01*
X134486318Y-67221000D01*
X134830803Y-67152478D01*
X135221453Y-66891453D01*
X135482478Y-66500803D01*
X135574137Y-66040000D01*
X135705863Y-66040000D01*
X135797522Y-66500803D01*
X136058547Y-66891453D01*
X136449197Y-67152478D01*
X136793682Y-67221000D01*
X137026318Y-67221000D01*
X137370803Y-67152478D01*
X137761453Y-66891453D01*
X138022478Y-66500803D01*
X138114137Y-66040000D01*
X139765863Y-66040000D01*
X139857522Y-66500803D01*
X140118547Y-66891453D01*
X140509197Y-67152478D01*
X140853682Y-67221000D01*
X141086318Y-67221000D01*
X141430803Y-67152478D01*
X141821453Y-66891453D01*
X142082478Y-66500803D01*
X142174137Y-66040000D01*
X142305863Y-66040000D01*
X142397522Y-66500803D01*
X142658547Y-66891453D01*
X143049197Y-67152478D01*
X143393682Y-67221000D01*
X143626318Y-67221000D01*
X143970803Y-67152478D01*
X144361453Y-66891453D01*
X144622478Y-66500803D01*
X144714137Y-66040000D01*
X144845863Y-66040000D01*
X144937522Y-66500803D01*
X145198547Y-66891453D01*
X145589197Y-67152478D01*
X145933682Y-67221000D01*
X146166318Y-67221000D01*
X146510803Y-67152478D01*
X146901453Y-66891453D01*
X147162478Y-66500803D01*
X147254137Y-66040000D01*
X147385863Y-66040000D01*
X147477522Y-66500803D01*
X147738547Y-66891453D01*
X148129197Y-67152478D01*
X148473682Y-67221000D01*
X148706318Y-67221000D01*
X149050803Y-67152478D01*
X149441453Y-66891453D01*
X149702478Y-66500803D01*
X149794137Y-66040000D01*
X149925863Y-66040000D01*
X150017522Y-66500803D01*
X150278547Y-66891453D01*
X150669197Y-67152478D01*
X151013682Y-67221000D01*
X151246318Y-67221000D01*
X151590803Y-67152478D01*
X151981453Y-66891453D01*
X152242478Y-66500803D01*
X152334137Y-66040000D01*
X152242478Y-65579197D01*
X151981453Y-65188547D01*
X151590803Y-64927522D01*
X151246318Y-64859000D01*
X151013682Y-64859000D01*
X150669197Y-64927522D01*
X150278547Y-65188547D01*
X150017522Y-65579197D01*
X149925863Y-66040000D01*
X149794137Y-66040000D01*
X149702478Y-65579197D01*
X149441453Y-65188547D01*
X149050803Y-64927522D01*
X148706318Y-64859000D01*
X148473682Y-64859000D01*
X148129197Y-64927522D01*
X147738547Y-65188547D01*
X147477522Y-65579197D01*
X147385863Y-66040000D01*
X147254137Y-66040000D01*
X147162478Y-65579197D01*
X146901453Y-65188547D01*
X146510803Y-64927522D01*
X146166318Y-64859000D01*
X145933682Y-64859000D01*
X145589197Y-64927522D01*
X145198547Y-65188547D01*
X144937522Y-65579197D01*
X144845863Y-66040000D01*
X144714137Y-66040000D01*
X144622478Y-65579197D01*
X144361453Y-65188547D01*
X143970803Y-64927522D01*
X143626318Y-64859000D01*
X143393682Y-64859000D01*
X143049197Y-64927522D01*
X142658547Y-65188547D01*
X142397522Y-65579197D01*
X142305863Y-66040000D01*
X142174137Y-66040000D01*
X142082478Y-65579197D01*
X141821453Y-65188547D01*
X141430803Y-64927522D01*
X141086318Y-64859000D01*
X140853682Y-64859000D01*
X140509197Y-64927522D01*
X140118547Y-65188547D01*
X139857522Y-65579197D01*
X139765863Y-66040000D01*
X138114137Y-66040000D01*
X138022478Y-65579197D01*
X137761453Y-65188547D01*
X137370803Y-64927522D01*
X137026318Y-64859000D01*
X136793682Y-64859000D01*
X136449197Y-64927522D01*
X136058547Y-65188547D01*
X135797522Y-65579197D01*
X135705863Y-66040000D01*
X135574137Y-66040000D01*
X135482478Y-65579197D01*
X135221453Y-65188547D01*
X134830803Y-64927522D01*
X134486318Y-64859000D01*
X134253682Y-64859000D01*
X133909197Y-64927522D01*
X133518547Y-65188547D01*
X133257522Y-65579197D01*
X133165863Y-66040000D01*
X133034137Y-66040000D01*
X132942478Y-65579197D01*
X132681453Y-65188547D01*
X132290803Y-64927522D01*
X131946318Y-64859000D01*
X131713682Y-64859000D01*
X131369197Y-64927522D01*
X130978547Y-65188547D01*
X130717522Y-65579197D01*
X130625863Y-66040000D01*
X130717522Y-66500803D01*
X130978547Y-66891453D01*
X131224149Y-67055559D01*
X125483446Y-72796263D01*
X125441195Y-72824494D01*
X125329360Y-72991869D01*
X125290087Y-73189300D01*
X125300001Y-73239139D01*
X125300001Y-76231536D01*
X123610000Y-76231536D01*
X123461341Y-76261106D01*
X123335314Y-76345314D01*
X123251106Y-76471341D01*
X123221536Y-76620000D01*
X119861000Y-76620000D01*
X119861000Y-68627373D01*
X119870423Y-68580000D01*
X119833092Y-68392323D01*
X119726781Y-68233219D01*
X119567677Y-68126908D01*
X119427373Y-68099000D01*
X119380000Y-68089577D01*
X119332627Y-68099000D01*
X113229236Y-68099000D01*
X112241000Y-67110764D01*
X112241000Y-66040000D01*
X112845863Y-66040000D01*
X112937522Y-66500803D01*
X113198547Y-66891453D01*
X113589197Y-67152478D01*
X113933682Y-67221000D01*
X114166318Y-67221000D01*
X114510803Y-67152478D01*
X114901453Y-66891453D01*
X115162478Y-66500803D01*
X115254137Y-66040000D01*
X115385863Y-66040000D01*
X115477522Y-66500803D01*
X115738547Y-66891453D01*
X116129197Y-67152478D01*
X116473682Y-67221000D01*
X116706318Y-67221000D01*
X117050803Y-67152478D01*
X117441453Y-66891453D01*
X117702478Y-66500803D01*
X117794137Y-66040000D01*
X117925863Y-66040000D01*
X118017522Y-66500803D01*
X118278547Y-66891453D01*
X118669197Y-67152478D01*
X119013682Y-67221000D01*
X119246318Y-67221000D01*
X119590803Y-67152478D01*
X119981453Y-66891453D01*
X120242478Y-66500803D01*
X120308875Y-66167002D01*
X120399370Y-66167002D01*
X120278086Y-66389041D01*
X120517611Y-66895134D01*
X120932577Y-67271041D01*
X121320961Y-67431904D01*
X121543000Y-67309915D01*
X121543000Y-66167000D01*
X121523000Y-66167000D01*
X121523000Y-65913000D01*
X121543000Y-65913000D01*
X121543000Y-64770085D01*
X121797000Y-64770085D01*
X121797000Y-65913000D01*
X121817000Y-65913000D01*
X121817000Y-66167000D01*
X121797000Y-66167000D01*
X121797000Y-67309915D01*
X122019039Y-67431904D01*
X122407423Y-67271041D01*
X122822389Y-66895134D01*
X123061914Y-66389041D01*
X122940630Y-66167002D01*
X123031125Y-66167002D01*
X123097522Y-66500803D01*
X123358547Y-66891453D01*
X123749197Y-67152478D01*
X124093682Y-67221000D01*
X124326318Y-67221000D01*
X124670803Y-67152478D01*
X125061453Y-66891453D01*
X125322478Y-66500803D01*
X125414137Y-66040000D01*
X125545863Y-66040000D01*
X125637522Y-66500803D01*
X125898547Y-66891453D01*
X126289197Y-67152478D01*
X126633682Y-67221000D01*
X126866318Y-67221000D01*
X127210803Y-67152478D01*
X127601453Y-66891453D01*
X127862478Y-66500803D01*
X127954137Y-66040000D01*
X128085863Y-66040000D01*
X128177522Y-66500803D01*
X128438547Y-66891453D01*
X128829197Y-67152478D01*
X129173682Y-67221000D01*
X129406318Y-67221000D01*
X129750803Y-67152478D01*
X130141453Y-66891453D01*
X130402478Y-66500803D01*
X130494137Y-66040000D01*
X130402478Y-65579197D01*
X130141453Y-65188547D01*
X129750803Y-64927522D01*
X129406318Y-64859000D01*
X129173682Y-64859000D01*
X128829197Y-64927522D01*
X128438547Y-65188547D01*
X128177522Y-65579197D01*
X128085863Y-66040000D01*
X127954137Y-66040000D01*
X127862478Y-65579197D01*
X127601453Y-65188547D01*
X127210803Y-64927522D01*
X126866318Y-64859000D01*
X126633682Y-64859000D01*
X126289197Y-64927522D01*
X125898547Y-65188547D01*
X125637522Y-65579197D01*
X125545863Y-66040000D01*
X125414137Y-66040000D01*
X125322478Y-65579197D01*
X125061453Y-65188547D01*
X124670803Y-64927522D01*
X124326318Y-64859000D01*
X124093682Y-64859000D01*
X123749197Y-64927522D01*
X123358547Y-65188547D01*
X123097522Y-65579197D01*
X123031125Y-65912998D01*
X122940630Y-65912998D01*
X123061914Y-65690959D01*
X122822389Y-65184866D01*
X122407423Y-64808959D01*
X122019039Y-64648096D01*
X121797000Y-64770085D01*
X121543000Y-64770085D01*
X121320961Y-64648096D01*
X120932577Y-64808959D01*
X120517611Y-65184866D01*
X120278086Y-65690959D01*
X120399370Y-65912998D01*
X120308875Y-65912998D01*
X120242478Y-65579197D01*
X119981453Y-65188547D01*
X119590803Y-64927522D01*
X119246318Y-64859000D01*
X119013682Y-64859000D01*
X118669197Y-64927522D01*
X118278547Y-65188547D01*
X118017522Y-65579197D01*
X117925863Y-66040000D01*
X117794137Y-66040000D01*
X117702478Y-65579197D01*
X117441453Y-65188547D01*
X117050803Y-64927522D01*
X116706318Y-64859000D01*
X116473682Y-64859000D01*
X116129197Y-64927522D01*
X115738547Y-65188547D01*
X115477522Y-65579197D01*
X115385863Y-66040000D01*
X115254137Y-66040000D01*
X115162478Y-65579197D01*
X114901453Y-65188547D01*
X114510803Y-64927522D01*
X114166318Y-64859000D01*
X113933682Y-64859000D01*
X113589197Y-64927522D01*
X113198547Y-65188547D01*
X112937522Y-65579197D01*
X112845863Y-66040000D01*
X112241000Y-66040000D01*
X112241000Y-64969236D01*
X113229236Y-63981000D01*
X159820764Y-63981000D01*
X160809001Y-64969237D01*
X160809001Y-64969237D01*
G37*
X160809001Y-64969237D02*
X160809000Y-76152631D01*
X160799578Y-76200000D01*
X160809000Y-76247369D01*
X160809000Y-76247372D01*
X160836908Y-76387676D01*
X160943219Y-76546781D01*
X160983380Y-76573616D01*
X163349001Y-78939237D01*
X163349000Y-111560764D01*
X160983378Y-113926386D01*
X160943220Y-113953219D01*
X160916387Y-113993377D01*
X160916384Y-113993380D01*
X160836908Y-114112324D01*
X160799578Y-114300000D01*
X160809001Y-114347374D01*
X160809000Y-116359000D01*
X120849236Y-116359000D01*
X119861000Y-115370764D01*
X119861000Y-113500000D01*
X122001536Y-113500000D01*
X122001536Y-115100000D01*
X122031106Y-115248659D01*
X122115314Y-115374686D01*
X122241341Y-115458894D01*
X122390000Y-115488464D01*
X123990000Y-115488464D01*
X124138659Y-115458894D01*
X124264686Y-115374686D01*
X124348894Y-115248659D01*
X124378464Y-115100000D01*
X124378464Y-114300000D01*
X124525863Y-114300000D01*
X124617522Y-114760803D01*
X124878547Y-115151453D01*
X125269197Y-115412478D01*
X125613682Y-115481000D01*
X125846318Y-115481000D01*
X126190803Y-115412478D01*
X126581453Y-115151453D01*
X126842478Y-114760803D01*
X126934137Y-114300000D01*
X127065863Y-114300000D01*
X127157522Y-114760803D01*
X127418547Y-115151453D01*
X127809197Y-115412478D01*
X128153682Y-115481000D01*
X128386318Y-115481000D01*
X128730803Y-115412478D01*
X129121453Y-115151453D01*
X129382478Y-114760803D01*
X129474137Y-114300000D01*
X129605863Y-114300000D01*
X129697522Y-114760803D01*
X129958547Y-115151453D01*
X130349197Y-115412478D01*
X130693682Y-115481000D01*
X130926318Y-115481000D01*
X131270803Y-115412478D01*
X131661453Y-115151453D01*
X131922478Y-114760803D01*
X132014137Y-114300000D01*
X132145863Y-114300000D01*
X132237522Y-114760803D01*
X132498547Y-115151453D01*
X132889197Y-115412478D01*
X133233682Y-115481000D01*
X133466318Y-115481000D01*
X133810803Y-115412478D01*
X134201453Y-115151453D01*
X134462478Y-114760803D01*
X134528875Y-114427002D01*
X134619370Y-114427002D01*
X134498086Y-114649041D01*
X134737611Y-115155134D01*
X135152577Y-115531041D01*
X135540961Y-115691904D01*
X135763000Y-115569915D01*
X135763000Y-114427000D01*
X136017000Y-114427000D01*
X136017000Y-115569915D01*
X136239039Y-115691904D01*
X136627423Y-115531041D01*
X137042389Y-115155134D01*
X137160000Y-114906633D01*
X137277611Y-115155134D01*
X137692577Y-115531041D01*
X138080961Y-115691904D01*
X138303000Y-115569915D01*
X138303000Y-114427000D01*
X136017000Y-114427000D01*
X135763000Y-114427000D01*
X135743000Y-114427000D01*
X135743000Y-114173000D01*
X135763000Y-114173000D01*
X135763000Y-113030085D01*
X136017000Y-113030085D01*
X136017000Y-114173000D01*
X138303000Y-114173000D01*
X138303000Y-113030085D01*
X138557000Y-113030085D01*
X138557000Y-114173000D01*
X138577000Y-114173000D01*
X138577000Y-114427000D01*
X138557000Y-114427000D01*
X138557000Y-115569915D01*
X138779039Y-115691904D01*
X139167423Y-115531041D01*
X139582389Y-115155134D01*
X139821914Y-114649041D01*
X139700630Y-114427002D01*
X139791125Y-114427002D01*
X139857522Y-114760803D01*
X140118547Y-115151453D01*
X140509197Y-115412478D01*
X140853682Y-115481000D01*
X141086318Y-115481000D01*
X141430803Y-115412478D01*
X141821453Y-115151453D01*
X142082478Y-114760803D01*
X142174137Y-114300000D01*
X144845863Y-114300000D01*
X144937522Y-114760803D01*
X145198547Y-115151453D01*
X145589197Y-115412478D01*
X145933682Y-115481000D01*
X146166318Y-115481000D01*
X146510803Y-115412478D01*
X146901453Y-115151453D01*
X147162478Y-114760803D01*
X147254137Y-114300000D01*
X147385863Y-114300000D01*
X147477522Y-114760803D01*
X147738547Y-115151453D01*
X148129197Y-115412478D01*
X148473682Y-115481000D01*
X148706318Y-115481000D01*
X149050803Y-115412478D01*
X149441453Y-115151453D01*
X149702478Y-114760803D01*
X149794137Y-114300000D01*
X149925863Y-114300000D01*
X150017522Y-114760803D01*
X150278547Y-115151453D01*
X150669197Y-115412478D01*
X151013682Y-115481000D01*
X151246318Y-115481000D01*
X151590803Y-115412478D01*
X151981453Y-115151453D01*
X152242478Y-114760803D01*
X152334137Y-114300000D01*
X152465863Y-114300000D01*
X152557522Y-114760803D01*
X152818547Y-115151453D01*
X153209197Y-115412478D01*
X153553682Y-115481000D01*
X153786318Y-115481000D01*
X154130803Y-115412478D01*
X154521453Y-115151453D01*
X154782478Y-114760803D01*
X154874137Y-114300000D01*
X155005863Y-114300000D01*
X155097522Y-114760803D01*
X155358547Y-115151453D01*
X155749197Y-115412478D01*
X156093682Y-115481000D01*
X156326318Y-115481000D01*
X156670803Y-115412478D01*
X157061453Y-115151453D01*
X157322478Y-114760803D01*
X157414137Y-114300000D01*
X157545863Y-114300000D01*
X157637522Y-114760803D01*
X157898547Y-115151453D01*
X158289197Y-115412478D01*
X158633682Y-115481000D01*
X158866318Y-115481000D01*
X159210803Y-115412478D01*
X159601453Y-115151453D01*
X159862478Y-114760803D01*
X159954137Y-114300000D01*
X159862478Y-113839197D01*
X159601453Y-113448547D01*
X159210803Y-113187522D01*
X158866318Y-113119000D01*
X158633682Y-113119000D01*
X158289197Y-113187522D01*
X157898547Y-113448547D01*
X157637522Y-113839197D01*
X157545863Y-114300000D01*
X157414137Y-114300000D01*
X157322478Y-113839197D01*
X157061453Y-113448547D01*
X156670803Y-113187522D01*
X156326318Y-113119000D01*
X156093682Y-113119000D01*
X155749197Y-113187522D01*
X155358547Y-113448547D01*
X155097522Y-113839197D01*
X155005863Y-114300000D01*
X154874137Y-114300000D01*
X154782478Y-113839197D01*
X154521453Y-113448547D01*
X154130803Y-113187522D01*
X153786318Y-113119000D01*
X153553682Y-113119000D01*
X153209197Y-113187522D01*
X152818547Y-113448547D01*
X152557522Y-113839197D01*
X152465863Y-114300000D01*
X152334137Y-114300000D01*
X152242478Y-113839197D01*
X151981453Y-113448547D01*
X151590803Y-113187522D01*
X151246318Y-113119000D01*
X151013682Y-113119000D01*
X150669197Y-113187522D01*
X150278547Y-113448547D01*
X150017522Y-113839197D01*
X149925863Y-114300000D01*
X149794137Y-114300000D01*
X149702478Y-113839197D01*
X149441453Y-113448547D01*
X149050803Y-113187522D01*
X148706318Y-113119000D01*
X148473682Y-113119000D01*
X148129197Y-113187522D01*
X147738547Y-113448547D01*
X147477522Y-113839197D01*
X147385863Y-114300000D01*
X147254137Y-114300000D01*
X147162478Y-113839197D01*
X146901453Y-113448547D01*
X146510803Y-113187522D01*
X146166318Y-113119000D01*
X145933682Y-113119000D01*
X145589197Y-113187522D01*
X145198547Y-113448547D01*
X144937522Y-113839197D01*
X144845863Y-114300000D01*
X142174137Y-114300000D01*
X142082478Y-113839197D01*
X141821453Y-113448547D01*
X141430803Y-113187522D01*
X141086318Y-113119000D01*
X140853682Y-113119000D01*
X140509197Y-113187522D01*
X140118547Y-113448547D01*
X139857522Y-113839197D01*
X139791125Y-114172998D01*
X139700630Y-114172998D01*
X139821914Y-113950959D01*
X139582389Y-113444866D01*
X139167423Y-113068959D01*
X138779039Y-112908096D01*
X138557000Y-113030085D01*
X138303000Y-113030085D01*
X138080961Y-112908096D01*
X137692577Y-113068959D01*
X137277611Y-113444866D01*
X137160000Y-113693367D01*
X137042389Y-113444866D01*
X136627423Y-113068959D01*
X136239039Y-112908096D01*
X136017000Y-113030085D01*
X135763000Y-113030085D01*
X135540961Y-112908096D01*
X135152577Y-113068959D01*
X134737611Y-113444866D01*
X134498086Y-113950959D01*
X134619370Y-114172998D01*
X134528875Y-114172998D01*
X134462478Y-113839197D01*
X134201453Y-113448547D01*
X133810803Y-113187522D01*
X133466318Y-113119000D01*
X133233682Y-113119000D01*
X132889197Y-113187522D01*
X132498547Y-113448547D01*
X132237522Y-113839197D01*
X132145863Y-114300000D01*
X132014137Y-114300000D01*
X131922478Y-113839197D01*
X131661453Y-113448547D01*
X131270803Y-113187522D01*
X130926318Y-113119000D01*
X130693682Y-113119000D01*
X130349197Y-113187522D01*
X129958547Y-113448547D01*
X129697522Y-113839197D01*
X129605863Y-114300000D01*
X129474137Y-114300000D01*
X129382478Y-113839197D01*
X129121453Y-113448547D01*
X128730803Y-113187522D01*
X128386318Y-113119000D01*
X128153682Y-113119000D01*
X127809197Y-113187522D01*
X127418547Y-113448547D01*
X127157522Y-113839197D01*
X127065863Y-114300000D01*
X126934137Y-114300000D01*
X126842478Y-113839197D01*
X126581453Y-113448547D01*
X126190803Y-113187522D01*
X125846318Y-113119000D01*
X125613682Y-113119000D01*
X125269197Y-113187522D01*
X124878547Y-113448547D01*
X124617522Y-113839197D01*
X124525863Y-114300000D01*
X124378464Y-114300000D01*
X124378464Y-113500000D01*
X124348894Y-113351341D01*
X124264686Y-113225314D01*
X124138659Y-113141106D01*
X123990000Y-113111536D01*
X122390000Y-113111536D01*
X122241341Y-113141106D01*
X122115314Y-113225314D01*
X122031106Y-113351341D01*
X122001536Y-113500000D01*
X119861000Y-113500000D01*
X119861000Y-100686892D01*
X123018514Y-100686892D01*
X123264817Y-101211358D01*
X123693076Y-101601645D01*
X124103110Y-101771476D01*
X124333000Y-101650155D01*
X124333000Y-100457000D01*
X123139181Y-100457000D01*
X123018514Y-100686892D01*
X119861000Y-100686892D01*
X119861000Y-99973108D01*
X123018514Y-99973108D01*
X123139181Y-100203000D01*
X124333000Y-100203000D01*
X124333000Y-99009845D01*
X124103110Y-98888524D01*
X123693076Y-99058355D01*
X123264817Y-99448642D01*
X123018514Y-99973108D01*
X119861000Y-99973108D01*
X119861000Y-76620000D01*
X123221536Y-76620000D01*
X123221536Y-78320000D01*
X123251106Y-78468659D01*
X123335314Y-78594686D01*
X123461341Y-78678894D01*
X123610000Y-78708464D01*
X125300001Y-78708464D01*
X125300000Y-97910866D01*
X125290087Y-97960700D01*
X125300000Y-98010534D01*
X125329359Y-98158130D01*
X125441194Y-98325506D01*
X125483447Y-98353738D01*
X126388074Y-99258366D01*
X126112499Y-99442499D01*
X125842245Y-99846963D01*
X125655183Y-99448642D01*
X125226924Y-99058355D01*
X124816890Y-98888524D01*
X124587000Y-99009845D01*
X124587000Y-100203000D01*
X124607000Y-100203000D01*
X124607000Y-100457000D01*
X124587000Y-100457000D01*
X124587000Y-101650155D01*
X124816890Y-101771476D01*
X125226924Y-101601645D01*
X125655183Y-101211358D01*
X125842245Y-100813037D01*
X126112499Y-101217501D01*
X126519688Y-101489576D01*
X126878761Y-101561000D01*
X127121239Y-101561000D01*
X127480312Y-101489576D01*
X127887501Y-101217501D01*
X128159576Y-100810312D01*
X128255116Y-100330000D01*
X128284884Y-100330000D01*
X128380424Y-100810312D01*
X128652499Y-101217501D01*
X129059688Y-101489576D01*
X129418761Y-101561000D01*
X129661239Y-101561000D01*
X130020312Y-101489576D01*
X130427501Y-101217501D01*
X130699576Y-100810312D01*
X130795116Y-100330000D01*
X130824884Y-100330000D01*
X130920424Y-100810312D01*
X131192499Y-101217501D01*
X131599688Y-101489576D01*
X131958761Y-101561000D01*
X132201239Y-101561000D01*
X132560312Y-101489576D01*
X132967501Y-101217501D01*
X133239576Y-100810312D01*
X133335116Y-100330000D01*
X133364884Y-100330000D01*
X133460424Y-100810312D01*
X133732499Y-101217501D01*
X134139688Y-101489576D01*
X134498761Y-101561000D01*
X134741239Y-101561000D01*
X135100312Y-101489576D01*
X135507501Y-101217501D01*
X135779576Y-100810312D01*
X135875116Y-100330000D01*
X135904884Y-100330000D01*
X136000424Y-100810312D01*
X136272499Y-101217501D01*
X136679688Y-101489576D01*
X137038761Y-101561000D01*
X137281239Y-101561000D01*
X137640312Y-101489576D01*
X138047501Y-101217501D01*
X138319576Y-100810312D01*
X138415116Y-100330000D01*
X138319576Y-99849688D01*
X138072559Y-99480000D01*
X138461536Y-99480000D01*
X138461536Y-101180000D01*
X138491106Y-101328659D01*
X138575314Y-101454686D01*
X138701341Y-101538894D01*
X138850000Y-101568464D01*
X140550000Y-101568464D01*
X140698659Y-101538894D01*
X140824686Y-101454686D01*
X140908894Y-101328659D01*
X140938464Y-101180000D01*
X140938464Y-99480000D01*
X140908894Y-99331341D01*
X140824686Y-99205314D01*
X140698659Y-99121106D01*
X140550000Y-99091536D01*
X138850000Y-99091536D01*
X138701341Y-99121106D01*
X138575314Y-99205314D01*
X138491106Y-99331341D01*
X138461536Y-99480000D01*
X138072559Y-99480000D01*
X138047501Y-99442499D01*
X137640312Y-99170424D01*
X137281239Y-99099000D01*
X137038761Y-99099000D01*
X136679688Y-99170424D01*
X136272499Y-99442499D01*
X136000424Y-99849688D01*
X135904884Y-100330000D01*
X135875116Y-100330000D01*
X135779576Y-99849688D01*
X135507501Y-99442499D01*
X135100312Y-99170424D01*
X134741239Y-99099000D01*
X134498761Y-99099000D01*
X134139688Y-99170424D01*
X133732499Y-99442499D01*
X133460424Y-99849688D01*
X133364884Y-100330000D01*
X133335116Y-100330000D01*
X133239576Y-99849688D01*
X132967501Y-99442499D01*
X132560312Y-99170424D01*
X132201239Y-99099000D01*
X131958761Y-99099000D01*
X131599688Y-99170424D01*
X131192499Y-99442499D01*
X130920424Y-99849688D01*
X130824884Y-100330000D01*
X130795116Y-100330000D01*
X130699576Y-99849688D01*
X130427501Y-99442499D01*
X130020312Y-99170424D01*
X129661239Y-99099000D01*
X129418761Y-99099000D01*
X129059688Y-99170424D01*
X128652499Y-99442499D01*
X128380424Y-99849688D01*
X128284884Y-100330000D01*
X128255116Y-100330000D01*
X128159576Y-99849688D01*
X127887501Y-99442499D01*
X127508975Y-99189576D01*
X127515913Y-99154700D01*
X127504833Y-99099000D01*
X127476641Y-98957269D01*
X127364806Y-98789894D01*
X127322555Y-98761663D01*
X126312000Y-97751109D01*
X126312000Y-78490803D01*
X126519688Y-78629576D01*
X126878761Y-78701000D01*
X127121239Y-78701000D01*
X127302564Y-78664932D01*
X128795869Y-80158238D01*
X128831074Y-80210926D01*
X129039796Y-80350389D01*
X129223852Y-80387000D01*
X129285999Y-80399362D01*
X129348146Y-80387000D01*
X147511852Y-80387000D01*
X147574000Y-80399362D01*
X147636148Y-80387000D01*
X147820204Y-80350389D01*
X148028926Y-80210926D01*
X148064133Y-80158235D01*
X155850130Y-72372239D01*
X155850132Y-72372236D01*
X155907436Y-72314932D01*
X156088761Y-72351000D01*
X156331239Y-72351000D01*
X156690312Y-72279576D01*
X157097501Y-72007501D01*
X157369576Y-71600312D01*
X157465116Y-71120000D01*
X157369576Y-70639688D01*
X157097501Y-70232499D01*
X156690312Y-69960424D01*
X156331239Y-69889000D01*
X156088761Y-69889000D01*
X155729688Y-69960424D01*
X155322499Y-70232499D01*
X155052245Y-70636963D01*
X154865183Y-70238642D01*
X154436924Y-69848355D01*
X154075012Y-69698456D01*
X156102563Y-67671300D01*
X156731150Y-67671300D01*
X156780970Y-67681213D01*
X156830820Y-67671300D01*
X156830835Y-67671300D01*
X156883584Y-67660808D01*
X156978403Y-67641952D01*
X156978415Y-67641944D01*
X156978431Y-67641941D01*
X157076683Y-67576292D01*
X157103534Y-67558353D01*
X157103540Y-67558347D01*
X157145806Y-67530106D01*
X157174030Y-67487866D01*
X157847268Y-66814708D01*
X157898547Y-66891453D01*
X158289197Y-67152478D01*
X158633682Y-67221000D01*
X158866318Y-67221000D01*
X159210803Y-67152478D01*
X159601453Y-66891453D01*
X159862478Y-66500803D01*
X159954137Y-66040000D01*
X159862478Y-65579197D01*
X159601453Y-65188547D01*
X159210803Y-64927522D01*
X158866318Y-64859000D01*
X158633682Y-64859000D01*
X158289197Y-64927522D01*
X157898547Y-65188547D01*
X157668556Y-65532751D01*
X157625000Y-65524087D01*
X157575165Y-65534000D01*
X157427569Y-65563359D01*
X157332026Y-65627198D01*
X157322478Y-65579197D01*
X157061453Y-65188547D01*
X156670803Y-64927522D01*
X156326318Y-64859000D01*
X156093682Y-64859000D01*
X155749197Y-64927522D01*
X155358547Y-65188547D01*
X155128556Y-65532751D01*
X155085000Y-65524087D01*
X155035165Y-65534000D01*
X154887569Y-65563359D01*
X154792026Y-65627198D01*
X154782478Y-65579197D01*
X154521453Y-65188547D01*
X154130803Y-64927522D01*
X153786318Y-64859000D01*
X153553682Y-64859000D01*
X153209197Y-64927522D01*
X152818547Y-65188547D01*
X152557522Y-65579197D01*
X152465863Y-66040000D01*
X152557522Y-66500803D01*
X152818547Y-66891453D01*
X152874107Y-66928577D01*
X149751566Y-70050510D01*
X149714686Y-69995314D01*
X149588659Y-69911106D01*
X149440000Y-69881536D01*
X147740000Y-69881536D01*
X147591341Y-69911106D01*
X147465314Y-69995314D01*
X147381106Y-70121341D01*
X147351536Y-70270000D01*
X147351536Y-71970000D01*
X147381106Y-72118659D01*
X147465314Y-72244686D01*
X147591341Y-72328894D01*
X147740000Y-72358464D01*
X149440000Y-72358464D01*
X149588659Y-72328894D01*
X149714686Y-72244686D01*
X149798894Y-72118659D01*
X149828464Y-71970000D01*
X149828464Y-71623289D01*
X149962431Y-71596641D01*
X149968842Y-71592358D01*
X149970424Y-71600312D01*
X150242499Y-72007501D01*
X150649688Y-72279576D01*
X151008761Y-72351000D01*
X151251239Y-72351000D01*
X151610312Y-72279576D01*
X152017501Y-72007501D01*
X152270388Y-71629028D01*
X152303008Y-71635517D01*
X152474817Y-72001358D01*
X152903076Y-72391645D01*
X153313110Y-72561476D01*
X153543000Y-72440155D01*
X153543000Y-71247000D01*
X153523000Y-71247000D01*
X153523000Y-70993000D01*
X153543000Y-70993000D01*
X153543000Y-70973000D01*
X153797000Y-70973000D01*
X153797000Y-70993000D01*
X153817000Y-70993000D01*
X153817000Y-71247000D01*
X153797000Y-71247000D01*
X153797000Y-72440155D01*
X153928224Y-72509407D01*
X147312632Y-79125000D01*
X129547369Y-79125000D01*
X129036352Y-78613984D01*
X129059688Y-78629576D01*
X129418761Y-78701000D01*
X129661239Y-78701000D01*
X130020312Y-78629576D01*
X130427501Y-78357501D01*
X130699576Y-77950312D01*
X130795116Y-77470000D01*
X130824884Y-77470000D01*
X130920424Y-77950312D01*
X131192499Y-78357501D01*
X131599688Y-78629576D01*
X131958761Y-78701000D01*
X132201239Y-78701000D01*
X132560312Y-78629576D01*
X132967501Y-78357501D01*
X133239576Y-77950312D01*
X133335116Y-77470000D01*
X133364884Y-77470000D01*
X133460424Y-77950312D01*
X133732499Y-78357501D01*
X134139688Y-78629576D01*
X134498761Y-78701000D01*
X134741239Y-78701000D01*
X135100312Y-78629576D01*
X135507501Y-78357501D01*
X135779576Y-77950312D01*
X135875116Y-77470000D01*
X135904884Y-77470000D01*
X136000424Y-77950312D01*
X136272499Y-78357501D01*
X136679688Y-78629576D01*
X137038761Y-78701000D01*
X137281239Y-78701000D01*
X137640312Y-78629576D01*
X138047501Y-78357501D01*
X138319576Y-77950312D01*
X138415116Y-77470000D01*
X138444884Y-77470000D01*
X138540424Y-77950312D01*
X138812499Y-78357501D01*
X139219688Y-78629576D01*
X139578761Y-78701000D01*
X139821239Y-78701000D01*
X140180312Y-78629576D01*
X140587501Y-78357501D01*
X140859576Y-77950312D01*
X140955116Y-77470000D01*
X140859576Y-76989688D01*
X140587501Y-76582499D01*
X140180312Y-76310424D01*
X139821239Y-76239000D01*
X139578761Y-76239000D01*
X139219688Y-76310424D01*
X138812499Y-76582499D01*
X138540424Y-76989688D01*
X138444884Y-77470000D01*
X138415116Y-77470000D01*
X138319576Y-76989688D01*
X138047501Y-76582499D01*
X137640312Y-76310424D01*
X137281239Y-76239000D01*
X137038761Y-76239000D01*
X136679688Y-76310424D01*
X136272499Y-76582499D01*
X136000424Y-76989688D01*
X135904884Y-77470000D01*
X135875116Y-77470000D01*
X135779576Y-76989688D01*
X135507501Y-76582499D01*
X135100312Y-76310424D01*
X134741239Y-76239000D01*
X134498761Y-76239000D01*
X134139688Y-76310424D01*
X133732499Y-76582499D01*
X133460424Y-76989688D01*
X133364884Y-77470000D01*
X133335116Y-77470000D01*
X133239576Y-76989688D01*
X132967501Y-76582499D01*
X132560312Y-76310424D01*
X132201239Y-76239000D01*
X131958761Y-76239000D01*
X131599688Y-76310424D01*
X131192499Y-76582499D01*
X130920424Y-76989688D01*
X130824884Y-77470000D01*
X130795116Y-77470000D01*
X130699576Y-76989688D01*
X130427501Y-76582499D01*
X130020312Y-76310424D01*
X129661239Y-76239000D01*
X129418761Y-76239000D01*
X129059688Y-76310424D01*
X128652499Y-76582499D01*
X128380424Y-76989688D01*
X128284884Y-77470000D01*
X128380424Y-77950312D01*
X128396017Y-77973649D01*
X128194932Y-77772564D01*
X128255116Y-77470000D01*
X128159576Y-76989688D01*
X127887501Y-76582499D01*
X127480312Y-76310424D01*
X127121239Y-76239000D01*
X126878761Y-76239000D01*
X126519688Y-76310424D01*
X126312000Y-76449197D01*
X126312000Y-73398891D01*
X132152556Y-67558336D01*
X132194806Y-67530106D01*
X132306641Y-67362731D01*
X132336000Y-67215135D01*
X132336000Y-67215134D01*
X132345913Y-67165301D01*
X132337196Y-67121479D01*
X132681453Y-66891453D01*
X132942478Y-66500803D01*
X133034137Y-66040000D01*
X133165863Y-66040000D01*
X133257522Y-66500803D01*
X133518547Y-66891453D01*
X133909197Y-67152478D01*
X134253682Y-67221000D01*
X134486318Y-67221000D01*
X134830803Y-67152478D01*
X135221453Y-66891453D01*
X135482478Y-66500803D01*
X135574137Y-66040000D01*
X135705863Y-66040000D01*
X135797522Y-66500803D01*
X136058547Y-66891453D01*
X136449197Y-67152478D01*
X136793682Y-67221000D01*
X137026318Y-67221000D01*
X137370803Y-67152478D01*
X137761453Y-66891453D01*
X138022478Y-66500803D01*
X138114137Y-66040000D01*
X139765863Y-66040000D01*
X139857522Y-66500803D01*
X140118547Y-66891453D01*
X140509197Y-67152478D01*
X140853682Y-67221000D01*
X141086318Y-67221000D01*
X141430803Y-67152478D01*
X141821453Y-66891453D01*
X142082478Y-66500803D01*
X142174137Y-66040000D01*
X142305863Y-66040000D01*
X142397522Y-66500803D01*
X142658547Y-66891453D01*
X143049197Y-67152478D01*
X143393682Y-67221000D01*
X143626318Y-67221000D01*
X143970803Y-67152478D01*
X144361453Y-66891453D01*
X144622478Y-66500803D01*
X144714137Y-66040000D01*
X144845863Y-66040000D01*
X144937522Y-66500803D01*
X145198547Y-66891453D01*
X145589197Y-67152478D01*
X145933682Y-67221000D01*
X146166318Y-67221000D01*
X146510803Y-67152478D01*
X146901453Y-66891453D01*
X147162478Y-66500803D01*
X147254137Y-66040000D01*
X147385863Y-66040000D01*
X147477522Y-66500803D01*
X147738547Y-66891453D01*
X148129197Y-67152478D01*
X148473682Y-67221000D01*
X148706318Y-67221000D01*
X149050803Y-67152478D01*
X149441453Y-66891453D01*
X149702478Y-66500803D01*
X149794137Y-66040000D01*
X149925863Y-66040000D01*
X150017522Y-66500803D01*
X150278547Y-66891453D01*
X150669197Y-67152478D01*
X151013682Y-67221000D01*
X151246318Y-67221000D01*
X151590803Y-67152478D01*
X151981453Y-66891453D01*
X152242478Y-66500803D01*
X152334137Y-66040000D01*
X152242478Y-65579197D01*
X151981453Y-65188547D01*
X151590803Y-64927522D01*
X151246318Y-64859000D01*
X151013682Y-64859000D01*
X150669197Y-64927522D01*
X150278547Y-65188547D01*
X150017522Y-65579197D01*
X149925863Y-66040000D01*
X149794137Y-66040000D01*
X149702478Y-65579197D01*
X149441453Y-65188547D01*
X149050803Y-64927522D01*
X148706318Y-64859000D01*
X148473682Y-64859000D01*
X148129197Y-64927522D01*
X147738547Y-65188547D01*
X147477522Y-65579197D01*
X147385863Y-66040000D01*
X147254137Y-66040000D01*
X147162478Y-65579197D01*
X146901453Y-65188547D01*
X146510803Y-64927522D01*
X146166318Y-64859000D01*
X145933682Y-64859000D01*
X145589197Y-64927522D01*
X145198547Y-65188547D01*
X144937522Y-65579197D01*
X144845863Y-66040000D01*
X144714137Y-66040000D01*
X144622478Y-65579197D01*
X144361453Y-65188547D01*
X143970803Y-64927522D01*
X143626318Y-64859000D01*
X143393682Y-64859000D01*
X143049197Y-64927522D01*
X142658547Y-65188547D01*
X142397522Y-65579197D01*
X142305863Y-66040000D01*
X142174137Y-66040000D01*
X142082478Y-65579197D01*
X141821453Y-65188547D01*
X141430803Y-64927522D01*
X141086318Y-64859000D01*
X140853682Y-64859000D01*
X140509197Y-64927522D01*
X140118547Y-65188547D01*
X139857522Y-65579197D01*
X139765863Y-66040000D01*
X138114137Y-66040000D01*
X138022478Y-65579197D01*
X137761453Y-65188547D01*
X137370803Y-64927522D01*
X137026318Y-64859000D01*
X136793682Y-64859000D01*
X136449197Y-64927522D01*
X136058547Y-65188547D01*
X135797522Y-65579197D01*
X135705863Y-66040000D01*
X135574137Y-66040000D01*
X135482478Y-65579197D01*
X135221453Y-65188547D01*
X134830803Y-64927522D01*
X134486318Y-64859000D01*
X134253682Y-64859000D01*
X133909197Y-64927522D01*
X133518547Y-65188547D01*
X133257522Y-65579197D01*
X133165863Y-66040000D01*
X133034137Y-66040000D01*
X132942478Y-65579197D01*
X132681453Y-65188547D01*
X132290803Y-64927522D01*
X131946318Y-64859000D01*
X131713682Y-64859000D01*
X131369197Y-64927522D01*
X130978547Y-65188547D01*
X130717522Y-65579197D01*
X130625863Y-66040000D01*
X130717522Y-66500803D01*
X130978547Y-66891453D01*
X131224149Y-67055559D01*
X125483446Y-72796263D01*
X125441195Y-72824494D01*
X125329360Y-72991869D01*
X125290087Y-73189300D01*
X125300001Y-73239139D01*
X125300001Y-76231536D01*
X123610000Y-76231536D01*
X123461341Y-76261106D01*
X123335314Y-76345314D01*
X123251106Y-76471341D01*
X123221536Y-76620000D01*
X119861000Y-76620000D01*
X119861000Y-68627373D01*
X119870423Y-68580000D01*
X119833092Y-68392323D01*
X119726781Y-68233219D01*
X119567677Y-68126908D01*
X119427373Y-68099000D01*
X119380000Y-68089577D01*
X119332627Y-68099000D01*
X113229236Y-68099000D01*
X112241000Y-67110764D01*
X112241000Y-66040000D01*
X112845863Y-66040000D01*
X112937522Y-66500803D01*
X113198547Y-66891453D01*
X113589197Y-67152478D01*
X113933682Y-67221000D01*
X114166318Y-67221000D01*
X114510803Y-67152478D01*
X114901453Y-66891453D01*
X115162478Y-66500803D01*
X115254137Y-66040000D01*
X115385863Y-66040000D01*
X115477522Y-66500803D01*
X115738547Y-66891453D01*
X116129197Y-67152478D01*
X116473682Y-67221000D01*
X116706318Y-67221000D01*
X117050803Y-67152478D01*
X117441453Y-66891453D01*
X117702478Y-66500803D01*
X117794137Y-66040000D01*
X117925863Y-66040000D01*
X118017522Y-66500803D01*
X118278547Y-66891453D01*
X118669197Y-67152478D01*
X119013682Y-67221000D01*
X119246318Y-67221000D01*
X119590803Y-67152478D01*
X119981453Y-66891453D01*
X120242478Y-66500803D01*
X120308875Y-66167002D01*
X120399370Y-66167002D01*
X120278086Y-66389041D01*
X120517611Y-66895134D01*
X120932577Y-67271041D01*
X121320961Y-67431904D01*
X121543000Y-67309915D01*
X121543000Y-66167000D01*
X121523000Y-66167000D01*
X121523000Y-65913000D01*
X121543000Y-65913000D01*
X121543000Y-64770085D01*
X121797000Y-64770085D01*
X121797000Y-65913000D01*
X121817000Y-65913000D01*
X121817000Y-66167000D01*
X121797000Y-66167000D01*
X121797000Y-67309915D01*
X122019039Y-67431904D01*
X122407423Y-67271041D01*
X122822389Y-66895134D01*
X123061914Y-66389041D01*
X122940630Y-66167002D01*
X123031125Y-66167002D01*
X123097522Y-66500803D01*
X123358547Y-66891453D01*
X123749197Y-67152478D01*
X124093682Y-67221000D01*
X124326318Y-67221000D01*
X124670803Y-67152478D01*
X125061453Y-66891453D01*
X125322478Y-66500803D01*
X125414137Y-66040000D01*
X125545863Y-66040000D01*
X125637522Y-66500803D01*
X125898547Y-66891453D01*
X126289197Y-67152478D01*
X126633682Y-67221000D01*
X126866318Y-67221000D01*
X127210803Y-67152478D01*
X127601453Y-66891453D01*
X127862478Y-66500803D01*
X127954137Y-66040000D01*
X128085863Y-66040000D01*
X128177522Y-66500803D01*
X128438547Y-66891453D01*
X128829197Y-67152478D01*
X129173682Y-67221000D01*
X129406318Y-67221000D01*
X129750803Y-67152478D01*
X130141453Y-66891453D01*
X130402478Y-66500803D01*
X130494137Y-66040000D01*
X130402478Y-65579197D01*
X130141453Y-65188547D01*
X129750803Y-64927522D01*
X129406318Y-64859000D01*
X129173682Y-64859000D01*
X128829197Y-64927522D01*
X128438547Y-65188547D01*
X128177522Y-65579197D01*
X128085863Y-66040000D01*
X127954137Y-66040000D01*
X127862478Y-65579197D01*
X127601453Y-65188547D01*
X127210803Y-64927522D01*
X126866318Y-64859000D01*
X126633682Y-64859000D01*
X126289197Y-64927522D01*
X125898547Y-65188547D01*
X125637522Y-65579197D01*
X125545863Y-66040000D01*
X125414137Y-66040000D01*
X125322478Y-65579197D01*
X125061453Y-65188547D01*
X124670803Y-64927522D01*
X124326318Y-64859000D01*
X124093682Y-64859000D01*
X123749197Y-64927522D01*
X123358547Y-65188547D01*
X123097522Y-65579197D01*
X123031125Y-65912998D01*
X122940630Y-65912998D01*
X123061914Y-65690959D01*
X122822389Y-65184866D01*
X122407423Y-64808959D01*
X122019039Y-64648096D01*
X121797000Y-64770085D01*
X121543000Y-64770085D01*
X121320961Y-64648096D01*
X120932577Y-64808959D01*
X120517611Y-65184866D01*
X120278086Y-65690959D01*
X120399370Y-65912998D01*
X120308875Y-65912998D01*
X120242478Y-65579197D01*
X119981453Y-65188547D01*
X119590803Y-64927522D01*
X119246318Y-64859000D01*
X119013682Y-64859000D01*
X118669197Y-64927522D01*
X118278547Y-65188547D01*
X118017522Y-65579197D01*
X117925863Y-66040000D01*
X117794137Y-66040000D01*
X117702478Y-65579197D01*
X117441453Y-65188547D01*
X117050803Y-64927522D01*
X116706318Y-64859000D01*
X116473682Y-64859000D01*
X116129197Y-64927522D01*
X115738547Y-65188547D01*
X115477522Y-65579197D01*
X115385863Y-66040000D01*
X115254137Y-66040000D01*
X115162478Y-65579197D01*
X114901453Y-65188547D01*
X114510803Y-64927522D01*
X114166318Y-64859000D01*
X113933682Y-64859000D01*
X113589197Y-64927522D01*
X113198547Y-65188547D01*
X112937522Y-65579197D01*
X112845863Y-66040000D01*
X112241000Y-66040000D01*
X112241000Y-64969236D01*
X113229236Y-63981000D01*
X159820764Y-63981000D01*
X160809001Y-64969237D01*
G04 #@! TD*
M02*
