G04 #@! TF.GenerationSoftware,KiCad,Pcbnew,5.0.2-bee76a0~70~ubuntu18.04.1*
G04 #@! TF.CreationDate,2019-01-17T16:48:38+08:00*
G04 #@! TF.ProjectId,inAir9B Shield,696e4169-7239-4422-9053-6869656c642e,rev?*
G04 #@! TF.SameCoordinates,Original*
G04 #@! TF.FileFunction,Copper,L1,Top*
G04 #@! TF.FilePolarity,Positive*
%FSLAX46Y46*%
G04 Gerber Fmt 4.6, Leading zero omitted, Abs format (unit mm)*
G04 Created by KiCad (PCBNEW 5.0.2-bee76a0~70~ubuntu18.04.1) date Thu Jan 17 16:48:38 2019*
%MOMM*%
%LPD*%
G01*
G04 APERTURE LIST*
G04 #@! TA.AperFunction,Conductor*
%ADD10C,0.100000*%
G04 #@! TD*
G04 #@! TA.AperFunction,SMDPad,CuDef*
%ADD11C,0.975000*%
G04 #@! TD*
G04 #@! TA.AperFunction,SMDPad,CuDef*
%ADD12C,0.590000*%
G04 #@! TD*
G04 #@! TA.AperFunction,ComponentPad*
%ADD13O,1.600000X1.600000*%
G04 #@! TD*
G04 #@! TA.AperFunction,ComponentPad*
%ADD14R,1.600000X1.600000*%
G04 #@! TD*
G04 #@! TA.AperFunction,ComponentPad*
%ADD15R,1.700000X1.700000*%
G04 #@! TD*
G04 #@! TA.AperFunction,ComponentPad*
%ADD16O,1.700000X1.700000*%
G04 #@! TD*
G04 #@! TA.AperFunction,ViaPad*
%ADD17C,0.800000*%
G04 #@! TD*
G04 #@! TA.AperFunction,Conductor*
%ADD18C,0.250000*%
G04 #@! TD*
G04 #@! TA.AperFunction,Conductor*
%ADD19C,0.500000*%
G04 #@! TD*
G04 #@! TA.AperFunction,Conductor*
%ADD20C,0.254000*%
G04 #@! TD*
G04 APERTURE END LIST*
D10*
G04 #@! TO.N,GND*
G04 #@! TO.C,D3*
G36*
X156182142Y-104240174D02*
X156205803Y-104243684D01*
X156229007Y-104249496D01*
X156251529Y-104257554D01*
X156273153Y-104267782D01*
X156293670Y-104280079D01*
X156312883Y-104294329D01*
X156330607Y-104310393D01*
X156346671Y-104328117D01*
X156360921Y-104347330D01*
X156373218Y-104367847D01*
X156383446Y-104389471D01*
X156391504Y-104411993D01*
X156397316Y-104435197D01*
X156400826Y-104458858D01*
X156402000Y-104482750D01*
X156402000Y-104970250D01*
X156400826Y-104994142D01*
X156397316Y-105017803D01*
X156391504Y-105041007D01*
X156383446Y-105063529D01*
X156373218Y-105085153D01*
X156360921Y-105105670D01*
X156346671Y-105124883D01*
X156330607Y-105142607D01*
X156312883Y-105158671D01*
X156293670Y-105172921D01*
X156273153Y-105185218D01*
X156251529Y-105195446D01*
X156229007Y-105203504D01*
X156205803Y-105209316D01*
X156182142Y-105212826D01*
X156158250Y-105214000D01*
X155245750Y-105214000D01*
X155221858Y-105212826D01*
X155198197Y-105209316D01*
X155174993Y-105203504D01*
X155152471Y-105195446D01*
X155130847Y-105185218D01*
X155110330Y-105172921D01*
X155091117Y-105158671D01*
X155073393Y-105142607D01*
X155057329Y-105124883D01*
X155043079Y-105105670D01*
X155030782Y-105085153D01*
X155020554Y-105063529D01*
X155012496Y-105041007D01*
X155006684Y-105017803D01*
X155003174Y-104994142D01*
X155002000Y-104970250D01*
X155002000Y-104482750D01*
X155003174Y-104458858D01*
X155006684Y-104435197D01*
X155012496Y-104411993D01*
X155020554Y-104389471D01*
X155030782Y-104367847D01*
X155043079Y-104347330D01*
X155057329Y-104328117D01*
X155073393Y-104310393D01*
X155091117Y-104294329D01*
X155110330Y-104280079D01*
X155130847Y-104267782D01*
X155152471Y-104257554D01*
X155174993Y-104249496D01*
X155198197Y-104243684D01*
X155221858Y-104240174D01*
X155245750Y-104239000D01*
X156158250Y-104239000D01*
X156182142Y-104240174D01*
X156182142Y-104240174D01*
G37*
D11*
G04 #@! TD*
G04 #@! TO.P,D3,1*
G04 #@! TO.N,GND*
X155702000Y-104726500D03*
D10*
G04 #@! TO.N,Net-(D3-Pad2)*
G04 #@! TO.C,D3*
G36*
X156182142Y-106115174D02*
X156205803Y-106118684D01*
X156229007Y-106124496D01*
X156251529Y-106132554D01*
X156273153Y-106142782D01*
X156293670Y-106155079D01*
X156312883Y-106169329D01*
X156330607Y-106185393D01*
X156346671Y-106203117D01*
X156360921Y-106222330D01*
X156373218Y-106242847D01*
X156383446Y-106264471D01*
X156391504Y-106286993D01*
X156397316Y-106310197D01*
X156400826Y-106333858D01*
X156402000Y-106357750D01*
X156402000Y-106845250D01*
X156400826Y-106869142D01*
X156397316Y-106892803D01*
X156391504Y-106916007D01*
X156383446Y-106938529D01*
X156373218Y-106960153D01*
X156360921Y-106980670D01*
X156346671Y-106999883D01*
X156330607Y-107017607D01*
X156312883Y-107033671D01*
X156293670Y-107047921D01*
X156273153Y-107060218D01*
X156251529Y-107070446D01*
X156229007Y-107078504D01*
X156205803Y-107084316D01*
X156182142Y-107087826D01*
X156158250Y-107089000D01*
X155245750Y-107089000D01*
X155221858Y-107087826D01*
X155198197Y-107084316D01*
X155174993Y-107078504D01*
X155152471Y-107070446D01*
X155130847Y-107060218D01*
X155110330Y-107047921D01*
X155091117Y-107033671D01*
X155073393Y-107017607D01*
X155057329Y-106999883D01*
X155043079Y-106980670D01*
X155030782Y-106960153D01*
X155020554Y-106938529D01*
X155012496Y-106916007D01*
X155006684Y-106892803D01*
X155003174Y-106869142D01*
X155002000Y-106845250D01*
X155002000Y-106357750D01*
X155003174Y-106333858D01*
X155006684Y-106310197D01*
X155012496Y-106286993D01*
X155020554Y-106264471D01*
X155030782Y-106242847D01*
X155043079Y-106222330D01*
X155057329Y-106203117D01*
X155073393Y-106185393D01*
X155091117Y-106169329D01*
X155110330Y-106155079D01*
X155130847Y-106142782D01*
X155152471Y-106132554D01*
X155174993Y-106124496D01*
X155198197Y-106118684D01*
X155221858Y-106115174D01*
X155245750Y-106114000D01*
X156158250Y-106114000D01*
X156182142Y-106115174D01*
X156182142Y-106115174D01*
G37*
D11*
G04 #@! TD*
G04 #@! TO.P,D3,2*
G04 #@! TO.N,Net-(D3-Pad2)*
X155702000Y-106601500D03*
D10*
G04 #@! TO.N,Net-(D3-Pad2)*
G04 #@! TO.C,R3*
G36*
X156348958Y-109154710D02*
X156363276Y-109156834D01*
X156377317Y-109160351D01*
X156390946Y-109165228D01*
X156404031Y-109171417D01*
X156416447Y-109178858D01*
X156428073Y-109187481D01*
X156438798Y-109197202D01*
X156448519Y-109207927D01*
X156457142Y-109219553D01*
X156464583Y-109231969D01*
X156470772Y-109245054D01*
X156475649Y-109258683D01*
X156479166Y-109272724D01*
X156481290Y-109287042D01*
X156482000Y-109301500D01*
X156482000Y-109646500D01*
X156481290Y-109660958D01*
X156479166Y-109675276D01*
X156475649Y-109689317D01*
X156470772Y-109702946D01*
X156464583Y-109716031D01*
X156457142Y-109728447D01*
X156448519Y-109740073D01*
X156438798Y-109750798D01*
X156428073Y-109760519D01*
X156416447Y-109769142D01*
X156404031Y-109776583D01*
X156390946Y-109782772D01*
X156377317Y-109787649D01*
X156363276Y-109791166D01*
X156348958Y-109793290D01*
X156334500Y-109794000D01*
X156039500Y-109794000D01*
X156025042Y-109793290D01*
X156010724Y-109791166D01*
X155996683Y-109787649D01*
X155983054Y-109782772D01*
X155969969Y-109776583D01*
X155957553Y-109769142D01*
X155945927Y-109760519D01*
X155935202Y-109750798D01*
X155925481Y-109740073D01*
X155916858Y-109728447D01*
X155909417Y-109716031D01*
X155903228Y-109702946D01*
X155898351Y-109689317D01*
X155894834Y-109675276D01*
X155892710Y-109660958D01*
X155892000Y-109646500D01*
X155892000Y-109301500D01*
X155892710Y-109287042D01*
X155894834Y-109272724D01*
X155898351Y-109258683D01*
X155903228Y-109245054D01*
X155909417Y-109231969D01*
X155916858Y-109219553D01*
X155925481Y-109207927D01*
X155935202Y-109197202D01*
X155945927Y-109187481D01*
X155957553Y-109178858D01*
X155969969Y-109171417D01*
X155983054Y-109165228D01*
X155996683Y-109160351D01*
X156010724Y-109156834D01*
X156025042Y-109154710D01*
X156039500Y-109154000D01*
X156334500Y-109154000D01*
X156348958Y-109154710D01*
X156348958Y-109154710D01*
G37*
D12*
G04 #@! TD*
G04 #@! TO.P,R3,1*
G04 #@! TO.N,Net-(D3-Pad2)*
X156187000Y-109474000D03*
D10*
G04 #@! TO.N,Net-(A1-Pad11)*
G04 #@! TO.C,R3*
G36*
X155378958Y-109154710D02*
X155393276Y-109156834D01*
X155407317Y-109160351D01*
X155420946Y-109165228D01*
X155434031Y-109171417D01*
X155446447Y-109178858D01*
X155458073Y-109187481D01*
X155468798Y-109197202D01*
X155478519Y-109207927D01*
X155487142Y-109219553D01*
X155494583Y-109231969D01*
X155500772Y-109245054D01*
X155505649Y-109258683D01*
X155509166Y-109272724D01*
X155511290Y-109287042D01*
X155512000Y-109301500D01*
X155512000Y-109646500D01*
X155511290Y-109660958D01*
X155509166Y-109675276D01*
X155505649Y-109689317D01*
X155500772Y-109702946D01*
X155494583Y-109716031D01*
X155487142Y-109728447D01*
X155478519Y-109740073D01*
X155468798Y-109750798D01*
X155458073Y-109760519D01*
X155446447Y-109769142D01*
X155434031Y-109776583D01*
X155420946Y-109782772D01*
X155407317Y-109787649D01*
X155393276Y-109791166D01*
X155378958Y-109793290D01*
X155364500Y-109794000D01*
X155069500Y-109794000D01*
X155055042Y-109793290D01*
X155040724Y-109791166D01*
X155026683Y-109787649D01*
X155013054Y-109782772D01*
X154999969Y-109776583D01*
X154987553Y-109769142D01*
X154975927Y-109760519D01*
X154965202Y-109750798D01*
X154955481Y-109740073D01*
X154946858Y-109728447D01*
X154939417Y-109716031D01*
X154933228Y-109702946D01*
X154928351Y-109689317D01*
X154924834Y-109675276D01*
X154922710Y-109660958D01*
X154922000Y-109646500D01*
X154922000Y-109301500D01*
X154922710Y-109287042D01*
X154924834Y-109272724D01*
X154928351Y-109258683D01*
X154933228Y-109245054D01*
X154939417Y-109231969D01*
X154946858Y-109219553D01*
X154955481Y-109207927D01*
X154965202Y-109197202D01*
X154975927Y-109187481D01*
X154987553Y-109178858D01*
X154999969Y-109171417D01*
X155013054Y-109165228D01*
X155026683Y-109160351D01*
X155040724Y-109156834D01*
X155055042Y-109154710D01*
X155069500Y-109154000D01*
X155364500Y-109154000D01*
X155378958Y-109154710D01*
X155378958Y-109154710D01*
G37*
D12*
G04 #@! TD*
G04 #@! TO.P,R3,2*
G04 #@! TO.N,Net-(A1-Pad11)*
X155217000Y-109474000D03*
D13*
G04 #@! TO.P,A1,32*
G04 #@! TO.N,Net-(A1-Pad32)*
X114050000Y-66040000D03*
G04 #@! TO.P,A1,31*
G04 #@! TO.N,Net-(A1-Pad31)*
X116590000Y-66040000D03*
D14*
G04 #@! TO.P,A1,1*
G04 #@! TO.N,Net-(A1-Pad1)*
X123190000Y-114300000D03*
D13*
G04 #@! TO.P,A1,17*
G04 #@! TO.N,/D0*
X153670000Y-66040000D03*
G04 #@! TO.P,A1,2*
G04 #@! TO.N,Net-(A1-Pad2)*
X125730000Y-114300000D03*
G04 #@! TO.P,A1,18*
G04 #@! TO.N,Net-(A1-Pad18)*
X151130000Y-66040000D03*
G04 #@! TO.P,A1,3*
G04 #@! TO.N,Net-(A1-Pad3)*
X128270000Y-114300000D03*
G04 #@! TO.P,A1,19*
G04 #@! TO.N,Net-(A1-Pad19)*
X148590000Y-66040000D03*
G04 #@! TO.P,A1,4*
G04 #@! TO.N,+3V3*
X130810000Y-114300000D03*
G04 #@! TO.P,A1,20*
G04 #@! TO.N,Net-(A1-Pad20)*
X146050000Y-66040000D03*
G04 #@! TO.P,A1,5*
G04 #@! TO.N,Net-(A1-Pad5)*
X133350000Y-114300000D03*
G04 #@! TO.P,A1,21*
G04 #@! TO.N,/D1*
X143510000Y-66040000D03*
G04 #@! TO.P,A1,6*
G04 #@! TO.N,GND*
X135890000Y-114300000D03*
G04 #@! TO.P,A1,22*
G04 #@! TO.N,/D2*
X140970000Y-66040000D03*
G04 #@! TO.P,A1,7*
G04 #@! TO.N,GND*
X138430000Y-114300000D03*
G04 #@! TO.P,A1,23*
G04 #@! TO.N,Net-(A1-Pad23)*
X136910000Y-66040000D03*
G04 #@! TO.P,A1,8*
G04 #@! TO.N,Net-(A1-Pad8)*
X140970000Y-114300000D03*
G04 #@! TO.P,A1,24*
G04 #@! TO.N,/RST*
X134370000Y-66040000D03*
G04 #@! TO.P,A1,9*
G04 #@! TO.N,Net-(A1-Pad9)*
X146050000Y-114300000D03*
G04 #@! TO.P,A1,25*
G04 #@! TO.N,/CS*
X131830000Y-66040000D03*
G04 #@! TO.P,A1,10*
G04 #@! TO.N,Net-(A1-Pad10)*
X148590000Y-114300000D03*
G04 #@! TO.P,A1,26*
G04 #@! TO.N,/MOSI*
X129290000Y-66040000D03*
G04 #@! TO.P,A1,11*
G04 #@! TO.N,Net-(A1-Pad11)*
X151130000Y-114300000D03*
G04 #@! TO.P,A1,27*
G04 #@! TO.N,/MISO*
X126750000Y-66040000D03*
G04 #@! TO.P,A1,12*
G04 #@! TO.N,Net-(A1-Pad12)*
X153670000Y-114300000D03*
G04 #@! TO.P,A1,28*
G04 #@! TO.N,/SCK*
X124210000Y-66040000D03*
G04 #@! TO.P,A1,13*
G04 #@! TO.N,Net-(A1-Pad13)*
X156210000Y-114300000D03*
G04 #@! TO.P,A1,29*
G04 #@! TO.N,GND*
X121670000Y-66040000D03*
G04 #@! TO.P,A1,14*
G04 #@! TO.N,Net-(A1-Pad14)*
X158750000Y-114300000D03*
G04 #@! TO.P,A1,30*
G04 #@! TO.N,Net-(A1-Pad30)*
X119130000Y-66040000D03*
G04 #@! TO.P,A1,15*
G04 #@! TO.N,Net-(A1-Pad15)*
X158750000Y-66040000D03*
G04 #@! TO.P,A1,16*
G04 #@! TO.N,Net-(A1-Pad16)*
X156210000Y-66040000D03*
G04 #@! TD*
D10*
G04 #@! TO.N,GND*
G04 #@! TO.C,D1*
G36*
X146216030Y-104090005D02*
X146239691Y-104093515D01*
X146262895Y-104099327D01*
X146285417Y-104107385D01*
X146307041Y-104117613D01*
X146327558Y-104129910D01*
X146346771Y-104144160D01*
X146364495Y-104160224D01*
X146380559Y-104177948D01*
X146394809Y-104197161D01*
X146407106Y-104217678D01*
X146417334Y-104239302D01*
X146425392Y-104261824D01*
X146431204Y-104285028D01*
X146434714Y-104308689D01*
X146435888Y-104332581D01*
X146435888Y-104820081D01*
X146434714Y-104843973D01*
X146431204Y-104867634D01*
X146425392Y-104890838D01*
X146417334Y-104913360D01*
X146407106Y-104934984D01*
X146394809Y-104955501D01*
X146380559Y-104974714D01*
X146364495Y-104992438D01*
X146346771Y-105008502D01*
X146327558Y-105022752D01*
X146307041Y-105035049D01*
X146285417Y-105045277D01*
X146262895Y-105053335D01*
X146239691Y-105059147D01*
X146216030Y-105062657D01*
X146192138Y-105063831D01*
X145279638Y-105063831D01*
X145255746Y-105062657D01*
X145232085Y-105059147D01*
X145208881Y-105053335D01*
X145186359Y-105045277D01*
X145164735Y-105035049D01*
X145144218Y-105022752D01*
X145125005Y-105008502D01*
X145107281Y-104992438D01*
X145091217Y-104974714D01*
X145076967Y-104955501D01*
X145064670Y-104934984D01*
X145054442Y-104913360D01*
X145046384Y-104890838D01*
X145040572Y-104867634D01*
X145037062Y-104843973D01*
X145035888Y-104820081D01*
X145035888Y-104332581D01*
X145037062Y-104308689D01*
X145040572Y-104285028D01*
X145046384Y-104261824D01*
X145054442Y-104239302D01*
X145064670Y-104217678D01*
X145076967Y-104197161D01*
X145091217Y-104177948D01*
X145107281Y-104160224D01*
X145125005Y-104144160D01*
X145144218Y-104129910D01*
X145164735Y-104117613D01*
X145186359Y-104107385D01*
X145208881Y-104099327D01*
X145232085Y-104093515D01*
X145255746Y-104090005D01*
X145279638Y-104088831D01*
X146192138Y-104088831D01*
X146216030Y-104090005D01*
X146216030Y-104090005D01*
G37*
D11*
G04 #@! TD*
G04 #@! TO.P,D1,1*
G04 #@! TO.N,GND*
X145735888Y-104576331D03*
D10*
G04 #@! TO.N,Net-(D1-Pad2)*
G04 #@! TO.C,D1*
G36*
X146216030Y-105965005D02*
X146239691Y-105968515D01*
X146262895Y-105974327D01*
X146285417Y-105982385D01*
X146307041Y-105992613D01*
X146327558Y-106004910D01*
X146346771Y-106019160D01*
X146364495Y-106035224D01*
X146380559Y-106052948D01*
X146394809Y-106072161D01*
X146407106Y-106092678D01*
X146417334Y-106114302D01*
X146425392Y-106136824D01*
X146431204Y-106160028D01*
X146434714Y-106183689D01*
X146435888Y-106207581D01*
X146435888Y-106695081D01*
X146434714Y-106718973D01*
X146431204Y-106742634D01*
X146425392Y-106765838D01*
X146417334Y-106788360D01*
X146407106Y-106809984D01*
X146394809Y-106830501D01*
X146380559Y-106849714D01*
X146364495Y-106867438D01*
X146346771Y-106883502D01*
X146327558Y-106897752D01*
X146307041Y-106910049D01*
X146285417Y-106920277D01*
X146262895Y-106928335D01*
X146239691Y-106934147D01*
X146216030Y-106937657D01*
X146192138Y-106938831D01*
X145279638Y-106938831D01*
X145255746Y-106937657D01*
X145232085Y-106934147D01*
X145208881Y-106928335D01*
X145186359Y-106920277D01*
X145164735Y-106910049D01*
X145144218Y-106897752D01*
X145125005Y-106883502D01*
X145107281Y-106867438D01*
X145091217Y-106849714D01*
X145076967Y-106830501D01*
X145064670Y-106809984D01*
X145054442Y-106788360D01*
X145046384Y-106765838D01*
X145040572Y-106742634D01*
X145037062Y-106718973D01*
X145035888Y-106695081D01*
X145035888Y-106207581D01*
X145037062Y-106183689D01*
X145040572Y-106160028D01*
X145046384Y-106136824D01*
X145054442Y-106114302D01*
X145064670Y-106092678D01*
X145076967Y-106072161D01*
X145091217Y-106052948D01*
X145107281Y-106035224D01*
X145125005Y-106019160D01*
X145144218Y-106004910D01*
X145164735Y-105992613D01*
X145186359Y-105982385D01*
X145208881Y-105974327D01*
X145232085Y-105968515D01*
X145255746Y-105965005D01*
X145279638Y-105963831D01*
X146192138Y-105963831D01*
X146216030Y-105965005D01*
X146216030Y-105965005D01*
G37*
D11*
G04 #@! TD*
G04 #@! TO.P,D1,2*
G04 #@! TO.N,Net-(D1-Pad2)*
X145735888Y-106451331D03*
D10*
G04 #@! TO.N,Net-(D2-Pad2)*
G04 #@! TO.C,D2*
G36*
X151177150Y-106031217D02*
X151200811Y-106034727D01*
X151224015Y-106040539D01*
X151246537Y-106048597D01*
X151268161Y-106058825D01*
X151288678Y-106071122D01*
X151307891Y-106085372D01*
X151325615Y-106101436D01*
X151341679Y-106119160D01*
X151355929Y-106138373D01*
X151368226Y-106158890D01*
X151378454Y-106180514D01*
X151386512Y-106203036D01*
X151392324Y-106226240D01*
X151395834Y-106249901D01*
X151397008Y-106273793D01*
X151397008Y-106761293D01*
X151395834Y-106785185D01*
X151392324Y-106808846D01*
X151386512Y-106832050D01*
X151378454Y-106854572D01*
X151368226Y-106876196D01*
X151355929Y-106896713D01*
X151341679Y-106915926D01*
X151325615Y-106933650D01*
X151307891Y-106949714D01*
X151288678Y-106963964D01*
X151268161Y-106976261D01*
X151246537Y-106986489D01*
X151224015Y-106994547D01*
X151200811Y-107000359D01*
X151177150Y-107003869D01*
X151153258Y-107005043D01*
X150240758Y-107005043D01*
X150216866Y-107003869D01*
X150193205Y-107000359D01*
X150170001Y-106994547D01*
X150147479Y-106986489D01*
X150125855Y-106976261D01*
X150105338Y-106963964D01*
X150086125Y-106949714D01*
X150068401Y-106933650D01*
X150052337Y-106915926D01*
X150038087Y-106896713D01*
X150025790Y-106876196D01*
X150015562Y-106854572D01*
X150007504Y-106832050D01*
X150001692Y-106808846D01*
X149998182Y-106785185D01*
X149997008Y-106761293D01*
X149997008Y-106273793D01*
X149998182Y-106249901D01*
X150001692Y-106226240D01*
X150007504Y-106203036D01*
X150015562Y-106180514D01*
X150025790Y-106158890D01*
X150038087Y-106138373D01*
X150052337Y-106119160D01*
X150068401Y-106101436D01*
X150086125Y-106085372D01*
X150105338Y-106071122D01*
X150125855Y-106058825D01*
X150147479Y-106048597D01*
X150170001Y-106040539D01*
X150193205Y-106034727D01*
X150216866Y-106031217D01*
X150240758Y-106030043D01*
X151153258Y-106030043D01*
X151177150Y-106031217D01*
X151177150Y-106031217D01*
G37*
D11*
G04 #@! TD*
G04 #@! TO.P,D2,2*
G04 #@! TO.N,Net-(D2-Pad2)*
X150697008Y-106517543D03*
D10*
G04 #@! TO.N,GND*
G04 #@! TO.C,D2*
G36*
X151177150Y-104156217D02*
X151200811Y-104159727D01*
X151224015Y-104165539D01*
X151246537Y-104173597D01*
X151268161Y-104183825D01*
X151288678Y-104196122D01*
X151307891Y-104210372D01*
X151325615Y-104226436D01*
X151341679Y-104244160D01*
X151355929Y-104263373D01*
X151368226Y-104283890D01*
X151378454Y-104305514D01*
X151386512Y-104328036D01*
X151392324Y-104351240D01*
X151395834Y-104374901D01*
X151397008Y-104398793D01*
X151397008Y-104886293D01*
X151395834Y-104910185D01*
X151392324Y-104933846D01*
X151386512Y-104957050D01*
X151378454Y-104979572D01*
X151368226Y-105001196D01*
X151355929Y-105021713D01*
X151341679Y-105040926D01*
X151325615Y-105058650D01*
X151307891Y-105074714D01*
X151288678Y-105088964D01*
X151268161Y-105101261D01*
X151246537Y-105111489D01*
X151224015Y-105119547D01*
X151200811Y-105125359D01*
X151177150Y-105128869D01*
X151153258Y-105130043D01*
X150240758Y-105130043D01*
X150216866Y-105128869D01*
X150193205Y-105125359D01*
X150170001Y-105119547D01*
X150147479Y-105111489D01*
X150125855Y-105101261D01*
X150105338Y-105088964D01*
X150086125Y-105074714D01*
X150068401Y-105058650D01*
X150052337Y-105040926D01*
X150038087Y-105021713D01*
X150025790Y-105001196D01*
X150015562Y-104979572D01*
X150007504Y-104957050D01*
X150001692Y-104933846D01*
X149998182Y-104910185D01*
X149997008Y-104886293D01*
X149997008Y-104398793D01*
X149998182Y-104374901D01*
X150001692Y-104351240D01*
X150007504Y-104328036D01*
X150015562Y-104305514D01*
X150025790Y-104283890D01*
X150038087Y-104263373D01*
X150052337Y-104244160D01*
X150068401Y-104226436D01*
X150086125Y-104210372D01*
X150105338Y-104196122D01*
X150125855Y-104183825D01*
X150147479Y-104173597D01*
X150170001Y-104165539D01*
X150193205Y-104159727D01*
X150216866Y-104156217D01*
X150240758Y-104155043D01*
X151153258Y-104155043D01*
X151177150Y-104156217D01*
X151177150Y-104156217D01*
G37*
D11*
G04 #@! TD*
G04 #@! TO.P,D2,1*
G04 #@! TO.N,GND*
X150697008Y-104642543D03*
D15*
G04 #@! TO.P,J1,1*
G04 #@! TO.N,Net-(A1-Pad16)*
X148590000Y-71120000D03*
D16*
G04 #@! TO.P,J1,2*
G04 #@! TO.N,Net-(A1-Pad15)*
X151130000Y-71120000D03*
G04 #@! TO.P,J1,3*
G04 #@! TO.N,GND*
X153670000Y-71120000D03*
G04 #@! TO.P,J1,4*
G04 #@! TO.N,+3V3*
X156210000Y-71120000D03*
G04 #@! TD*
G04 #@! TO.P,J2,7*
G04 #@! TO.N,GND*
X124460000Y-100330000D03*
G04 #@! TO.P,J2,6*
G04 #@! TO.N,/CS*
X127000000Y-100330000D03*
G04 #@! TO.P,J2,5*
G04 #@! TO.N,Net-(J2-Pad5)*
X129540000Y-100330000D03*
G04 #@! TO.P,J2,4*
G04 #@! TO.N,/RST*
X132080000Y-100330000D03*
G04 #@! TO.P,J2,3*
G04 #@! TO.N,/D0*
X134620000Y-100330000D03*
G04 #@! TO.P,J2,2*
G04 #@! TO.N,/D1*
X137160000Y-100330000D03*
D15*
G04 #@! TO.P,J2,1*
G04 #@! TO.N,/D2*
X139700000Y-100330000D03*
G04 #@! TD*
G04 #@! TO.P,J3,1*
G04 #@! TO.N,Net-(J3-Pad1)*
X124460000Y-77470000D03*
D16*
G04 #@! TO.P,J3,2*
G04 #@! TO.N,+3V3*
X127000000Y-77470000D03*
G04 #@! TO.P,J3,3*
G04 #@! TO.N,/SCK*
X129540000Y-77470000D03*
G04 #@! TO.P,J3,4*
G04 #@! TO.N,/MISO*
X132080000Y-77470000D03*
G04 #@! TO.P,J3,5*
G04 #@! TO.N,/MOSI*
X134620000Y-77470000D03*
G04 #@! TO.P,J3,6*
G04 #@! TO.N,Net-(J3-Pad6)*
X137160000Y-77470000D03*
G04 #@! TO.P,J3,7*
G04 #@! TO.N,Net-(J3-Pad7)*
X139700000Y-77470000D03*
G04 #@! TD*
D10*
G04 #@! TO.N,Net-(D1-Pad2)*
G04 #@! TO.C,R1*
G36*
X146382846Y-109004541D02*
X146397164Y-109006665D01*
X146411205Y-109010182D01*
X146424834Y-109015059D01*
X146437919Y-109021248D01*
X146450335Y-109028689D01*
X146461961Y-109037312D01*
X146472686Y-109047033D01*
X146482407Y-109057758D01*
X146491030Y-109069384D01*
X146498471Y-109081800D01*
X146504660Y-109094885D01*
X146509537Y-109108514D01*
X146513054Y-109122555D01*
X146515178Y-109136873D01*
X146515888Y-109151331D01*
X146515888Y-109496331D01*
X146515178Y-109510789D01*
X146513054Y-109525107D01*
X146509537Y-109539148D01*
X146504660Y-109552777D01*
X146498471Y-109565862D01*
X146491030Y-109578278D01*
X146482407Y-109589904D01*
X146472686Y-109600629D01*
X146461961Y-109610350D01*
X146450335Y-109618973D01*
X146437919Y-109626414D01*
X146424834Y-109632603D01*
X146411205Y-109637480D01*
X146397164Y-109640997D01*
X146382846Y-109643121D01*
X146368388Y-109643831D01*
X146073388Y-109643831D01*
X146058930Y-109643121D01*
X146044612Y-109640997D01*
X146030571Y-109637480D01*
X146016942Y-109632603D01*
X146003857Y-109626414D01*
X145991441Y-109618973D01*
X145979815Y-109610350D01*
X145969090Y-109600629D01*
X145959369Y-109589904D01*
X145950746Y-109578278D01*
X145943305Y-109565862D01*
X145937116Y-109552777D01*
X145932239Y-109539148D01*
X145928722Y-109525107D01*
X145926598Y-109510789D01*
X145925888Y-109496331D01*
X145925888Y-109151331D01*
X145926598Y-109136873D01*
X145928722Y-109122555D01*
X145932239Y-109108514D01*
X145937116Y-109094885D01*
X145943305Y-109081800D01*
X145950746Y-109069384D01*
X145959369Y-109057758D01*
X145969090Y-109047033D01*
X145979815Y-109037312D01*
X145991441Y-109028689D01*
X146003857Y-109021248D01*
X146016942Y-109015059D01*
X146030571Y-109010182D01*
X146044612Y-109006665D01*
X146058930Y-109004541D01*
X146073388Y-109003831D01*
X146368388Y-109003831D01*
X146382846Y-109004541D01*
X146382846Y-109004541D01*
G37*
D12*
G04 #@! TD*
G04 #@! TO.P,R1,1*
G04 #@! TO.N,Net-(D1-Pad2)*
X146220888Y-109323831D03*
D10*
G04 #@! TO.N,Net-(A1-Pad9)*
G04 #@! TO.C,R1*
G36*
X145412846Y-109004541D02*
X145427164Y-109006665D01*
X145441205Y-109010182D01*
X145454834Y-109015059D01*
X145467919Y-109021248D01*
X145480335Y-109028689D01*
X145491961Y-109037312D01*
X145502686Y-109047033D01*
X145512407Y-109057758D01*
X145521030Y-109069384D01*
X145528471Y-109081800D01*
X145534660Y-109094885D01*
X145539537Y-109108514D01*
X145543054Y-109122555D01*
X145545178Y-109136873D01*
X145545888Y-109151331D01*
X145545888Y-109496331D01*
X145545178Y-109510789D01*
X145543054Y-109525107D01*
X145539537Y-109539148D01*
X145534660Y-109552777D01*
X145528471Y-109565862D01*
X145521030Y-109578278D01*
X145512407Y-109589904D01*
X145502686Y-109600629D01*
X145491961Y-109610350D01*
X145480335Y-109618973D01*
X145467919Y-109626414D01*
X145454834Y-109632603D01*
X145441205Y-109637480D01*
X145427164Y-109640997D01*
X145412846Y-109643121D01*
X145398388Y-109643831D01*
X145103388Y-109643831D01*
X145088930Y-109643121D01*
X145074612Y-109640997D01*
X145060571Y-109637480D01*
X145046942Y-109632603D01*
X145033857Y-109626414D01*
X145021441Y-109618973D01*
X145009815Y-109610350D01*
X144999090Y-109600629D01*
X144989369Y-109589904D01*
X144980746Y-109578278D01*
X144973305Y-109565862D01*
X144967116Y-109552777D01*
X144962239Y-109539148D01*
X144958722Y-109525107D01*
X144956598Y-109510789D01*
X144955888Y-109496331D01*
X144955888Y-109151331D01*
X144956598Y-109136873D01*
X144958722Y-109122555D01*
X144962239Y-109108514D01*
X144967116Y-109094885D01*
X144973305Y-109081800D01*
X144980746Y-109069384D01*
X144989369Y-109057758D01*
X144999090Y-109047033D01*
X145009815Y-109037312D01*
X145021441Y-109028689D01*
X145033857Y-109021248D01*
X145046942Y-109015059D01*
X145060571Y-109010182D01*
X145074612Y-109006665D01*
X145088930Y-109004541D01*
X145103388Y-109003831D01*
X145398388Y-109003831D01*
X145412846Y-109004541D01*
X145412846Y-109004541D01*
G37*
D12*
G04 #@! TD*
G04 #@! TO.P,R1,2*
G04 #@! TO.N,Net-(A1-Pad9)*
X145250888Y-109323831D03*
D10*
G04 #@! TO.N,Net-(A1-Pad10)*
G04 #@! TO.C,R2*
G36*
X150373966Y-109070753D02*
X150388284Y-109072877D01*
X150402325Y-109076394D01*
X150415954Y-109081271D01*
X150429039Y-109087460D01*
X150441455Y-109094901D01*
X150453081Y-109103524D01*
X150463806Y-109113245D01*
X150473527Y-109123970D01*
X150482150Y-109135596D01*
X150489591Y-109148012D01*
X150495780Y-109161097D01*
X150500657Y-109174726D01*
X150504174Y-109188767D01*
X150506298Y-109203085D01*
X150507008Y-109217543D01*
X150507008Y-109562543D01*
X150506298Y-109577001D01*
X150504174Y-109591319D01*
X150500657Y-109605360D01*
X150495780Y-109618989D01*
X150489591Y-109632074D01*
X150482150Y-109644490D01*
X150473527Y-109656116D01*
X150463806Y-109666841D01*
X150453081Y-109676562D01*
X150441455Y-109685185D01*
X150429039Y-109692626D01*
X150415954Y-109698815D01*
X150402325Y-109703692D01*
X150388284Y-109707209D01*
X150373966Y-109709333D01*
X150359508Y-109710043D01*
X150064508Y-109710043D01*
X150050050Y-109709333D01*
X150035732Y-109707209D01*
X150021691Y-109703692D01*
X150008062Y-109698815D01*
X149994977Y-109692626D01*
X149982561Y-109685185D01*
X149970935Y-109676562D01*
X149960210Y-109666841D01*
X149950489Y-109656116D01*
X149941866Y-109644490D01*
X149934425Y-109632074D01*
X149928236Y-109618989D01*
X149923359Y-109605360D01*
X149919842Y-109591319D01*
X149917718Y-109577001D01*
X149917008Y-109562543D01*
X149917008Y-109217543D01*
X149917718Y-109203085D01*
X149919842Y-109188767D01*
X149923359Y-109174726D01*
X149928236Y-109161097D01*
X149934425Y-109148012D01*
X149941866Y-109135596D01*
X149950489Y-109123970D01*
X149960210Y-109113245D01*
X149970935Y-109103524D01*
X149982561Y-109094901D01*
X149994977Y-109087460D01*
X150008062Y-109081271D01*
X150021691Y-109076394D01*
X150035732Y-109072877D01*
X150050050Y-109070753D01*
X150064508Y-109070043D01*
X150359508Y-109070043D01*
X150373966Y-109070753D01*
X150373966Y-109070753D01*
G37*
D12*
G04 #@! TD*
G04 #@! TO.P,R2,2*
G04 #@! TO.N,Net-(A1-Pad10)*
X150212008Y-109390043D03*
D10*
G04 #@! TO.N,Net-(D2-Pad2)*
G04 #@! TO.C,R2*
G36*
X151343966Y-109070753D02*
X151358284Y-109072877D01*
X151372325Y-109076394D01*
X151385954Y-109081271D01*
X151399039Y-109087460D01*
X151411455Y-109094901D01*
X151423081Y-109103524D01*
X151433806Y-109113245D01*
X151443527Y-109123970D01*
X151452150Y-109135596D01*
X151459591Y-109148012D01*
X151465780Y-109161097D01*
X151470657Y-109174726D01*
X151474174Y-109188767D01*
X151476298Y-109203085D01*
X151477008Y-109217543D01*
X151477008Y-109562543D01*
X151476298Y-109577001D01*
X151474174Y-109591319D01*
X151470657Y-109605360D01*
X151465780Y-109618989D01*
X151459591Y-109632074D01*
X151452150Y-109644490D01*
X151443527Y-109656116D01*
X151433806Y-109666841D01*
X151423081Y-109676562D01*
X151411455Y-109685185D01*
X151399039Y-109692626D01*
X151385954Y-109698815D01*
X151372325Y-109703692D01*
X151358284Y-109707209D01*
X151343966Y-109709333D01*
X151329508Y-109710043D01*
X151034508Y-109710043D01*
X151020050Y-109709333D01*
X151005732Y-109707209D01*
X150991691Y-109703692D01*
X150978062Y-109698815D01*
X150964977Y-109692626D01*
X150952561Y-109685185D01*
X150940935Y-109676562D01*
X150930210Y-109666841D01*
X150920489Y-109656116D01*
X150911866Y-109644490D01*
X150904425Y-109632074D01*
X150898236Y-109618989D01*
X150893359Y-109605360D01*
X150889842Y-109591319D01*
X150887718Y-109577001D01*
X150887008Y-109562543D01*
X150887008Y-109217543D01*
X150887718Y-109203085D01*
X150889842Y-109188767D01*
X150893359Y-109174726D01*
X150898236Y-109161097D01*
X150904425Y-109148012D01*
X150911866Y-109135596D01*
X150920489Y-109123970D01*
X150930210Y-109113245D01*
X150940935Y-109103524D01*
X150952561Y-109094901D01*
X150964977Y-109087460D01*
X150978062Y-109081271D01*
X150991691Y-109076394D01*
X151005732Y-109072877D01*
X151020050Y-109070753D01*
X151034508Y-109070043D01*
X151329508Y-109070043D01*
X151343966Y-109070753D01*
X151343966Y-109070753D01*
G37*
D12*
G04 #@! TD*
G04 #@! TO.P,R2,1*
G04 #@! TO.N,Net-(D2-Pad2)*
X151182008Y-109390043D03*
D10*
G04 #@! TO.N,/RST*
G04 #@! TO.C,R4*
G36*
X131756958Y-103820710D02*
X131771276Y-103822834D01*
X131785317Y-103826351D01*
X131798946Y-103831228D01*
X131812031Y-103837417D01*
X131824447Y-103844858D01*
X131836073Y-103853481D01*
X131846798Y-103863202D01*
X131856519Y-103873927D01*
X131865142Y-103885553D01*
X131872583Y-103897969D01*
X131878772Y-103911054D01*
X131883649Y-103924683D01*
X131887166Y-103938724D01*
X131889290Y-103953042D01*
X131890000Y-103967500D01*
X131890000Y-104312500D01*
X131889290Y-104326958D01*
X131887166Y-104341276D01*
X131883649Y-104355317D01*
X131878772Y-104368946D01*
X131872583Y-104382031D01*
X131865142Y-104394447D01*
X131856519Y-104406073D01*
X131846798Y-104416798D01*
X131836073Y-104426519D01*
X131824447Y-104435142D01*
X131812031Y-104442583D01*
X131798946Y-104448772D01*
X131785317Y-104453649D01*
X131771276Y-104457166D01*
X131756958Y-104459290D01*
X131742500Y-104460000D01*
X131447500Y-104460000D01*
X131433042Y-104459290D01*
X131418724Y-104457166D01*
X131404683Y-104453649D01*
X131391054Y-104448772D01*
X131377969Y-104442583D01*
X131365553Y-104435142D01*
X131353927Y-104426519D01*
X131343202Y-104416798D01*
X131333481Y-104406073D01*
X131324858Y-104394447D01*
X131317417Y-104382031D01*
X131311228Y-104368946D01*
X131306351Y-104355317D01*
X131302834Y-104341276D01*
X131300710Y-104326958D01*
X131300000Y-104312500D01*
X131300000Y-103967500D01*
X131300710Y-103953042D01*
X131302834Y-103938724D01*
X131306351Y-103924683D01*
X131311228Y-103911054D01*
X131317417Y-103897969D01*
X131324858Y-103885553D01*
X131333481Y-103873927D01*
X131343202Y-103863202D01*
X131353927Y-103853481D01*
X131365553Y-103844858D01*
X131377969Y-103837417D01*
X131391054Y-103831228D01*
X131404683Y-103826351D01*
X131418724Y-103822834D01*
X131433042Y-103820710D01*
X131447500Y-103820000D01*
X131742500Y-103820000D01*
X131756958Y-103820710D01*
X131756958Y-103820710D01*
G37*
D12*
G04 #@! TD*
G04 #@! TO.P,R4,2*
G04 #@! TO.N,/RST*
X131595000Y-104140000D03*
D10*
G04 #@! TO.N,Net-(A1-Pad3)*
G04 #@! TO.C,R4*
G36*
X130786958Y-103820710D02*
X130801276Y-103822834D01*
X130815317Y-103826351D01*
X130828946Y-103831228D01*
X130842031Y-103837417D01*
X130854447Y-103844858D01*
X130866073Y-103853481D01*
X130876798Y-103863202D01*
X130886519Y-103873927D01*
X130895142Y-103885553D01*
X130902583Y-103897969D01*
X130908772Y-103911054D01*
X130913649Y-103924683D01*
X130917166Y-103938724D01*
X130919290Y-103953042D01*
X130920000Y-103967500D01*
X130920000Y-104312500D01*
X130919290Y-104326958D01*
X130917166Y-104341276D01*
X130913649Y-104355317D01*
X130908772Y-104368946D01*
X130902583Y-104382031D01*
X130895142Y-104394447D01*
X130886519Y-104406073D01*
X130876798Y-104416798D01*
X130866073Y-104426519D01*
X130854447Y-104435142D01*
X130842031Y-104442583D01*
X130828946Y-104448772D01*
X130815317Y-104453649D01*
X130801276Y-104457166D01*
X130786958Y-104459290D01*
X130772500Y-104460000D01*
X130477500Y-104460000D01*
X130463042Y-104459290D01*
X130448724Y-104457166D01*
X130434683Y-104453649D01*
X130421054Y-104448772D01*
X130407969Y-104442583D01*
X130395553Y-104435142D01*
X130383927Y-104426519D01*
X130373202Y-104416798D01*
X130363481Y-104406073D01*
X130354858Y-104394447D01*
X130347417Y-104382031D01*
X130341228Y-104368946D01*
X130336351Y-104355317D01*
X130332834Y-104341276D01*
X130330710Y-104326958D01*
X130330000Y-104312500D01*
X130330000Y-103967500D01*
X130330710Y-103953042D01*
X130332834Y-103938724D01*
X130336351Y-103924683D01*
X130341228Y-103911054D01*
X130347417Y-103897969D01*
X130354858Y-103885553D01*
X130363481Y-103873927D01*
X130373202Y-103863202D01*
X130383927Y-103853481D01*
X130395553Y-103844858D01*
X130407969Y-103837417D01*
X130421054Y-103831228D01*
X130434683Y-103826351D01*
X130448724Y-103822834D01*
X130463042Y-103820710D01*
X130477500Y-103820000D01*
X130772500Y-103820000D01*
X130786958Y-103820710D01*
X130786958Y-103820710D01*
G37*
D12*
G04 #@! TD*
G04 #@! TO.P,R4,1*
G04 #@! TO.N,Net-(A1-Pad3)*
X130625000Y-104140000D03*
D17*
G04 #@! TO.N,GND*
X137160000Y-87630000D03*
X139700000Y-87630000D03*
X142240000Y-87630000D03*
X137160000Y-72390000D03*
X149860000Y-75946000D03*
X139700000Y-72390000D03*
X154940000Y-74930000D03*
G04 #@! TD*
D18*
G04 #@! TO.N,/D2*
X144272000Y-64516000D02*
X142494000Y-64516000D01*
X142494000Y-64516000D02*
X140970000Y-66040000D01*
X139700000Y-98426410D02*
X144145000Y-93981410D01*
X139700000Y-100330000D02*
X139700000Y-98426410D01*
X144145000Y-67945000D02*
X144780000Y-67310000D01*
X144780000Y-67310000D02*
X144780000Y-65024000D01*
X144145000Y-93981410D02*
X144145000Y-67945000D01*
X144780000Y-65024000D02*
X144272000Y-64516000D01*
G04 #@! TO.N,/D1*
X143510000Y-93980000D02*
X143510000Y-66040000D01*
X137160000Y-100330000D02*
X143510000Y-93980000D01*
G04 #@! TO.N,Net-(A1-Pad3)*
X130625000Y-104140000D02*
X130625000Y-110820000D01*
X130625000Y-110820000D02*
X128270000Y-113175000D01*
X128270000Y-113175000D02*
X128270000Y-114300000D01*
D19*
G04 #@! TO.N,+3V3*
X127000000Y-80264000D02*
X127000000Y-77470000D01*
X125476000Y-81788000D02*
X127000000Y-80264000D01*
X129286000Y-115824000D02*
X121666000Y-115824000D01*
X130810000Y-114300000D02*
X129286000Y-115824000D01*
X121666000Y-115824000D02*
X120650000Y-114808000D01*
X120650000Y-83820000D02*
X122682000Y-81788000D01*
X120650000Y-114808000D02*
X120650000Y-83820000D01*
X122682000Y-81788000D02*
X125476000Y-81788000D01*
D18*
G04 #@! TO.N,/RST*
X131595000Y-104140000D02*
X132080000Y-103655000D01*
X132080000Y-103655000D02*
X132080000Y-100330000D01*
X132080000Y-100330000D02*
X132080000Y-99154700D01*
X132080000Y-99154700D02*
X135801000Y-95433500D01*
X135801000Y-95433500D02*
X135801000Y-68596500D01*
X135801000Y-68596500D02*
X134370000Y-67165300D01*
X134370000Y-67165300D02*
X134370000Y-66040000D01*
G04 #@! TO.N,Net-(A1-Pad9)*
X145250888Y-109743831D02*
X145250888Y-109323831D01*
X145250888Y-112369518D02*
X145250888Y-109743831D01*
X146050000Y-113168630D02*
X145250888Y-112369518D01*
X146050000Y-114300000D02*
X146050000Y-113168630D01*
G04 #@! TO.N,Net-(A1-Pad10)*
X150212008Y-112677992D02*
X148590000Y-114300000D01*
X150212008Y-109390043D02*
X150212008Y-112677992D01*
G04 #@! TO.N,/MOSI*
X134620000Y-77470000D02*
X134620000Y-76294700D01*
X134620000Y-76294700D02*
X129290000Y-70964700D01*
X129290000Y-70964700D02*
X129290000Y-66040000D01*
G04 #@! TO.N,Net-(A1-Pad11)*
X151130000Y-113561000D02*
X151130000Y-114300000D01*
X155217000Y-109474000D02*
X151130000Y-113561000D01*
G04 #@! TO.N,/MISO*
X132080000Y-77470000D02*
X132080000Y-76294700D01*
X132080000Y-76294700D02*
X126750000Y-70964700D01*
X126750000Y-70964700D02*
X126750000Y-66040000D01*
G04 #@! TO.N,/SCK*
X129540000Y-77470000D02*
X129540000Y-76294700D01*
X129540000Y-76294700D02*
X124210000Y-70964700D01*
X124210000Y-70964700D02*
X124210000Y-66040000D01*
G04 #@! TO.N,Net-(D1-Pad2)*
X145735888Y-106451331D02*
X145978388Y-106693831D01*
X146220888Y-109323831D02*
X146220888Y-106935831D01*
X146220888Y-106935831D02*
X145978388Y-106693831D01*
G04 #@! TO.N,Net-(D2-Pad2)*
X150697008Y-106517543D02*
X150939508Y-106760043D01*
X151182008Y-109390043D02*
X151182008Y-107002043D01*
X151182008Y-107002043D02*
X150939508Y-106760043D01*
G04 #@! TO.N,Net-(D3-Pad2)*
X156187000Y-109054000D02*
X156187000Y-109474000D01*
X156187000Y-107674000D02*
X156187000Y-109054000D01*
X155702000Y-107189000D02*
X156187000Y-107674000D01*
X155702000Y-106601500D02*
X155702000Y-107189000D01*
G04 #@! TO.N,/D0*
X134620000Y-101532081D02*
X135322919Y-102235000D01*
X134620000Y-100330000D02*
X134620000Y-101532081D01*
X135322919Y-102235000D02*
X140080002Y-102235000D01*
X140970000Y-101345002D02*
X140970000Y-97792820D01*
X140080002Y-102235000D02*
X140970000Y-101345002D01*
X140970000Y-97792820D02*
X144780000Y-93982820D01*
X144780000Y-93982820D02*
X144780000Y-68580000D01*
X144780000Y-68580000D02*
X145415000Y-67945000D01*
X151765000Y-67945000D02*
X153670000Y-66040000D01*
X145415000Y-67945000D02*
X151765000Y-67945000D01*
G04 #@! TD*
D20*
G04 #@! TO.N,GND*
G36*
X160809001Y-64969237D02*
X160809000Y-76152631D01*
X160799578Y-76200000D01*
X160809000Y-76247369D01*
X160809000Y-76247372D01*
X160836908Y-76387676D01*
X160943219Y-76546781D01*
X160983380Y-76573616D01*
X163349001Y-78939237D01*
X163349000Y-111560764D01*
X160983378Y-113926386D01*
X160943220Y-113953219D01*
X160916387Y-113993377D01*
X160916384Y-113993380D01*
X160836908Y-114112324D01*
X160799578Y-114300000D01*
X160809001Y-114347374D01*
X160809000Y-116359000D01*
X129621086Y-116359000D01*
X129740926Y-116278926D01*
X129776132Y-116226236D01*
X130549957Y-115452411D01*
X130693682Y-115481000D01*
X130926318Y-115481000D01*
X131270803Y-115412478D01*
X131661453Y-115151453D01*
X131922478Y-114760803D01*
X132014137Y-114300000D01*
X132145863Y-114300000D01*
X132237522Y-114760803D01*
X132498547Y-115151453D01*
X132889197Y-115412478D01*
X133233682Y-115481000D01*
X133466318Y-115481000D01*
X133810803Y-115412478D01*
X134201453Y-115151453D01*
X134462478Y-114760803D01*
X134528875Y-114427002D01*
X134619370Y-114427002D01*
X134498086Y-114649041D01*
X134737611Y-115155134D01*
X135152577Y-115531041D01*
X135540961Y-115691904D01*
X135763000Y-115569915D01*
X135763000Y-114427000D01*
X136017000Y-114427000D01*
X136017000Y-115569915D01*
X136239039Y-115691904D01*
X136627423Y-115531041D01*
X137042389Y-115155134D01*
X137160000Y-114906633D01*
X137277611Y-115155134D01*
X137692577Y-115531041D01*
X138080961Y-115691904D01*
X138303000Y-115569915D01*
X138303000Y-114427000D01*
X136017000Y-114427000D01*
X135763000Y-114427000D01*
X135743000Y-114427000D01*
X135743000Y-114173000D01*
X135763000Y-114173000D01*
X135763000Y-113030085D01*
X136017000Y-113030085D01*
X136017000Y-114173000D01*
X138303000Y-114173000D01*
X138303000Y-113030085D01*
X138557000Y-113030085D01*
X138557000Y-114173000D01*
X138577000Y-114173000D01*
X138577000Y-114427000D01*
X138557000Y-114427000D01*
X138557000Y-115569915D01*
X138779039Y-115691904D01*
X139167423Y-115531041D01*
X139582389Y-115155134D01*
X139821914Y-114649041D01*
X139700630Y-114427002D01*
X139791125Y-114427002D01*
X139857522Y-114760803D01*
X140118547Y-115151453D01*
X140509197Y-115412478D01*
X140853682Y-115481000D01*
X141086318Y-115481000D01*
X141430803Y-115412478D01*
X141821453Y-115151453D01*
X142082478Y-114760803D01*
X142174137Y-114300000D01*
X142082478Y-113839197D01*
X141821453Y-113448547D01*
X141430803Y-113187522D01*
X141086318Y-113119000D01*
X140853682Y-113119000D01*
X140509197Y-113187522D01*
X140118547Y-113448547D01*
X139857522Y-113839197D01*
X139791125Y-114172998D01*
X139700630Y-114172998D01*
X139821914Y-113950959D01*
X139582389Y-113444866D01*
X139167423Y-113068959D01*
X138779039Y-112908096D01*
X138557000Y-113030085D01*
X138303000Y-113030085D01*
X138080961Y-112908096D01*
X137692577Y-113068959D01*
X137277611Y-113444866D01*
X137160000Y-113693367D01*
X137042389Y-113444866D01*
X136627423Y-113068959D01*
X136239039Y-112908096D01*
X136017000Y-113030085D01*
X135763000Y-113030085D01*
X135540961Y-112908096D01*
X135152577Y-113068959D01*
X134737611Y-113444866D01*
X134498086Y-113950959D01*
X134619370Y-114172998D01*
X134528875Y-114172998D01*
X134462478Y-113839197D01*
X134201453Y-113448547D01*
X133810803Y-113187522D01*
X133466318Y-113119000D01*
X133233682Y-113119000D01*
X132889197Y-113187522D01*
X132498547Y-113448547D01*
X132237522Y-113839197D01*
X132145863Y-114300000D01*
X132014137Y-114300000D01*
X131922478Y-113839197D01*
X131661453Y-113448547D01*
X131270803Y-113187522D01*
X130926318Y-113119000D01*
X130693682Y-113119000D01*
X130349197Y-113187522D01*
X129958547Y-113448547D01*
X129697522Y-113839197D01*
X129605863Y-114300000D01*
X129657589Y-114560043D01*
X129232758Y-114984873D01*
X129382478Y-114760803D01*
X129474137Y-114300000D01*
X129382478Y-113839197D01*
X129121453Y-113448547D01*
X128876031Y-113284560D01*
X130947555Y-111213037D01*
X130989806Y-111184806D01*
X131101641Y-111017431D01*
X131131000Y-110869835D01*
X131131000Y-110869834D01*
X131140913Y-110820000D01*
X131131000Y-110770166D01*
X131131000Y-104862081D01*
X144400888Y-104862081D01*
X144400888Y-105190140D01*
X144497561Y-105423529D01*
X144676189Y-105602158D01*
X144909578Y-105698831D01*
X144924946Y-105698831D01*
X144832595Y-105760538D01*
X144695548Y-105965643D01*
X144647424Y-106207581D01*
X144647424Y-106695081D01*
X144695548Y-106937019D01*
X144832595Y-107142124D01*
X145037700Y-107279171D01*
X145279638Y-107327295D01*
X145714889Y-107327295D01*
X145714888Y-108730597D01*
X145603493Y-108656165D01*
X145398388Y-108615367D01*
X145103388Y-108615367D01*
X144898283Y-108656165D01*
X144724404Y-108772347D01*
X144608222Y-108946226D01*
X144567424Y-109151331D01*
X144567424Y-109496331D01*
X144608222Y-109701436D01*
X144724404Y-109875315D01*
X144744889Y-109889003D01*
X144744888Y-112319684D01*
X144734975Y-112369518D01*
X144744888Y-112419352D01*
X144774247Y-112566948D01*
X144886082Y-112734324D01*
X144928335Y-112762556D01*
X145447787Y-113282009D01*
X145198547Y-113448547D01*
X144937522Y-113839197D01*
X144845863Y-114300000D01*
X144937522Y-114760803D01*
X145198547Y-115151453D01*
X145589197Y-115412478D01*
X145933682Y-115481000D01*
X146166318Y-115481000D01*
X146510803Y-115412478D01*
X146901453Y-115151453D01*
X147162478Y-114760803D01*
X147254137Y-114300000D01*
X147385863Y-114300000D01*
X147477522Y-114760803D01*
X147738547Y-115151453D01*
X148129197Y-115412478D01*
X148473682Y-115481000D01*
X148706318Y-115481000D01*
X149050803Y-115412478D01*
X149441453Y-115151453D01*
X149702478Y-114760803D01*
X149794137Y-114300000D01*
X149925863Y-114300000D01*
X150017522Y-114760803D01*
X150278547Y-115151453D01*
X150669197Y-115412478D01*
X151013682Y-115481000D01*
X151246318Y-115481000D01*
X151590803Y-115412478D01*
X151981453Y-115151453D01*
X152242478Y-114760803D01*
X152334137Y-114300000D01*
X152465863Y-114300000D01*
X152557522Y-114760803D01*
X152818547Y-115151453D01*
X153209197Y-115412478D01*
X153553682Y-115481000D01*
X153786318Y-115481000D01*
X154130803Y-115412478D01*
X154521453Y-115151453D01*
X154782478Y-114760803D01*
X154874137Y-114300000D01*
X155005863Y-114300000D01*
X155097522Y-114760803D01*
X155358547Y-115151453D01*
X155749197Y-115412478D01*
X156093682Y-115481000D01*
X156326318Y-115481000D01*
X156670803Y-115412478D01*
X157061453Y-115151453D01*
X157322478Y-114760803D01*
X157414137Y-114300000D01*
X157545863Y-114300000D01*
X157637522Y-114760803D01*
X157898547Y-115151453D01*
X158289197Y-115412478D01*
X158633682Y-115481000D01*
X158866318Y-115481000D01*
X159210803Y-115412478D01*
X159601453Y-115151453D01*
X159862478Y-114760803D01*
X159954137Y-114300000D01*
X159862478Y-113839197D01*
X159601453Y-113448547D01*
X159210803Y-113187522D01*
X158866318Y-113119000D01*
X158633682Y-113119000D01*
X158289197Y-113187522D01*
X157898547Y-113448547D01*
X157637522Y-113839197D01*
X157545863Y-114300000D01*
X157414137Y-114300000D01*
X157322478Y-113839197D01*
X157061453Y-113448547D01*
X156670803Y-113187522D01*
X156326318Y-113119000D01*
X156093682Y-113119000D01*
X155749197Y-113187522D01*
X155358547Y-113448547D01*
X155097522Y-113839197D01*
X155005863Y-114300000D01*
X154874137Y-114300000D01*
X154782478Y-113839197D01*
X154521453Y-113448547D01*
X154130803Y-113187522D01*
X153786318Y-113119000D01*
X153553682Y-113119000D01*
X153209197Y-113187522D01*
X152818547Y-113448547D01*
X152557522Y-113839197D01*
X152465863Y-114300000D01*
X152334137Y-114300000D01*
X152242478Y-113839197D01*
X151981453Y-113448547D01*
X151967420Y-113439171D01*
X155224128Y-110182464D01*
X155364500Y-110182464D01*
X155569605Y-110141666D01*
X155702000Y-110053203D01*
X155834395Y-110141666D01*
X156039500Y-110182464D01*
X156334500Y-110182464D01*
X156539605Y-110141666D01*
X156713484Y-110025484D01*
X156829666Y-109851605D01*
X156870464Y-109646500D01*
X156870464Y-109301500D01*
X156829666Y-109096395D01*
X156713484Y-108922516D01*
X156693000Y-108908829D01*
X156693000Y-107723835D01*
X156702913Y-107674000D01*
X156663641Y-107476569D01*
X156632084Y-107429340D01*
X156560508Y-107322217D01*
X156605293Y-107292293D01*
X156742340Y-107087188D01*
X156790464Y-106845250D01*
X156790464Y-106357750D01*
X156742340Y-106115812D01*
X156605293Y-105910707D01*
X156512942Y-105849000D01*
X156528310Y-105849000D01*
X156761699Y-105752327D01*
X156940327Y-105573698D01*
X157037000Y-105340309D01*
X157037000Y-105012250D01*
X156878250Y-104853500D01*
X155829000Y-104853500D01*
X155829000Y-104873500D01*
X155575000Y-104873500D01*
X155575000Y-104853500D01*
X154525750Y-104853500D01*
X154367000Y-105012250D01*
X154367000Y-105340309D01*
X154463673Y-105573698D01*
X154642301Y-105752327D01*
X154875690Y-105849000D01*
X154891058Y-105849000D01*
X154798707Y-105910707D01*
X154661660Y-106115812D01*
X154613536Y-106357750D01*
X154613536Y-106845250D01*
X154661660Y-107087188D01*
X154798707Y-107292293D01*
X155003812Y-107429340D01*
X155245750Y-107477464D01*
X155286186Y-107477464D01*
X155337195Y-107553806D01*
X155379445Y-107582036D01*
X155681000Y-107883592D01*
X155681001Y-108880766D01*
X155569605Y-108806334D01*
X155364500Y-108765536D01*
X155069500Y-108765536D01*
X154864395Y-108806334D01*
X154690516Y-108922516D01*
X154574334Y-109096395D01*
X154533536Y-109301500D01*
X154533536Y-109441872D01*
X150817358Y-113158051D01*
X150669197Y-113187522D01*
X150278547Y-113448547D01*
X150017522Y-113839197D01*
X149925863Y-114300000D01*
X149794137Y-114300000D01*
X149713082Y-113892509D01*
X150534563Y-113071029D01*
X150576814Y-113042798D01*
X150681962Y-112885431D01*
X150688649Y-112875424D01*
X150727921Y-112677992D01*
X150718008Y-112628157D01*
X150718008Y-109983277D01*
X150829403Y-110057709D01*
X151034508Y-110098507D01*
X151329508Y-110098507D01*
X151534613Y-110057709D01*
X151708492Y-109941527D01*
X151824674Y-109767648D01*
X151865472Y-109562543D01*
X151865472Y-109217543D01*
X151824674Y-109012438D01*
X151708492Y-108838559D01*
X151688008Y-108824872D01*
X151688008Y-107077073D01*
X151737348Y-107003231D01*
X151785472Y-106761293D01*
X151785472Y-106273793D01*
X151737348Y-106031855D01*
X151600301Y-105826750D01*
X151507950Y-105765043D01*
X151523318Y-105765043D01*
X151756707Y-105668370D01*
X151935335Y-105489741D01*
X152032008Y-105256352D01*
X152032008Y-104928293D01*
X151873258Y-104769543D01*
X150824008Y-104769543D01*
X150824008Y-104789543D01*
X150570008Y-104789543D01*
X150570008Y-104769543D01*
X149520758Y-104769543D01*
X149362008Y-104928293D01*
X149362008Y-105256352D01*
X149458681Y-105489741D01*
X149637309Y-105668370D01*
X149870698Y-105765043D01*
X149886066Y-105765043D01*
X149793715Y-105826750D01*
X149656668Y-106031855D01*
X149608544Y-106273793D01*
X149608544Y-106761293D01*
X149656668Y-107003231D01*
X149793715Y-107208336D01*
X149998820Y-107345383D01*
X150240758Y-107393507D01*
X150676009Y-107393507D01*
X150676008Y-108796809D01*
X150564613Y-108722377D01*
X150359508Y-108681579D01*
X150064508Y-108681579D01*
X149859403Y-108722377D01*
X149685524Y-108838559D01*
X149569342Y-109012438D01*
X149528544Y-109217543D01*
X149528544Y-109562543D01*
X149569342Y-109767648D01*
X149685524Y-109941527D01*
X149706008Y-109955214D01*
X149706009Y-112468399D01*
X148997491Y-113176918D01*
X148706318Y-113119000D01*
X148473682Y-113119000D01*
X148129197Y-113187522D01*
X147738547Y-113448547D01*
X147477522Y-113839197D01*
X147385863Y-114300000D01*
X147254137Y-114300000D01*
X147162478Y-113839197D01*
X146901453Y-113448547D01*
X146556130Y-113217809D01*
X146565913Y-113168629D01*
X146527908Y-112977570D01*
X146526641Y-112971199D01*
X146414806Y-112803824D01*
X146372555Y-112775593D01*
X145756888Y-112159927D01*
X145756888Y-109917065D01*
X145868283Y-109991497D01*
X146073388Y-110032295D01*
X146368388Y-110032295D01*
X146573493Y-109991497D01*
X146747372Y-109875315D01*
X146863554Y-109701436D01*
X146904352Y-109496331D01*
X146904352Y-109151331D01*
X146863554Y-108946226D01*
X146747372Y-108772347D01*
X146726888Y-108758660D01*
X146726888Y-107010861D01*
X146776228Y-106937019D01*
X146824352Y-106695081D01*
X146824352Y-106207581D01*
X146776228Y-105965643D01*
X146639181Y-105760538D01*
X146546830Y-105698831D01*
X146562198Y-105698831D01*
X146795587Y-105602158D01*
X146974215Y-105423529D01*
X147070888Y-105190140D01*
X147070888Y-104862081D01*
X146912138Y-104703331D01*
X145862888Y-104703331D01*
X145862888Y-104723331D01*
X145608888Y-104723331D01*
X145608888Y-104703331D01*
X144559638Y-104703331D01*
X144400888Y-104862081D01*
X131131000Y-104862081D01*
X131131000Y-104733234D01*
X131242395Y-104807666D01*
X131447500Y-104848464D01*
X131742500Y-104848464D01*
X131947605Y-104807666D01*
X132121484Y-104691484D01*
X132237666Y-104517605D01*
X132278464Y-104312500D01*
X132278464Y-104172128D01*
X132402556Y-104048036D01*
X132444806Y-104019806D01*
X132483081Y-103962522D01*
X144400888Y-103962522D01*
X144400888Y-104290581D01*
X144559638Y-104449331D01*
X145608888Y-104449331D01*
X145608888Y-103612581D01*
X145862888Y-103612581D01*
X145862888Y-104449331D01*
X146912138Y-104449331D01*
X147070888Y-104290581D01*
X147070888Y-104028734D01*
X149362008Y-104028734D01*
X149362008Y-104356793D01*
X149520758Y-104515543D01*
X150570008Y-104515543D01*
X150570008Y-103678793D01*
X150824008Y-103678793D01*
X150824008Y-104515543D01*
X151873258Y-104515543D01*
X152032008Y-104356793D01*
X152032008Y-104112691D01*
X154367000Y-104112691D01*
X154367000Y-104440750D01*
X154525750Y-104599500D01*
X155575000Y-104599500D01*
X155575000Y-103762750D01*
X155829000Y-103762750D01*
X155829000Y-104599500D01*
X156878250Y-104599500D01*
X157037000Y-104440750D01*
X157037000Y-104112691D01*
X156940327Y-103879302D01*
X156761699Y-103700673D01*
X156528310Y-103604000D01*
X155987750Y-103604000D01*
X155829000Y-103762750D01*
X155575000Y-103762750D01*
X155416250Y-103604000D01*
X154875690Y-103604000D01*
X154642301Y-103700673D01*
X154463673Y-103879302D01*
X154367000Y-104112691D01*
X152032008Y-104112691D01*
X152032008Y-104028734D01*
X151935335Y-103795345D01*
X151756707Y-103616716D01*
X151523318Y-103520043D01*
X150982758Y-103520043D01*
X150824008Y-103678793D01*
X150570008Y-103678793D01*
X150411258Y-103520043D01*
X149870698Y-103520043D01*
X149637309Y-103616716D01*
X149458681Y-103795345D01*
X149362008Y-104028734D01*
X147070888Y-104028734D01*
X147070888Y-103962522D01*
X146974215Y-103729133D01*
X146795587Y-103550504D01*
X146562198Y-103453831D01*
X146021638Y-103453831D01*
X145862888Y-103612581D01*
X145608888Y-103612581D01*
X145450138Y-103453831D01*
X144909578Y-103453831D01*
X144676189Y-103550504D01*
X144497561Y-103729133D01*
X144400888Y-103962522D01*
X132483081Y-103962522D01*
X132556641Y-103852431D01*
X132574480Y-103762750D01*
X132595913Y-103655000D01*
X132586000Y-103605165D01*
X132586000Y-101472412D01*
X132967501Y-101217501D01*
X133239576Y-100810312D01*
X133335116Y-100330000D01*
X133364884Y-100330000D01*
X133460424Y-100810312D01*
X133732499Y-101217501D01*
X134114001Y-101472412D01*
X134114001Y-101482242D01*
X134104087Y-101532081D01*
X134143258Y-101729000D01*
X134143360Y-101729512D01*
X134255195Y-101896887D01*
X134297445Y-101925117D01*
X134929882Y-102557555D01*
X134958113Y-102599806D01*
X135125487Y-102711640D01*
X135125488Y-102711641D01*
X135322919Y-102750913D01*
X135372754Y-102741000D01*
X140030168Y-102741000D01*
X140080002Y-102750913D01*
X140129836Y-102741000D01*
X140129837Y-102741000D01*
X140277433Y-102711641D01*
X140444808Y-102599806D01*
X140473040Y-102557553D01*
X141292556Y-101738038D01*
X141334806Y-101709808D01*
X141446641Y-101542433D01*
X141476000Y-101394837D01*
X141476000Y-101394836D01*
X141485913Y-101345003D01*
X141476000Y-101295169D01*
X141476000Y-98002411D01*
X145102556Y-94375856D01*
X145144806Y-94347626D01*
X145220033Y-94235039D01*
X145256641Y-94180252D01*
X145295913Y-93982820D01*
X145286000Y-93932985D01*
X145286000Y-70270000D01*
X147351536Y-70270000D01*
X147351536Y-71970000D01*
X147381106Y-72118659D01*
X147465314Y-72244686D01*
X147591341Y-72328894D01*
X147740000Y-72358464D01*
X149440000Y-72358464D01*
X149588659Y-72328894D01*
X149714686Y-72244686D01*
X149798894Y-72118659D01*
X149828464Y-71970000D01*
X149828464Y-71120000D01*
X149874884Y-71120000D01*
X149970424Y-71600312D01*
X150242499Y-72007501D01*
X150649688Y-72279576D01*
X151008761Y-72351000D01*
X151251239Y-72351000D01*
X151610312Y-72279576D01*
X152017501Y-72007501D01*
X152287755Y-71603037D01*
X152474817Y-72001358D01*
X152903076Y-72391645D01*
X153313110Y-72561476D01*
X153543000Y-72440155D01*
X153543000Y-71247000D01*
X153523000Y-71247000D01*
X153523000Y-70993000D01*
X153543000Y-70993000D01*
X153543000Y-69799845D01*
X153797000Y-69799845D01*
X153797000Y-70993000D01*
X153817000Y-70993000D01*
X153817000Y-71247000D01*
X153797000Y-71247000D01*
X153797000Y-72440155D01*
X154026890Y-72561476D01*
X154436924Y-72391645D01*
X154865183Y-72001358D01*
X155052245Y-71603037D01*
X155322499Y-72007501D01*
X155729688Y-72279576D01*
X156088761Y-72351000D01*
X156331239Y-72351000D01*
X156690312Y-72279576D01*
X157097501Y-72007501D01*
X157369576Y-71600312D01*
X157465116Y-71120000D01*
X157369576Y-70639688D01*
X157097501Y-70232499D01*
X156690312Y-69960424D01*
X156331239Y-69889000D01*
X156088761Y-69889000D01*
X155729688Y-69960424D01*
X155322499Y-70232499D01*
X155052245Y-70636963D01*
X154865183Y-70238642D01*
X154436924Y-69848355D01*
X154026890Y-69678524D01*
X153797000Y-69799845D01*
X153543000Y-69799845D01*
X153313110Y-69678524D01*
X152903076Y-69848355D01*
X152474817Y-70238642D01*
X152287755Y-70636963D01*
X152017501Y-70232499D01*
X151610312Y-69960424D01*
X151251239Y-69889000D01*
X151008761Y-69889000D01*
X150649688Y-69960424D01*
X150242499Y-70232499D01*
X149970424Y-70639688D01*
X149874884Y-71120000D01*
X149828464Y-71120000D01*
X149828464Y-70270000D01*
X149798894Y-70121341D01*
X149714686Y-69995314D01*
X149588659Y-69911106D01*
X149440000Y-69881536D01*
X147740000Y-69881536D01*
X147591341Y-69911106D01*
X147465314Y-69995314D01*
X147381106Y-70121341D01*
X147351536Y-70270000D01*
X145286000Y-70270000D01*
X145286000Y-68789591D01*
X145624592Y-68451000D01*
X151715166Y-68451000D01*
X151765000Y-68460913D01*
X151814834Y-68451000D01*
X151814835Y-68451000D01*
X151962431Y-68421641D01*
X152129806Y-68309806D01*
X152158039Y-68267553D01*
X153262509Y-67163082D01*
X153553682Y-67221000D01*
X153786318Y-67221000D01*
X154130803Y-67152478D01*
X154521453Y-66891453D01*
X154782478Y-66500803D01*
X154874137Y-66040000D01*
X155005863Y-66040000D01*
X155097522Y-66500803D01*
X155358547Y-66891453D01*
X155749197Y-67152478D01*
X156093682Y-67221000D01*
X156326318Y-67221000D01*
X156670803Y-67152478D01*
X157061453Y-66891453D01*
X157322478Y-66500803D01*
X157414137Y-66040000D01*
X157545863Y-66040000D01*
X157637522Y-66500803D01*
X157898547Y-66891453D01*
X158289197Y-67152478D01*
X158633682Y-67221000D01*
X158866318Y-67221000D01*
X159210803Y-67152478D01*
X159601453Y-66891453D01*
X159862478Y-66500803D01*
X159954137Y-66040000D01*
X159862478Y-65579197D01*
X159601453Y-65188547D01*
X159210803Y-64927522D01*
X158866318Y-64859000D01*
X158633682Y-64859000D01*
X158289197Y-64927522D01*
X157898547Y-65188547D01*
X157637522Y-65579197D01*
X157545863Y-66040000D01*
X157414137Y-66040000D01*
X157322478Y-65579197D01*
X157061453Y-65188547D01*
X156670803Y-64927522D01*
X156326318Y-64859000D01*
X156093682Y-64859000D01*
X155749197Y-64927522D01*
X155358547Y-65188547D01*
X155097522Y-65579197D01*
X155005863Y-66040000D01*
X154874137Y-66040000D01*
X154782478Y-65579197D01*
X154521453Y-65188547D01*
X154130803Y-64927522D01*
X153786318Y-64859000D01*
X153553682Y-64859000D01*
X153209197Y-64927522D01*
X152818547Y-65188547D01*
X152557522Y-65579197D01*
X152465863Y-66040000D01*
X152546918Y-66447491D01*
X151555409Y-67439000D01*
X145464835Y-67439000D01*
X145415000Y-67429087D01*
X145266343Y-67458657D01*
X145295913Y-67310000D01*
X145286000Y-67260165D01*
X145286000Y-66949887D01*
X145589197Y-67152478D01*
X145933682Y-67221000D01*
X146166318Y-67221000D01*
X146510803Y-67152478D01*
X146901453Y-66891453D01*
X147162478Y-66500803D01*
X147254137Y-66040000D01*
X147385863Y-66040000D01*
X147477522Y-66500803D01*
X147738547Y-66891453D01*
X148129197Y-67152478D01*
X148473682Y-67221000D01*
X148706318Y-67221000D01*
X149050803Y-67152478D01*
X149441453Y-66891453D01*
X149702478Y-66500803D01*
X149794137Y-66040000D01*
X149925863Y-66040000D01*
X150017522Y-66500803D01*
X150278547Y-66891453D01*
X150669197Y-67152478D01*
X151013682Y-67221000D01*
X151246318Y-67221000D01*
X151590803Y-67152478D01*
X151981453Y-66891453D01*
X152242478Y-66500803D01*
X152334137Y-66040000D01*
X152242478Y-65579197D01*
X151981453Y-65188547D01*
X151590803Y-64927522D01*
X151246318Y-64859000D01*
X151013682Y-64859000D01*
X150669197Y-64927522D01*
X150278547Y-65188547D01*
X150017522Y-65579197D01*
X149925863Y-66040000D01*
X149794137Y-66040000D01*
X149702478Y-65579197D01*
X149441453Y-65188547D01*
X149050803Y-64927522D01*
X148706318Y-64859000D01*
X148473682Y-64859000D01*
X148129197Y-64927522D01*
X147738547Y-65188547D01*
X147477522Y-65579197D01*
X147385863Y-66040000D01*
X147254137Y-66040000D01*
X147162478Y-65579197D01*
X146901453Y-65188547D01*
X146510803Y-64927522D01*
X146166318Y-64859000D01*
X145933682Y-64859000D01*
X145589197Y-64927522D01*
X145286000Y-65130113D01*
X145286000Y-65073833D01*
X145295913Y-65023999D01*
X145276722Y-64927522D01*
X145256641Y-64826569D01*
X145144806Y-64659194D01*
X145102555Y-64630963D01*
X144665038Y-64193447D01*
X144636806Y-64151194D01*
X144469431Y-64039359D01*
X144321835Y-64010000D01*
X144321834Y-64010000D01*
X144272000Y-64000087D01*
X144222166Y-64010000D01*
X142543833Y-64010000D01*
X142493999Y-64000087D01*
X142444165Y-64010000D01*
X142296569Y-64039359D01*
X142129194Y-64151194D01*
X142100963Y-64193445D01*
X141377491Y-64916918D01*
X141086318Y-64859000D01*
X140853682Y-64859000D01*
X140509197Y-64927522D01*
X140118547Y-65188547D01*
X139857522Y-65579197D01*
X139765863Y-66040000D01*
X139857522Y-66500803D01*
X140118547Y-66891453D01*
X140509197Y-67152478D01*
X140853682Y-67221000D01*
X141086318Y-67221000D01*
X141430803Y-67152478D01*
X141821453Y-66891453D01*
X142082478Y-66500803D01*
X142174137Y-66040000D01*
X142093082Y-65632509D01*
X142703592Y-65022000D01*
X142907801Y-65022000D01*
X142658547Y-65188547D01*
X142397522Y-65579197D01*
X142305863Y-66040000D01*
X142397522Y-66500803D01*
X142658547Y-66891453D01*
X143004001Y-67122279D01*
X143004000Y-93770408D01*
X137610012Y-99164397D01*
X137281239Y-99099000D01*
X137038761Y-99099000D01*
X136679688Y-99170424D01*
X136272499Y-99442499D01*
X136000424Y-99849688D01*
X135904884Y-100330000D01*
X136000424Y-100810312D01*
X136272499Y-101217501D01*
X136679688Y-101489576D01*
X137038761Y-101561000D01*
X137281239Y-101561000D01*
X137640312Y-101489576D01*
X138047501Y-101217501D01*
X138319576Y-100810312D01*
X138415116Y-100330000D01*
X138325603Y-99879988D01*
X138461536Y-99744055D01*
X138461536Y-101180000D01*
X138491106Y-101328659D01*
X138575314Y-101454686D01*
X138701341Y-101538894D01*
X138850000Y-101568464D01*
X140030947Y-101568464D01*
X139870411Y-101729000D01*
X135532511Y-101729000D01*
X135215872Y-101412361D01*
X135507501Y-101217501D01*
X135779576Y-100810312D01*
X135875116Y-100330000D01*
X135779576Y-99849688D01*
X135507501Y-99442499D01*
X135100312Y-99170424D01*
X134741239Y-99099000D01*
X134498761Y-99099000D01*
X134139688Y-99170424D01*
X133732499Y-99442499D01*
X133460424Y-99849688D01*
X133364884Y-100330000D01*
X133335116Y-100330000D01*
X133239576Y-99849688D01*
X132967501Y-99442499D01*
X132691918Y-99258360D01*
X136123561Y-95826533D01*
X136165806Y-95798306D01*
X136194041Y-95756049D01*
X136194043Y-95756047D01*
X136211427Y-95730029D01*
X136277641Y-95630931D01*
X136277642Y-95630925D01*
X136277646Y-95630919D01*
X136297732Y-95529926D01*
X136307000Y-95483335D01*
X136307000Y-95483329D01*
X136316913Y-95433487D01*
X136307000Y-95383659D01*
X136307000Y-78380554D01*
X136679688Y-78629576D01*
X137038761Y-78701000D01*
X137281239Y-78701000D01*
X137640312Y-78629576D01*
X138047501Y-78357501D01*
X138319576Y-77950312D01*
X138415116Y-77470000D01*
X138444884Y-77470000D01*
X138540424Y-77950312D01*
X138812499Y-78357501D01*
X139219688Y-78629576D01*
X139578761Y-78701000D01*
X139821239Y-78701000D01*
X140180312Y-78629576D01*
X140587501Y-78357501D01*
X140859576Y-77950312D01*
X140955116Y-77470000D01*
X140859576Y-76989688D01*
X140587501Y-76582499D01*
X140180312Y-76310424D01*
X139821239Y-76239000D01*
X139578761Y-76239000D01*
X139219688Y-76310424D01*
X138812499Y-76582499D01*
X138540424Y-76989688D01*
X138444884Y-77470000D01*
X138415116Y-77470000D01*
X138319576Y-76989688D01*
X138047501Y-76582499D01*
X137640312Y-76310424D01*
X137281239Y-76239000D01*
X137038761Y-76239000D01*
X136679688Y-76310424D01*
X136307000Y-76559446D01*
X136307000Y-68646353D01*
X136316913Y-68596536D01*
X136307000Y-68546683D01*
X136307000Y-68546665D01*
X136296660Y-68494681D01*
X136277654Y-68399101D01*
X136277645Y-68399087D01*
X136277641Y-68399069D01*
X136217997Y-68309805D01*
X136194057Y-68273970D01*
X136194047Y-68273960D01*
X136165806Y-68231694D01*
X136123570Y-68203473D01*
X134975830Y-67055574D01*
X135221453Y-66891453D01*
X135482478Y-66500803D01*
X135574137Y-66040000D01*
X135705863Y-66040000D01*
X135797522Y-66500803D01*
X136058547Y-66891453D01*
X136449197Y-67152478D01*
X136793682Y-67221000D01*
X137026318Y-67221000D01*
X137370803Y-67152478D01*
X137761453Y-66891453D01*
X138022478Y-66500803D01*
X138114137Y-66040000D01*
X138022478Y-65579197D01*
X137761453Y-65188547D01*
X137370803Y-64927522D01*
X137026318Y-64859000D01*
X136793682Y-64859000D01*
X136449197Y-64927522D01*
X136058547Y-65188547D01*
X135797522Y-65579197D01*
X135705863Y-66040000D01*
X135574137Y-66040000D01*
X135482478Y-65579197D01*
X135221453Y-65188547D01*
X134830803Y-64927522D01*
X134486318Y-64859000D01*
X134253682Y-64859000D01*
X133909197Y-64927522D01*
X133518547Y-65188547D01*
X133257522Y-65579197D01*
X133165863Y-66040000D01*
X133257522Y-66500803D01*
X133518547Y-66891453D01*
X133862800Y-67121477D01*
X133854087Y-67165264D01*
X133864000Y-67215116D01*
X133864000Y-67215134D01*
X133874359Y-67267211D01*
X133893346Y-67362697D01*
X133893355Y-67362711D01*
X133893359Y-67362730D01*
X133956475Y-67457192D01*
X133976943Y-67487829D01*
X133976952Y-67487838D01*
X134005194Y-67530106D01*
X134047433Y-67558329D01*
X135295001Y-68806072D01*
X135295001Y-76440511D01*
X135128975Y-76329576D01*
X135135913Y-76294699D01*
X135123349Y-76231536D01*
X135096641Y-76097269D01*
X134984806Y-75929894D01*
X134942555Y-75901663D01*
X129796000Y-70755109D01*
X129796000Y-67122278D01*
X130141453Y-66891453D01*
X130402478Y-66500803D01*
X130494137Y-66040000D01*
X130625863Y-66040000D01*
X130717522Y-66500803D01*
X130978547Y-66891453D01*
X131369197Y-67152478D01*
X131713682Y-67221000D01*
X131946318Y-67221000D01*
X132290803Y-67152478D01*
X132681453Y-66891453D01*
X132942478Y-66500803D01*
X133034137Y-66040000D01*
X132942478Y-65579197D01*
X132681453Y-65188547D01*
X132290803Y-64927522D01*
X131946318Y-64859000D01*
X131713682Y-64859000D01*
X131369197Y-64927522D01*
X130978547Y-65188547D01*
X130717522Y-65579197D01*
X130625863Y-66040000D01*
X130494137Y-66040000D01*
X130402478Y-65579197D01*
X130141453Y-65188547D01*
X129750803Y-64927522D01*
X129406318Y-64859000D01*
X129173682Y-64859000D01*
X128829197Y-64927522D01*
X128438547Y-65188547D01*
X128177522Y-65579197D01*
X128085863Y-66040000D01*
X128177522Y-66500803D01*
X128438547Y-66891453D01*
X128784001Y-67122279D01*
X128784000Y-70914866D01*
X128774087Y-70964700D01*
X128784000Y-71014534D01*
X128813359Y-71162130D01*
X128925194Y-71329506D01*
X128967448Y-71357739D01*
X134008074Y-76398366D01*
X133732499Y-76582499D01*
X133460424Y-76989688D01*
X133364884Y-77470000D01*
X133460424Y-77950312D01*
X133732499Y-78357501D01*
X134139688Y-78629576D01*
X134498761Y-78701000D01*
X134741239Y-78701000D01*
X135100312Y-78629576D01*
X135295001Y-78499489D01*
X135295000Y-95223917D01*
X131757440Y-98761667D01*
X131715195Y-98789894D01*
X131686960Y-98832151D01*
X131686957Y-98832154D01*
X131662293Y-98869069D01*
X131603360Y-98957269D01*
X131603359Y-98957275D01*
X131603354Y-98957282D01*
X131564087Y-99154713D01*
X131571023Y-99189577D01*
X131192499Y-99442499D01*
X130920424Y-99849688D01*
X130824884Y-100330000D01*
X130920424Y-100810312D01*
X131192499Y-101217501D01*
X131574001Y-101472412D01*
X131574000Y-103431536D01*
X131447500Y-103431536D01*
X131242395Y-103472334D01*
X131110000Y-103560797D01*
X130977605Y-103472334D01*
X130772500Y-103431536D01*
X130477500Y-103431536D01*
X130272395Y-103472334D01*
X130098516Y-103588516D01*
X129982334Y-103762395D01*
X129941536Y-103967500D01*
X129941536Y-104312500D01*
X129982334Y-104517605D01*
X130098516Y-104691484D01*
X130119000Y-104705171D01*
X130119001Y-110610407D01*
X127947448Y-112781961D01*
X127905194Y-112810194D01*
X127793359Y-112977570D01*
X127772117Y-113084359D01*
X127754087Y-113175000D01*
X127762751Y-113218556D01*
X127418547Y-113448547D01*
X127157522Y-113839197D01*
X127065863Y-114300000D01*
X127157522Y-114760803D01*
X127418547Y-115151453D01*
X127480726Y-115193000D01*
X126519274Y-115193000D01*
X126581453Y-115151453D01*
X126842478Y-114760803D01*
X126934137Y-114300000D01*
X126842478Y-113839197D01*
X126581453Y-113448547D01*
X126190803Y-113187522D01*
X125846318Y-113119000D01*
X125613682Y-113119000D01*
X125269197Y-113187522D01*
X124878547Y-113448547D01*
X124617522Y-113839197D01*
X124525863Y-114300000D01*
X124617522Y-114760803D01*
X124878547Y-115151453D01*
X124940726Y-115193000D01*
X124359965Y-115193000D01*
X124378464Y-115100000D01*
X124378464Y-113500000D01*
X124348894Y-113351341D01*
X124264686Y-113225314D01*
X124138659Y-113141106D01*
X123990000Y-113111536D01*
X122390000Y-113111536D01*
X122241341Y-113141106D01*
X122115314Y-113225314D01*
X122031106Y-113351341D01*
X122001536Y-113500000D01*
X122001536Y-115100000D01*
X122020035Y-115193000D01*
X121927369Y-115193000D01*
X121281000Y-114546632D01*
X121281000Y-100686892D01*
X123018514Y-100686892D01*
X123264817Y-101211358D01*
X123693076Y-101601645D01*
X124103110Y-101771476D01*
X124333000Y-101650155D01*
X124333000Y-100457000D01*
X123139181Y-100457000D01*
X123018514Y-100686892D01*
X121281000Y-100686892D01*
X121281000Y-99973108D01*
X123018514Y-99973108D01*
X123139181Y-100203000D01*
X124333000Y-100203000D01*
X124333000Y-99009845D01*
X124587000Y-99009845D01*
X124587000Y-100203000D01*
X124607000Y-100203000D01*
X124607000Y-100457000D01*
X124587000Y-100457000D01*
X124587000Y-101650155D01*
X124816890Y-101771476D01*
X125226924Y-101601645D01*
X125655183Y-101211358D01*
X125842245Y-100813037D01*
X126112499Y-101217501D01*
X126519688Y-101489576D01*
X126878761Y-101561000D01*
X127121239Y-101561000D01*
X127480312Y-101489576D01*
X127887501Y-101217501D01*
X128159576Y-100810312D01*
X128255116Y-100330000D01*
X128284884Y-100330000D01*
X128380424Y-100810312D01*
X128652499Y-101217501D01*
X129059688Y-101489576D01*
X129418761Y-101561000D01*
X129661239Y-101561000D01*
X130020312Y-101489576D01*
X130427501Y-101217501D01*
X130699576Y-100810312D01*
X130795116Y-100330000D01*
X130699576Y-99849688D01*
X130427501Y-99442499D01*
X130020312Y-99170424D01*
X129661239Y-99099000D01*
X129418761Y-99099000D01*
X129059688Y-99170424D01*
X128652499Y-99442499D01*
X128380424Y-99849688D01*
X128284884Y-100330000D01*
X128255116Y-100330000D01*
X128159576Y-99849688D01*
X127887501Y-99442499D01*
X127480312Y-99170424D01*
X127121239Y-99099000D01*
X126878761Y-99099000D01*
X126519688Y-99170424D01*
X126112499Y-99442499D01*
X125842245Y-99846963D01*
X125655183Y-99448642D01*
X125226924Y-99058355D01*
X124816890Y-98888524D01*
X124587000Y-99009845D01*
X124333000Y-99009845D01*
X124103110Y-98888524D01*
X123693076Y-99058355D01*
X123264817Y-99448642D01*
X123018514Y-99973108D01*
X121281000Y-99973108D01*
X121281000Y-84081368D01*
X122943369Y-82419000D01*
X125413852Y-82419000D01*
X125476000Y-82431362D01*
X125538148Y-82419000D01*
X125722204Y-82382389D01*
X125930926Y-82242926D01*
X125966132Y-82190236D01*
X127402239Y-80754130D01*
X127454926Y-80718926D01*
X127594389Y-80510204D01*
X127631000Y-80326148D01*
X127631000Y-80326147D01*
X127643362Y-80264001D01*
X127631000Y-80201854D01*
X127631000Y-78528889D01*
X127887501Y-78357501D01*
X128159576Y-77950312D01*
X128255116Y-77470000D01*
X128159576Y-76989688D01*
X127887501Y-76582499D01*
X127480312Y-76310424D01*
X127121239Y-76239000D01*
X126878761Y-76239000D01*
X126519688Y-76310424D01*
X126112499Y-76582499D01*
X125840424Y-76989688D01*
X125744884Y-77470000D01*
X125840424Y-77950312D01*
X126112499Y-78357501D01*
X126369001Y-78528890D01*
X126369000Y-80002631D01*
X125214632Y-81157000D01*
X122744148Y-81157000D01*
X122682000Y-81144638D01*
X122619852Y-81157000D01*
X122435796Y-81193611D01*
X122227074Y-81333074D01*
X122191870Y-81385761D01*
X120247762Y-83329870D01*
X120195075Y-83365074D01*
X120159871Y-83417761D01*
X120055611Y-83573797D01*
X120006638Y-83820000D01*
X120019001Y-83882153D01*
X120019000Y-114745852D01*
X120006638Y-114808000D01*
X120019000Y-114870147D01*
X120055611Y-115054203D01*
X120195074Y-115262926D01*
X120247764Y-115298132D01*
X121175869Y-116226238D01*
X121211074Y-116278926D01*
X121330914Y-116359000D01*
X120849236Y-116359000D01*
X119861000Y-115370764D01*
X119861000Y-76620000D01*
X123221536Y-76620000D01*
X123221536Y-78320000D01*
X123251106Y-78468659D01*
X123335314Y-78594686D01*
X123461341Y-78678894D01*
X123610000Y-78708464D01*
X125310000Y-78708464D01*
X125458659Y-78678894D01*
X125584686Y-78594686D01*
X125668894Y-78468659D01*
X125698464Y-78320000D01*
X125698464Y-76620000D01*
X125668894Y-76471341D01*
X125584686Y-76345314D01*
X125458659Y-76261106D01*
X125310000Y-76231536D01*
X123610000Y-76231536D01*
X123461341Y-76261106D01*
X123335314Y-76345314D01*
X123251106Y-76471341D01*
X123221536Y-76620000D01*
X119861000Y-76620000D01*
X119861000Y-68627373D01*
X119870423Y-68580000D01*
X119833092Y-68392323D01*
X119726781Y-68233219D01*
X119567677Y-68126908D01*
X119427373Y-68099000D01*
X119380000Y-68089577D01*
X119332627Y-68099000D01*
X113229236Y-68099000D01*
X112241000Y-67110764D01*
X112241000Y-66040000D01*
X112845863Y-66040000D01*
X112937522Y-66500803D01*
X113198547Y-66891453D01*
X113589197Y-67152478D01*
X113933682Y-67221000D01*
X114166318Y-67221000D01*
X114510803Y-67152478D01*
X114901453Y-66891453D01*
X115162478Y-66500803D01*
X115254137Y-66040000D01*
X115385863Y-66040000D01*
X115477522Y-66500803D01*
X115738547Y-66891453D01*
X116129197Y-67152478D01*
X116473682Y-67221000D01*
X116706318Y-67221000D01*
X117050803Y-67152478D01*
X117441453Y-66891453D01*
X117702478Y-66500803D01*
X117794137Y-66040000D01*
X117925863Y-66040000D01*
X118017522Y-66500803D01*
X118278547Y-66891453D01*
X118669197Y-67152478D01*
X119013682Y-67221000D01*
X119246318Y-67221000D01*
X119590803Y-67152478D01*
X119981453Y-66891453D01*
X120242478Y-66500803D01*
X120308875Y-66167002D01*
X120399370Y-66167002D01*
X120278086Y-66389041D01*
X120517611Y-66895134D01*
X120932577Y-67271041D01*
X121320961Y-67431904D01*
X121543000Y-67309915D01*
X121543000Y-66167000D01*
X121523000Y-66167000D01*
X121523000Y-65913000D01*
X121543000Y-65913000D01*
X121543000Y-64770085D01*
X121797000Y-64770085D01*
X121797000Y-65913000D01*
X121817000Y-65913000D01*
X121817000Y-66167000D01*
X121797000Y-66167000D01*
X121797000Y-67309915D01*
X122019039Y-67431904D01*
X122407423Y-67271041D01*
X122822389Y-66895134D01*
X123061914Y-66389041D01*
X122940630Y-66167002D01*
X123031125Y-66167002D01*
X123097522Y-66500803D01*
X123358547Y-66891453D01*
X123704001Y-67122279D01*
X123704000Y-70914866D01*
X123694087Y-70964700D01*
X123704000Y-71014534D01*
X123733359Y-71162130D01*
X123845194Y-71329506D01*
X123887448Y-71357739D01*
X128928074Y-76398366D01*
X128652499Y-76582499D01*
X128380424Y-76989688D01*
X128284884Y-77470000D01*
X128380424Y-77950312D01*
X128652499Y-78357501D01*
X129059688Y-78629576D01*
X129418761Y-78701000D01*
X129661239Y-78701000D01*
X130020312Y-78629576D01*
X130427501Y-78357501D01*
X130699576Y-77950312D01*
X130795116Y-77470000D01*
X130699576Y-76989688D01*
X130427501Y-76582499D01*
X130048975Y-76329576D01*
X130055913Y-76294699D01*
X130043349Y-76231536D01*
X130016641Y-76097269D01*
X129904806Y-75929894D01*
X129862555Y-75901663D01*
X124716000Y-70755109D01*
X124716000Y-67122278D01*
X125061453Y-66891453D01*
X125322478Y-66500803D01*
X125414137Y-66040000D01*
X125545863Y-66040000D01*
X125637522Y-66500803D01*
X125898547Y-66891453D01*
X126244001Y-67122279D01*
X126244000Y-70914866D01*
X126234087Y-70964700D01*
X126244000Y-71014534D01*
X126273359Y-71162130D01*
X126385194Y-71329506D01*
X126427448Y-71357739D01*
X131468074Y-76398366D01*
X131192499Y-76582499D01*
X130920424Y-76989688D01*
X130824884Y-77470000D01*
X130920424Y-77950312D01*
X131192499Y-78357501D01*
X131599688Y-78629576D01*
X131958761Y-78701000D01*
X132201239Y-78701000D01*
X132560312Y-78629576D01*
X132967501Y-78357501D01*
X133239576Y-77950312D01*
X133335116Y-77470000D01*
X133239576Y-76989688D01*
X132967501Y-76582499D01*
X132588975Y-76329576D01*
X132595913Y-76294699D01*
X132583349Y-76231536D01*
X132556641Y-76097269D01*
X132444806Y-75929894D01*
X132402555Y-75901663D01*
X127256000Y-70755109D01*
X127256000Y-67122278D01*
X127601453Y-66891453D01*
X127862478Y-66500803D01*
X127954137Y-66040000D01*
X127862478Y-65579197D01*
X127601453Y-65188547D01*
X127210803Y-64927522D01*
X126866318Y-64859000D01*
X126633682Y-64859000D01*
X126289197Y-64927522D01*
X125898547Y-65188547D01*
X125637522Y-65579197D01*
X125545863Y-66040000D01*
X125414137Y-66040000D01*
X125322478Y-65579197D01*
X125061453Y-65188547D01*
X124670803Y-64927522D01*
X124326318Y-64859000D01*
X124093682Y-64859000D01*
X123749197Y-64927522D01*
X123358547Y-65188547D01*
X123097522Y-65579197D01*
X123031125Y-65912998D01*
X122940630Y-65912998D01*
X123061914Y-65690959D01*
X122822389Y-65184866D01*
X122407423Y-64808959D01*
X122019039Y-64648096D01*
X121797000Y-64770085D01*
X121543000Y-64770085D01*
X121320961Y-64648096D01*
X120932577Y-64808959D01*
X120517611Y-65184866D01*
X120278086Y-65690959D01*
X120399370Y-65912998D01*
X120308875Y-65912998D01*
X120242478Y-65579197D01*
X119981453Y-65188547D01*
X119590803Y-64927522D01*
X119246318Y-64859000D01*
X119013682Y-64859000D01*
X118669197Y-64927522D01*
X118278547Y-65188547D01*
X118017522Y-65579197D01*
X117925863Y-66040000D01*
X117794137Y-66040000D01*
X117702478Y-65579197D01*
X117441453Y-65188547D01*
X117050803Y-64927522D01*
X116706318Y-64859000D01*
X116473682Y-64859000D01*
X116129197Y-64927522D01*
X115738547Y-65188547D01*
X115477522Y-65579197D01*
X115385863Y-66040000D01*
X115254137Y-66040000D01*
X115162478Y-65579197D01*
X114901453Y-65188547D01*
X114510803Y-64927522D01*
X114166318Y-64859000D01*
X113933682Y-64859000D01*
X113589197Y-64927522D01*
X113198547Y-65188547D01*
X112937522Y-65579197D01*
X112845863Y-66040000D01*
X112241000Y-66040000D01*
X112241000Y-64969236D01*
X113229236Y-63981000D01*
X159820764Y-63981000D01*
X160809001Y-64969237D01*
X160809001Y-64969237D01*
G37*
X160809001Y-64969237D02*
X160809000Y-76152631D01*
X160799578Y-76200000D01*
X160809000Y-76247369D01*
X160809000Y-76247372D01*
X160836908Y-76387676D01*
X160943219Y-76546781D01*
X160983380Y-76573616D01*
X163349001Y-78939237D01*
X163349000Y-111560764D01*
X160983378Y-113926386D01*
X160943220Y-113953219D01*
X160916387Y-113993377D01*
X160916384Y-113993380D01*
X160836908Y-114112324D01*
X160799578Y-114300000D01*
X160809001Y-114347374D01*
X160809000Y-116359000D01*
X129621086Y-116359000D01*
X129740926Y-116278926D01*
X129776132Y-116226236D01*
X130549957Y-115452411D01*
X130693682Y-115481000D01*
X130926318Y-115481000D01*
X131270803Y-115412478D01*
X131661453Y-115151453D01*
X131922478Y-114760803D01*
X132014137Y-114300000D01*
X132145863Y-114300000D01*
X132237522Y-114760803D01*
X132498547Y-115151453D01*
X132889197Y-115412478D01*
X133233682Y-115481000D01*
X133466318Y-115481000D01*
X133810803Y-115412478D01*
X134201453Y-115151453D01*
X134462478Y-114760803D01*
X134528875Y-114427002D01*
X134619370Y-114427002D01*
X134498086Y-114649041D01*
X134737611Y-115155134D01*
X135152577Y-115531041D01*
X135540961Y-115691904D01*
X135763000Y-115569915D01*
X135763000Y-114427000D01*
X136017000Y-114427000D01*
X136017000Y-115569915D01*
X136239039Y-115691904D01*
X136627423Y-115531041D01*
X137042389Y-115155134D01*
X137160000Y-114906633D01*
X137277611Y-115155134D01*
X137692577Y-115531041D01*
X138080961Y-115691904D01*
X138303000Y-115569915D01*
X138303000Y-114427000D01*
X136017000Y-114427000D01*
X135763000Y-114427000D01*
X135743000Y-114427000D01*
X135743000Y-114173000D01*
X135763000Y-114173000D01*
X135763000Y-113030085D01*
X136017000Y-113030085D01*
X136017000Y-114173000D01*
X138303000Y-114173000D01*
X138303000Y-113030085D01*
X138557000Y-113030085D01*
X138557000Y-114173000D01*
X138577000Y-114173000D01*
X138577000Y-114427000D01*
X138557000Y-114427000D01*
X138557000Y-115569915D01*
X138779039Y-115691904D01*
X139167423Y-115531041D01*
X139582389Y-115155134D01*
X139821914Y-114649041D01*
X139700630Y-114427002D01*
X139791125Y-114427002D01*
X139857522Y-114760803D01*
X140118547Y-115151453D01*
X140509197Y-115412478D01*
X140853682Y-115481000D01*
X141086318Y-115481000D01*
X141430803Y-115412478D01*
X141821453Y-115151453D01*
X142082478Y-114760803D01*
X142174137Y-114300000D01*
X142082478Y-113839197D01*
X141821453Y-113448547D01*
X141430803Y-113187522D01*
X141086318Y-113119000D01*
X140853682Y-113119000D01*
X140509197Y-113187522D01*
X140118547Y-113448547D01*
X139857522Y-113839197D01*
X139791125Y-114172998D01*
X139700630Y-114172998D01*
X139821914Y-113950959D01*
X139582389Y-113444866D01*
X139167423Y-113068959D01*
X138779039Y-112908096D01*
X138557000Y-113030085D01*
X138303000Y-113030085D01*
X138080961Y-112908096D01*
X137692577Y-113068959D01*
X137277611Y-113444866D01*
X137160000Y-113693367D01*
X137042389Y-113444866D01*
X136627423Y-113068959D01*
X136239039Y-112908096D01*
X136017000Y-113030085D01*
X135763000Y-113030085D01*
X135540961Y-112908096D01*
X135152577Y-113068959D01*
X134737611Y-113444866D01*
X134498086Y-113950959D01*
X134619370Y-114172998D01*
X134528875Y-114172998D01*
X134462478Y-113839197D01*
X134201453Y-113448547D01*
X133810803Y-113187522D01*
X133466318Y-113119000D01*
X133233682Y-113119000D01*
X132889197Y-113187522D01*
X132498547Y-113448547D01*
X132237522Y-113839197D01*
X132145863Y-114300000D01*
X132014137Y-114300000D01*
X131922478Y-113839197D01*
X131661453Y-113448547D01*
X131270803Y-113187522D01*
X130926318Y-113119000D01*
X130693682Y-113119000D01*
X130349197Y-113187522D01*
X129958547Y-113448547D01*
X129697522Y-113839197D01*
X129605863Y-114300000D01*
X129657589Y-114560043D01*
X129232758Y-114984873D01*
X129382478Y-114760803D01*
X129474137Y-114300000D01*
X129382478Y-113839197D01*
X129121453Y-113448547D01*
X128876031Y-113284560D01*
X130947555Y-111213037D01*
X130989806Y-111184806D01*
X131101641Y-111017431D01*
X131131000Y-110869835D01*
X131131000Y-110869834D01*
X131140913Y-110820000D01*
X131131000Y-110770166D01*
X131131000Y-104862081D01*
X144400888Y-104862081D01*
X144400888Y-105190140D01*
X144497561Y-105423529D01*
X144676189Y-105602158D01*
X144909578Y-105698831D01*
X144924946Y-105698831D01*
X144832595Y-105760538D01*
X144695548Y-105965643D01*
X144647424Y-106207581D01*
X144647424Y-106695081D01*
X144695548Y-106937019D01*
X144832595Y-107142124D01*
X145037700Y-107279171D01*
X145279638Y-107327295D01*
X145714889Y-107327295D01*
X145714888Y-108730597D01*
X145603493Y-108656165D01*
X145398388Y-108615367D01*
X145103388Y-108615367D01*
X144898283Y-108656165D01*
X144724404Y-108772347D01*
X144608222Y-108946226D01*
X144567424Y-109151331D01*
X144567424Y-109496331D01*
X144608222Y-109701436D01*
X144724404Y-109875315D01*
X144744889Y-109889003D01*
X144744888Y-112319684D01*
X144734975Y-112369518D01*
X144744888Y-112419352D01*
X144774247Y-112566948D01*
X144886082Y-112734324D01*
X144928335Y-112762556D01*
X145447787Y-113282009D01*
X145198547Y-113448547D01*
X144937522Y-113839197D01*
X144845863Y-114300000D01*
X144937522Y-114760803D01*
X145198547Y-115151453D01*
X145589197Y-115412478D01*
X145933682Y-115481000D01*
X146166318Y-115481000D01*
X146510803Y-115412478D01*
X146901453Y-115151453D01*
X147162478Y-114760803D01*
X147254137Y-114300000D01*
X147385863Y-114300000D01*
X147477522Y-114760803D01*
X147738547Y-115151453D01*
X148129197Y-115412478D01*
X148473682Y-115481000D01*
X148706318Y-115481000D01*
X149050803Y-115412478D01*
X149441453Y-115151453D01*
X149702478Y-114760803D01*
X149794137Y-114300000D01*
X149925863Y-114300000D01*
X150017522Y-114760803D01*
X150278547Y-115151453D01*
X150669197Y-115412478D01*
X151013682Y-115481000D01*
X151246318Y-115481000D01*
X151590803Y-115412478D01*
X151981453Y-115151453D01*
X152242478Y-114760803D01*
X152334137Y-114300000D01*
X152465863Y-114300000D01*
X152557522Y-114760803D01*
X152818547Y-115151453D01*
X153209197Y-115412478D01*
X153553682Y-115481000D01*
X153786318Y-115481000D01*
X154130803Y-115412478D01*
X154521453Y-115151453D01*
X154782478Y-114760803D01*
X154874137Y-114300000D01*
X155005863Y-114300000D01*
X155097522Y-114760803D01*
X155358547Y-115151453D01*
X155749197Y-115412478D01*
X156093682Y-115481000D01*
X156326318Y-115481000D01*
X156670803Y-115412478D01*
X157061453Y-115151453D01*
X157322478Y-114760803D01*
X157414137Y-114300000D01*
X157545863Y-114300000D01*
X157637522Y-114760803D01*
X157898547Y-115151453D01*
X158289197Y-115412478D01*
X158633682Y-115481000D01*
X158866318Y-115481000D01*
X159210803Y-115412478D01*
X159601453Y-115151453D01*
X159862478Y-114760803D01*
X159954137Y-114300000D01*
X159862478Y-113839197D01*
X159601453Y-113448547D01*
X159210803Y-113187522D01*
X158866318Y-113119000D01*
X158633682Y-113119000D01*
X158289197Y-113187522D01*
X157898547Y-113448547D01*
X157637522Y-113839197D01*
X157545863Y-114300000D01*
X157414137Y-114300000D01*
X157322478Y-113839197D01*
X157061453Y-113448547D01*
X156670803Y-113187522D01*
X156326318Y-113119000D01*
X156093682Y-113119000D01*
X155749197Y-113187522D01*
X155358547Y-113448547D01*
X155097522Y-113839197D01*
X155005863Y-114300000D01*
X154874137Y-114300000D01*
X154782478Y-113839197D01*
X154521453Y-113448547D01*
X154130803Y-113187522D01*
X153786318Y-113119000D01*
X153553682Y-113119000D01*
X153209197Y-113187522D01*
X152818547Y-113448547D01*
X152557522Y-113839197D01*
X152465863Y-114300000D01*
X152334137Y-114300000D01*
X152242478Y-113839197D01*
X151981453Y-113448547D01*
X151967420Y-113439171D01*
X155224128Y-110182464D01*
X155364500Y-110182464D01*
X155569605Y-110141666D01*
X155702000Y-110053203D01*
X155834395Y-110141666D01*
X156039500Y-110182464D01*
X156334500Y-110182464D01*
X156539605Y-110141666D01*
X156713484Y-110025484D01*
X156829666Y-109851605D01*
X156870464Y-109646500D01*
X156870464Y-109301500D01*
X156829666Y-109096395D01*
X156713484Y-108922516D01*
X156693000Y-108908829D01*
X156693000Y-107723835D01*
X156702913Y-107674000D01*
X156663641Y-107476569D01*
X156632084Y-107429340D01*
X156560508Y-107322217D01*
X156605293Y-107292293D01*
X156742340Y-107087188D01*
X156790464Y-106845250D01*
X156790464Y-106357750D01*
X156742340Y-106115812D01*
X156605293Y-105910707D01*
X156512942Y-105849000D01*
X156528310Y-105849000D01*
X156761699Y-105752327D01*
X156940327Y-105573698D01*
X157037000Y-105340309D01*
X157037000Y-105012250D01*
X156878250Y-104853500D01*
X155829000Y-104853500D01*
X155829000Y-104873500D01*
X155575000Y-104873500D01*
X155575000Y-104853500D01*
X154525750Y-104853500D01*
X154367000Y-105012250D01*
X154367000Y-105340309D01*
X154463673Y-105573698D01*
X154642301Y-105752327D01*
X154875690Y-105849000D01*
X154891058Y-105849000D01*
X154798707Y-105910707D01*
X154661660Y-106115812D01*
X154613536Y-106357750D01*
X154613536Y-106845250D01*
X154661660Y-107087188D01*
X154798707Y-107292293D01*
X155003812Y-107429340D01*
X155245750Y-107477464D01*
X155286186Y-107477464D01*
X155337195Y-107553806D01*
X155379445Y-107582036D01*
X155681000Y-107883592D01*
X155681001Y-108880766D01*
X155569605Y-108806334D01*
X155364500Y-108765536D01*
X155069500Y-108765536D01*
X154864395Y-108806334D01*
X154690516Y-108922516D01*
X154574334Y-109096395D01*
X154533536Y-109301500D01*
X154533536Y-109441872D01*
X150817358Y-113158051D01*
X150669197Y-113187522D01*
X150278547Y-113448547D01*
X150017522Y-113839197D01*
X149925863Y-114300000D01*
X149794137Y-114300000D01*
X149713082Y-113892509D01*
X150534563Y-113071029D01*
X150576814Y-113042798D01*
X150681962Y-112885431D01*
X150688649Y-112875424D01*
X150727921Y-112677992D01*
X150718008Y-112628157D01*
X150718008Y-109983277D01*
X150829403Y-110057709D01*
X151034508Y-110098507D01*
X151329508Y-110098507D01*
X151534613Y-110057709D01*
X151708492Y-109941527D01*
X151824674Y-109767648D01*
X151865472Y-109562543D01*
X151865472Y-109217543D01*
X151824674Y-109012438D01*
X151708492Y-108838559D01*
X151688008Y-108824872D01*
X151688008Y-107077073D01*
X151737348Y-107003231D01*
X151785472Y-106761293D01*
X151785472Y-106273793D01*
X151737348Y-106031855D01*
X151600301Y-105826750D01*
X151507950Y-105765043D01*
X151523318Y-105765043D01*
X151756707Y-105668370D01*
X151935335Y-105489741D01*
X152032008Y-105256352D01*
X152032008Y-104928293D01*
X151873258Y-104769543D01*
X150824008Y-104769543D01*
X150824008Y-104789543D01*
X150570008Y-104789543D01*
X150570008Y-104769543D01*
X149520758Y-104769543D01*
X149362008Y-104928293D01*
X149362008Y-105256352D01*
X149458681Y-105489741D01*
X149637309Y-105668370D01*
X149870698Y-105765043D01*
X149886066Y-105765043D01*
X149793715Y-105826750D01*
X149656668Y-106031855D01*
X149608544Y-106273793D01*
X149608544Y-106761293D01*
X149656668Y-107003231D01*
X149793715Y-107208336D01*
X149998820Y-107345383D01*
X150240758Y-107393507D01*
X150676009Y-107393507D01*
X150676008Y-108796809D01*
X150564613Y-108722377D01*
X150359508Y-108681579D01*
X150064508Y-108681579D01*
X149859403Y-108722377D01*
X149685524Y-108838559D01*
X149569342Y-109012438D01*
X149528544Y-109217543D01*
X149528544Y-109562543D01*
X149569342Y-109767648D01*
X149685524Y-109941527D01*
X149706008Y-109955214D01*
X149706009Y-112468399D01*
X148997491Y-113176918D01*
X148706318Y-113119000D01*
X148473682Y-113119000D01*
X148129197Y-113187522D01*
X147738547Y-113448547D01*
X147477522Y-113839197D01*
X147385863Y-114300000D01*
X147254137Y-114300000D01*
X147162478Y-113839197D01*
X146901453Y-113448547D01*
X146556130Y-113217809D01*
X146565913Y-113168629D01*
X146527908Y-112977570D01*
X146526641Y-112971199D01*
X146414806Y-112803824D01*
X146372555Y-112775593D01*
X145756888Y-112159927D01*
X145756888Y-109917065D01*
X145868283Y-109991497D01*
X146073388Y-110032295D01*
X146368388Y-110032295D01*
X146573493Y-109991497D01*
X146747372Y-109875315D01*
X146863554Y-109701436D01*
X146904352Y-109496331D01*
X146904352Y-109151331D01*
X146863554Y-108946226D01*
X146747372Y-108772347D01*
X146726888Y-108758660D01*
X146726888Y-107010861D01*
X146776228Y-106937019D01*
X146824352Y-106695081D01*
X146824352Y-106207581D01*
X146776228Y-105965643D01*
X146639181Y-105760538D01*
X146546830Y-105698831D01*
X146562198Y-105698831D01*
X146795587Y-105602158D01*
X146974215Y-105423529D01*
X147070888Y-105190140D01*
X147070888Y-104862081D01*
X146912138Y-104703331D01*
X145862888Y-104703331D01*
X145862888Y-104723331D01*
X145608888Y-104723331D01*
X145608888Y-104703331D01*
X144559638Y-104703331D01*
X144400888Y-104862081D01*
X131131000Y-104862081D01*
X131131000Y-104733234D01*
X131242395Y-104807666D01*
X131447500Y-104848464D01*
X131742500Y-104848464D01*
X131947605Y-104807666D01*
X132121484Y-104691484D01*
X132237666Y-104517605D01*
X132278464Y-104312500D01*
X132278464Y-104172128D01*
X132402556Y-104048036D01*
X132444806Y-104019806D01*
X132483081Y-103962522D01*
X144400888Y-103962522D01*
X144400888Y-104290581D01*
X144559638Y-104449331D01*
X145608888Y-104449331D01*
X145608888Y-103612581D01*
X145862888Y-103612581D01*
X145862888Y-104449331D01*
X146912138Y-104449331D01*
X147070888Y-104290581D01*
X147070888Y-104028734D01*
X149362008Y-104028734D01*
X149362008Y-104356793D01*
X149520758Y-104515543D01*
X150570008Y-104515543D01*
X150570008Y-103678793D01*
X150824008Y-103678793D01*
X150824008Y-104515543D01*
X151873258Y-104515543D01*
X152032008Y-104356793D01*
X152032008Y-104112691D01*
X154367000Y-104112691D01*
X154367000Y-104440750D01*
X154525750Y-104599500D01*
X155575000Y-104599500D01*
X155575000Y-103762750D01*
X155829000Y-103762750D01*
X155829000Y-104599500D01*
X156878250Y-104599500D01*
X157037000Y-104440750D01*
X157037000Y-104112691D01*
X156940327Y-103879302D01*
X156761699Y-103700673D01*
X156528310Y-103604000D01*
X155987750Y-103604000D01*
X155829000Y-103762750D01*
X155575000Y-103762750D01*
X155416250Y-103604000D01*
X154875690Y-103604000D01*
X154642301Y-103700673D01*
X154463673Y-103879302D01*
X154367000Y-104112691D01*
X152032008Y-104112691D01*
X152032008Y-104028734D01*
X151935335Y-103795345D01*
X151756707Y-103616716D01*
X151523318Y-103520043D01*
X150982758Y-103520043D01*
X150824008Y-103678793D01*
X150570008Y-103678793D01*
X150411258Y-103520043D01*
X149870698Y-103520043D01*
X149637309Y-103616716D01*
X149458681Y-103795345D01*
X149362008Y-104028734D01*
X147070888Y-104028734D01*
X147070888Y-103962522D01*
X146974215Y-103729133D01*
X146795587Y-103550504D01*
X146562198Y-103453831D01*
X146021638Y-103453831D01*
X145862888Y-103612581D01*
X145608888Y-103612581D01*
X145450138Y-103453831D01*
X144909578Y-103453831D01*
X144676189Y-103550504D01*
X144497561Y-103729133D01*
X144400888Y-103962522D01*
X132483081Y-103962522D01*
X132556641Y-103852431D01*
X132574480Y-103762750D01*
X132595913Y-103655000D01*
X132586000Y-103605165D01*
X132586000Y-101472412D01*
X132967501Y-101217501D01*
X133239576Y-100810312D01*
X133335116Y-100330000D01*
X133364884Y-100330000D01*
X133460424Y-100810312D01*
X133732499Y-101217501D01*
X134114001Y-101472412D01*
X134114001Y-101482242D01*
X134104087Y-101532081D01*
X134143258Y-101729000D01*
X134143360Y-101729512D01*
X134255195Y-101896887D01*
X134297445Y-101925117D01*
X134929882Y-102557555D01*
X134958113Y-102599806D01*
X135125487Y-102711640D01*
X135125488Y-102711641D01*
X135322919Y-102750913D01*
X135372754Y-102741000D01*
X140030168Y-102741000D01*
X140080002Y-102750913D01*
X140129836Y-102741000D01*
X140129837Y-102741000D01*
X140277433Y-102711641D01*
X140444808Y-102599806D01*
X140473040Y-102557553D01*
X141292556Y-101738038D01*
X141334806Y-101709808D01*
X141446641Y-101542433D01*
X141476000Y-101394837D01*
X141476000Y-101394836D01*
X141485913Y-101345003D01*
X141476000Y-101295169D01*
X141476000Y-98002411D01*
X145102556Y-94375856D01*
X145144806Y-94347626D01*
X145220033Y-94235039D01*
X145256641Y-94180252D01*
X145295913Y-93982820D01*
X145286000Y-93932985D01*
X145286000Y-70270000D01*
X147351536Y-70270000D01*
X147351536Y-71970000D01*
X147381106Y-72118659D01*
X147465314Y-72244686D01*
X147591341Y-72328894D01*
X147740000Y-72358464D01*
X149440000Y-72358464D01*
X149588659Y-72328894D01*
X149714686Y-72244686D01*
X149798894Y-72118659D01*
X149828464Y-71970000D01*
X149828464Y-71120000D01*
X149874884Y-71120000D01*
X149970424Y-71600312D01*
X150242499Y-72007501D01*
X150649688Y-72279576D01*
X151008761Y-72351000D01*
X151251239Y-72351000D01*
X151610312Y-72279576D01*
X152017501Y-72007501D01*
X152287755Y-71603037D01*
X152474817Y-72001358D01*
X152903076Y-72391645D01*
X153313110Y-72561476D01*
X153543000Y-72440155D01*
X153543000Y-71247000D01*
X153523000Y-71247000D01*
X153523000Y-70993000D01*
X153543000Y-70993000D01*
X153543000Y-69799845D01*
X153797000Y-69799845D01*
X153797000Y-70993000D01*
X153817000Y-70993000D01*
X153817000Y-71247000D01*
X153797000Y-71247000D01*
X153797000Y-72440155D01*
X154026890Y-72561476D01*
X154436924Y-72391645D01*
X154865183Y-72001358D01*
X155052245Y-71603037D01*
X155322499Y-72007501D01*
X155729688Y-72279576D01*
X156088761Y-72351000D01*
X156331239Y-72351000D01*
X156690312Y-72279576D01*
X157097501Y-72007501D01*
X157369576Y-71600312D01*
X157465116Y-71120000D01*
X157369576Y-70639688D01*
X157097501Y-70232499D01*
X156690312Y-69960424D01*
X156331239Y-69889000D01*
X156088761Y-69889000D01*
X155729688Y-69960424D01*
X155322499Y-70232499D01*
X155052245Y-70636963D01*
X154865183Y-70238642D01*
X154436924Y-69848355D01*
X154026890Y-69678524D01*
X153797000Y-69799845D01*
X153543000Y-69799845D01*
X153313110Y-69678524D01*
X152903076Y-69848355D01*
X152474817Y-70238642D01*
X152287755Y-70636963D01*
X152017501Y-70232499D01*
X151610312Y-69960424D01*
X151251239Y-69889000D01*
X151008761Y-69889000D01*
X150649688Y-69960424D01*
X150242499Y-70232499D01*
X149970424Y-70639688D01*
X149874884Y-71120000D01*
X149828464Y-71120000D01*
X149828464Y-70270000D01*
X149798894Y-70121341D01*
X149714686Y-69995314D01*
X149588659Y-69911106D01*
X149440000Y-69881536D01*
X147740000Y-69881536D01*
X147591341Y-69911106D01*
X147465314Y-69995314D01*
X147381106Y-70121341D01*
X147351536Y-70270000D01*
X145286000Y-70270000D01*
X145286000Y-68789591D01*
X145624592Y-68451000D01*
X151715166Y-68451000D01*
X151765000Y-68460913D01*
X151814834Y-68451000D01*
X151814835Y-68451000D01*
X151962431Y-68421641D01*
X152129806Y-68309806D01*
X152158039Y-68267553D01*
X153262509Y-67163082D01*
X153553682Y-67221000D01*
X153786318Y-67221000D01*
X154130803Y-67152478D01*
X154521453Y-66891453D01*
X154782478Y-66500803D01*
X154874137Y-66040000D01*
X155005863Y-66040000D01*
X155097522Y-66500803D01*
X155358547Y-66891453D01*
X155749197Y-67152478D01*
X156093682Y-67221000D01*
X156326318Y-67221000D01*
X156670803Y-67152478D01*
X157061453Y-66891453D01*
X157322478Y-66500803D01*
X157414137Y-66040000D01*
X157545863Y-66040000D01*
X157637522Y-66500803D01*
X157898547Y-66891453D01*
X158289197Y-67152478D01*
X158633682Y-67221000D01*
X158866318Y-67221000D01*
X159210803Y-67152478D01*
X159601453Y-66891453D01*
X159862478Y-66500803D01*
X159954137Y-66040000D01*
X159862478Y-65579197D01*
X159601453Y-65188547D01*
X159210803Y-64927522D01*
X158866318Y-64859000D01*
X158633682Y-64859000D01*
X158289197Y-64927522D01*
X157898547Y-65188547D01*
X157637522Y-65579197D01*
X157545863Y-66040000D01*
X157414137Y-66040000D01*
X157322478Y-65579197D01*
X157061453Y-65188547D01*
X156670803Y-64927522D01*
X156326318Y-64859000D01*
X156093682Y-64859000D01*
X155749197Y-64927522D01*
X155358547Y-65188547D01*
X155097522Y-65579197D01*
X155005863Y-66040000D01*
X154874137Y-66040000D01*
X154782478Y-65579197D01*
X154521453Y-65188547D01*
X154130803Y-64927522D01*
X153786318Y-64859000D01*
X153553682Y-64859000D01*
X153209197Y-64927522D01*
X152818547Y-65188547D01*
X152557522Y-65579197D01*
X152465863Y-66040000D01*
X152546918Y-66447491D01*
X151555409Y-67439000D01*
X145464835Y-67439000D01*
X145415000Y-67429087D01*
X145266343Y-67458657D01*
X145295913Y-67310000D01*
X145286000Y-67260165D01*
X145286000Y-66949887D01*
X145589197Y-67152478D01*
X145933682Y-67221000D01*
X146166318Y-67221000D01*
X146510803Y-67152478D01*
X146901453Y-66891453D01*
X147162478Y-66500803D01*
X147254137Y-66040000D01*
X147385863Y-66040000D01*
X147477522Y-66500803D01*
X147738547Y-66891453D01*
X148129197Y-67152478D01*
X148473682Y-67221000D01*
X148706318Y-67221000D01*
X149050803Y-67152478D01*
X149441453Y-66891453D01*
X149702478Y-66500803D01*
X149794137Y-66040000D01*
X149925863Y-66040000D01*
X150017522Y-66500803D01*
X150278547Y-66891453D01*
X150669197Y-67152478D01*
X151013682Y-67221000D01*
X151246318Y-67221000D01*
X151590803Y-67152478D01*
X151981453Y-66891453D01*
X152242478Y-66500803D01*
X152334137Y-66040000D01*
X152242478Y-65579197D01*
X151981453Y-65188547D01*
X151590803Y-64927522D01*
X151246318Y-64859000D01*
X151013682Y-64859000D01*
X150669197Y-64927522D01*
X150278547Y-65188547D01*
X150017522Y-65579197D01*
X149925863Y-66040000D01*
X149794137Y-66040000D01*
X149702478Y-65579197D01*
X149441453Y-65188547D01*
X149050803Y-64927522D01*
X148706318Y-64859000D01*
X148473682Y-64859000D01*
X148129197Y-64927522D01*
X147738547Y-65188547D01*
X147477522Y-65579197D01*
X147385863Y-66040000D01*
X147254137Y-66040000D01*
X147162478Y-65579197D01*
X146901453Y-65188547D01*
X146510803Y-64927522D01*
X146166318Y-64859000D01*
X145933682Y-64859000D01*
X145589197Y-64927522D01*
X145286000Y-65130113D01*
X145286000Y-65073833D01*
X145295913Y-65023999D01*
X145276722Y-64927522D01*
X145256641Y-64826569D01*
X145144806Y-64659194D01*
X145102555Y-64630963D01*
X144665038Y-64193447D01*
X144636806Y-64151194D01*
X144469431Y-64039359D01*
X144321835Y-64010000D01*
X144321834Y-64010000D01*
X144272000Y-64000087D01*
X144222166Y-64010000D01*
X142543833Y-64010000D01*
X142493999Y-64000087D01*
X142444165Y-64010000D01*
X142296569Y-64039359D01*
X142129194Y-64151194D01*
X142100963Y-64193445D01*
X141377491Y-64916918D01*
X141086318Y-64859000D01*
X140853682Y-64859000D01*
X140509197Y-64927522D01*
X140118547Y-65188547D01*
X139857522Y-65579197D01*
X139765863Y-66040000D01*
X139857522Y-66500803D01*
X140118547Y-66891453D01*
X140509197Y-67152478D01*
X140853682Y-67221000D01*
X141086318Y-67221000D01*
X141430803Y-67152478D01*
X141821453Y-66891453D01*
X142082478Y-66500803D01*
X142174137Y-66040000D01*
X142093082Y-65632509D01*
X142703592Y-65022000D01*
X142907801Y-65022000D01*
X142658547Y-65188547D01*
X142397522Y-65579197D01*
X142305863Y-66040000D01*
X142397522Y-66500803D01*
X142658547Y-66891453D01*
X143004001Y-67122279D01*
X143004000Y-93770408D01*
X137610012Y-99164397D01*
X137281239Y-99099000D01*
X137038761Y-99099000D01*
X136679688Y-99170424D01*
X136272499Y-99442499D01*
X136000424Y-99849688D01*
X135904884Y-100330000D01*
X136000424Y-100810312D01*
X136272499Y-101217501D01*
X136679688Y-101489576D01*
X137038761Y-101561000D01*
X137281239Y-101561000D01*
X137640312Y-101489576D01*
X138047501Y-101217501D01*
X138319576Y-100810312D01*
X138415116Y-100330000D01*
X138325603Y-99879988D01*
X138461536Y-99744055D01*
X138461536Y-101180000D01*
X138491106Y-101328659D01*
X138575314Y-101454686D01*
X138701341Y-101538894D01*
X138850000Y-101568464D01*
X140030947Y-101568464D01*
X139870411Y-101729000D01*
X135532511Y-101729000D01*
X135215872Y-101412361D01*
X135507501Y-101217501D01*
X135779576Y-100810312D01*
X135875116Y-100330000D01*
X135779576Y-99849688D01*
X135507501Y-99442499D01*
X135100312Y-99170424D01*
X134741239Y-99099000D01*
X134498761Y-99099000D01*
X134139688Y-99170424D01*
X133732499Y-99442499D01*
X133460424Y-99849688D01*
X133364884Y-100330000D01*
X133335116Y-100330000D01*
X133239576Y-99849688D01*
X132967501Y-99442499D01*
X132691918Y-99258360D01*
X136123561Y-95826533D01*
X136165806Y-95798306D01*
X136194041Y-95756049D01*
X136194043Y-95756047D01*
X136211427Y-95730029D01*
X136277641Y-95630931D01*
X136277642Y-95630925D01*
X136277646Y-95630919D01*
X136297732Y-95529926D01*
X136307000Y-95483335D01*
X136307000Y-95483329D01*
X136316913Y-95433487D01*
X136307000Y-95383659D01*
X136307000Y-78380554D01*
X136679688Y-78629576D01*
X137038761Y-78701000D01*
X137281239Y-78701000D01*
X137640312Y-78629576D01*
X138047501Y-78357501D01*
X138319576Y-77950312D01*
X138415116Y-77470000D01*
X138444884Y-77470000D01*
X138540424Y-77950312D01*
X138812499Y-78357501D01*
X139219688Y-78629576D01*
X139578761Y-78701000D01*
X139821239Y-78701000D01*
X140180312Y-78629576D01*
X140587501Y-78357501D01*
X140859576Y-77950312D01*
X140955116Y-77470000D01*
X140859576Y-76989688D01*
X140587501Y-76582499D01*
X140180312Y-76310424D01*
X139821239Y-76239000D01*
X139578761Y-76239000D01*
X139219688Y-76310424D01*
X138812499Y-76582499D01*
X138540424Y-76989688D01*
X138444884Y-77470000D01*
X138415116Y-77470000D01*
X138319576Y-76989688D01*
X138047501Y-76582499D01*
X137640312Y-76310424D01*
X137281239Y-76239000D01*
X137038761Y-76239000D01*
X136679688Y-76310424D01*
X136307000Y-76559446D01*
X136307000Y-68646353D01*
X136316913Y-68596536D01*
X136307000Y-68546683D01*
X136307000Y-68546665D01*
X136296660Y-68494681D01*
X136277654Y-68399101D01*
X136277645Y-68399087D01*
X136277641Y-68399069D01*
X136217997Y-68309805D01*
X136194057Y-68273970D01*
X136194047Y-68273960D01*
X136165806Y-68231694D01*
X136123570Y-68203473D01*
X134975830Y-67055574D01*
X135221453Y-66891453D01*
X135482478Y-66500803D01*
X135574137Y-66040000D01*
X135705863Y-66040000D01*
X135797522Y-66500803D01*
X136058547Y-66891453D01*
X136449197Y-67152478D01*
X136793682Y-67221000D01*
X137026318Y-67221000D01*
X137370803Y-67152478D01*
X137761453Y-66891453D01*
X138022478Y-66500803D01*
X138114137Y-66040000D01*
X138022478Y-65579197D01*
X137761453Y-65188547D01*
X137370803Y-64927522D01*
X137026318Y-64859000D01*
X136793682Y-64859000D01*
X136449197Y-64927522D01*
X136058547Y-65188547D01*
X135797522Y-65579197D01*
X135705863Y-66040000D01*
X135574137Y-66040000D01*
X135482478Y-65579197D01*
X135221453Y-65188547D01*
X134830803Y-64927522D01*
X134486318Y-64859000D01*
X134253682Y-64859000D01*
X133909197Y-64927522D01*
X133518547Y-65188547D01*
X133257522Y-65579197D01*
X133165863Y-66040000D01*
X133257522Y-66500803D01*
X133518547Y-66891453D01*
X133862800Y-67121477D01*
X133854087Y-67165264D01*
X133864000Y-67215116D01*
X133864000Y-67215134D01*
X133874359Y-67267211D01*
X133893346Y-67362697D01*
X133893355Y-67362711D01*
X133893359Y-67362730D01*
X133956475Y-67457192D01*
X133976943Y-67487829D01*
X133976952Y-67487838D01*
X134005194Y-67530106D01*
X134047433Y-67558329D01*
X135295001Y-68806072D01*
X135295001Y-76440511D01*
X135128975Y-76329576D01*
X135135913Y-76294699D01*
X135123349Y-76231536D01*
X135096641Y-76097269D01*
X134984806Y-75929894D01*
X134942555Y-75901663D01*
X129796000Y-70755109D01*
X129796000Y-67122278D01*
X130141453Y-66891453D01*
X130402478Y-66500803D01*
X130494137Y-66040000D01*
X130625863Y-66040000D01*
X130717522Y-66500803D01*
X130978547Y-66891453D01*
X131369197Y-67152478D01*
X131713682Y-67221000D01*
X131946318Y-67221000D01*
X132290803Y-67152478D01*
X132681453Y-66891453D01*
X132942478Y-66500803D01*
X133034137Y-66040000D01*
X132942478Y-65579197D01*
X132681453Y-65188547D01*
X132290803Y-64927522D01*
X131946318Y-64859000D01*
X131713682Y-64859000D01*
X131369197Y-64927522D01*
X130978547Y-65188547D01*
X130717522Y-65579197D01*
X130625863Y-66040000D01*
X130494137Y-66040000D01*
X130402478Y-65579197D01*
X130141453Y-65188547D01*
X129750803Y-64927522D01*
X129406318Y-64859000D01*
X129173682Y-64859000D01*
X128829197Y-64927522D01*
X128438547Y-65188547D01*
X128177522Y-65579197D01*
X128085863Y-66040000D01*
X128177522Y-66500803D01*
X128438547Y-66891453D01*
X128784001Y-67122279D01*
X128784000Y-70914866D01*
X128774087Y-70964700D01*
X128784000Y-71014534D01*
X128813359Y-71162130D01*
X128925194Y-71329506D01*
X128967448Y-71357739D01*
X134008074Y-76398366D01*
X133732499Y-76582499D01*
X133460424Y-76989688D01*
X133364884Y-77470000D01*
X133460424Y-77950312D01*
X133732499Y-78357501D01*
X134139688Y-78629576D01*
X134498761Y-78701000D01*
X134741239Y-78701000D01*
X135100312Y-78629576D01*
X135295001Y-78499489D01*
X135295000Y-95223917D01*
X131757440Y-98761667D01*
X131715195Y-98789894D01*
X131686960Y-98832151D01*
X131686957Y-98832154D01*
X131662293Y-98869069D01*
X131603360Y-98957269D01*
X131603359Y-98957275D01*
X131603354Y-98957282D01*
X131564087Y-99154713D01*
X131571023Y-99189577D01*
X131192499Y-99442499D01*
X130920424Y-99849688D01*
X130824884Y-100330000D01*
X130920424Y-100810312D01*
X131192499Y-101217501D01*
X131574001Y-101472412D01*
X131574000Y-103431536D01*
X131447500Y-103431536D01*
X131242395Y-103472334D01*
X131110000Y-103560797D01*
X130977605Y-103472334D01*
X130772500Y-103431536D01*
X130477500Y-103431536D01*
X130272395Y-103472334D01*
X130098516Y-103588516D01*
X129982334Y-103762395D01*
X129941536Y-103967500D01*
X129941536Y-104312500D01*
X129982334Y-104517605D01*
X130098516Y-104691484D01*
X130119000Y-104705171D01*
X130119001Y-110610407D01*
X127947448Y-112781961D01*
X127905194Y-112810194D01*
X127793359Y-112977570D01*
X127772117Y-113084359D01*
X127754087Y-113175000D01*
X127762751Y-113218556D01*
X127418547Y-113448547D01*
X127157522Y-113839197D01*
X127065863Y-114300000D01*
X127157522Y-114760803D01*
X127418547Y-115151453D01*
X127480726Y-115193000D01*
X126519274Y-115193000D01*
X126581453Y-115151453D01*
X126842478Y-114760803D01*
X126934137Y-114300000D01*
X126842478Y-113839197D01*
X126581453Y-113448547D01*
X126190803Y-113187522D01*
X125846318Y-113119000D01*
X125613682Y-113119000D01*
X125269197Y-113187522D01*
X124878547Y-113448547D01*
X124617522Y-113839197D01*
X124525863Y-114300000D01*
X124617522Y-114760803D01*
X124878547Y-115151453D01*
X124940726Y-115193000D01*
X124359965Y-115193000D01*
X124378464Y-115100000D01*
X124378464Y-113500000D01*
X124348894Y-113351341D01*
X124264686Y-113225314D01*
X124138659Y-113141106D01*
X123990000Y-113111536D01*
X122390000Y-113111536D01*
X122241341Y-113141106D01*
X122115314Y-113225314D01*
X122031106Y-113351341D01*
X122001536Y-113500000D01*
X122001536Y-115100000D01*
X122020035Y-115193000D01*
X121927369Y-115193000D01*
X121281000Y-114546632D01*
X121281000Y-100686892D01*
X123018514Y-100686892D01*
X123264817Y-101211358D01*
X123693076Y-101601645D01*
X124103110Y-101771476D01*
X124333000Y-101650155D01*
X124333000Y-100457000D01*
X123139181Y-100457000D01*
X123018514Y-100686892D01*
X121281000Y-100686892D01*
X121281000Y-99973108D01*
X123018514Y-99973108D01*
X123139181Y-100203000D01*
X124333000Y-100203000D01*
X124333000Y-99009845D01*
X124587000Y-99009845D01*
X124587000Y-100203000D01*
X124607000Y-100203000D01*
X124607000Y-100457000D01*
X124587000Y-100457000D01*
X124587000Y-101650155D01*
X124816890Y-101771476D01*
X125226924Y-101601645D01*
X125655183Y-101211358D01*
X125842245Y-100813037D01*
X126112499Y-101217501D01*
X126519688Y-101489576D01*
X126878761Y-101561000D01*
X127121239Y-101561000D01*
X127480312Y-101489576D01*
X127887501Y-101217501D01*
X128159576Y-100810312D01*
X128255116Y-100330000D01*
X128284884Y-100330000D01*
X128380424Y-100810312D01*
X128652499Y-101217501D01*
X129059688Y-101489576D01*
X129418761Y-101561000D01*
X129661239Y-101561000D01*
X130020312Y-101489576D01*
X130427501Y-101217501D01*
X130699576Y-100810312D01*
X130795116Y-100330000D01*
X130699576Y-99849688D01*
X130427501Y-99442499D01*
X130020312Y-99170424D01*
X129661239Y-99099000D01*
X129418761Y-99099000D01*
X129059688Y-99170424D01*
X128652499Y-99442499D01*
X128380424Y-99849688D01*
X128284884Y-100330000D01*
X128255116Y-100330000D01*
X128159576Y-99849688D01*
X127887501Y-99442499D01*
X127480312Y-99170424D01*
X127121239Y-99099000D01*
X126878761Y-99099000D01*
X126519688Y-99170424D01*
X126112499Y-99442499D01*
X125842245Y-99846963D01*
X125655183Y-99448642D01*
X125226924Y-99058355D01*
X124816890Y-98888524D01*
X124587000Y-99009845D01*
X124333000Y-99009845D01*
X124103110Y-98888524D01*
X123693076Y-99058355D01*
X123264817Y-99448642D01*
X123018514Y-99973108D01*
X121281000Y-99973108D01*
X121281000Y-84081368D01*
X122943369Y-82419000D01*
X125413852Y-82419000D01*
X125476000Y-82431362D01*
X125538148Y-82419000D01*
X125722204Y-82382389D01*
X125930926Y-82242926D01*
X125966132Y-82190236D01*
X127402239Y-80754130D01*
X127454926Y-80718926D01*
X127594389Y-80510204D01*
X127631000Y-80326148D01*
X127631000Y-80326147D01*
X127643362Y-80264001D01*
X127631000Y-80201854D01*
X127631000Y-78528889D01*
X127887501Y-78357501D01*
X128159576Y-77950312D01*
X128255116Y-77470000D01*
X128159576Y-76989688D01*
X127887501Y-76582499D01*
X127480312Y-76310424D01*
X127121239Y-76239000D01*
X126878761Y-76239000D01*
X126519688Y-76310424D01*
X126112499Y-76582499D01*
X125840424Y-76989688D01*
X125744884Y-77470000D01*
X125840424Y-77950312D01*
X126112499Y-78357501D01*
X126369001Y-78528890D01*
X126369000Y-80002631D01*
X125214632Y-81157000D01*
X122744148Y-81157000D01*
X122682000Y-81144638D01*
X122619852Y-81157000D01*
X122435796Y-81193611D01*
X122227074Y-81333074D01*
X122191870Y-81385761D01*
X120247762Y-83329870D01*
X120195075Y-83365074D01*
X120159871Y-83417761D01*
X120055611Y-83573797D01*
X120006638Y-83820000D01*
X120019001Y-83882153D01*
X120019000Y-114745852D01*
X120006638Y-114808000D01*
X120019000Y-114870147D01*
X120055611Y-115054203D01*
X120195074Y-115262926D01*
X120247764Y-115298132D01*
X121175869Y-116226238D01*
X121211074Y-116278926D01*
X121330914Y-116359000D01*
X120849236Y-116359000D01*
X119861000Y-115370764D01*
X119861000Y-76620000D01*
X123221536Y-76620000D01*
X123221536Y-78320000D01*
X123251106Y-78468659D01*
X123335314Y-78594686D01*
X123461341Y-78678894D01*
X123610000Y-78708464D01*
X125310000Y-78708464D01*
X125458659Y-78678894D01*
X125584686Y-78594686D01*
X125668894Y-78468659D01*
X125698464Y-78320000D01*
X125698464Y-76620000D01*
X125668894Y-76471341D01*
X125584686Y-76345314D01*
X125458659Y-76261106D01*
X125310000Y-76231536D01*
X123610000Y-76231536D01*
X123461341Y-76261106D01*
X123335314Y-76345314D01*
X123251106Y-76471341D01*
X123221536Y-76620000D01*
X119861000Y-76620000D01*
X119861000Y-68627373D01*
X119870423Y-68580000D01*
X119833092Y-68392323D01*
X119726781Y-68233219D01*
X119567677Y-68126908D01*
X119427373Y-68099000D01*
X119380000Y-68089577D01*
X119332627Y-68099000D01*
X113229236Y-68099000D01*
X112241000Y-67110764D01*
X112241000Y-66040000D01*
X112845863Y-66040000D01*
X112937522Y-66500803D01*
X113198547Y-66891453D01*
X113589197Y-67152478D01*
X113933682Y-67221000D01*
X114166318Y-67221000D01*
X114510803Y-67152478D01*
X114901453Y-66891453D01*
X115162478Y-66500803D01*
X115254137Y-66040000D01*
X115385863Y-66040000D01*
X115477522Y-66500803D01*
X115738547Y-66891453D01*
X116129197Y-67152478D01*
X116473682Y-67221000D01*
X116706318Y-67221000D01*
X117050803Y-67152478D01*
X117441453Y-66891453D01*
X117702478Y-66500803D01*
X117794137Y-66040000D01*
X117925863Y-66040000D01*
X118017522Y-66500803D01*
X118278547Y-66891453D01*
X118669197Y-67152478D01*
X119013682Y-67221000D01*
X119246318Y-67221000D01*
X119590803Y-67152478D01*
X119981453Y-66891453D01*
X120242478Y-66500803D01*
X120308875Y-66167002D01*
X120399370Y-66167002D01*
X120278086Y-66389041D01*
X120517611Y-66895134D01*
X120932577Y-67271041D01*
X121320961Y-67431904D01*
X121543000Y-67309915D01*
X121543000Y-66167000D01*
X121523000Y-66167000D01*
X121523000Y-65913000D01*
X121543000Y-65913000D01*
X121543000Y-64770085D01*
X121797000Y-64770085D01*
X121797000Y-65913000D01*
X121817000Y-65913000D01*
X121817000Y-66167000D01*
X121797000Y-66167000D01*
X121797000Y-67309915D01*
X122019039Y-67431904D01*
X122407423Y-67271041D01*
X122822389Y-66895134D01*
X123061914Y-66389041D01*
X122940630Y-66167002D01*
X123031125Y-66167002D01*
X123097522Y-66500803D01*
X123358547Y-66891453D01*
X123704001Y-67122279D01*
X123704000Y-70914866D01*
X123694087Y-70964700D01*
X123704000Y-71014534D01*
X123733359Y-71162130D01*
X123845194Y-71329506D01*
X123887448Y-71357739D01*
X128928074Y-76398366D01*
X128652499Y-76582499D01*
X128380424Y-76989688D01*
X128284884Y-77470000D01*
X128380424Y-77950312D01*
X128652499Y-78357501D01*
X129059688Y-78629576D01*
X129418761Y-78701000D01*
X129661239Y-78701000D01*
X130020312Y-78629576D01*
X130427501Y-78357501D01*
X130699576Y-77950312D01*
X130795116Y-77470000D01*
X130699576Y-76989688D01*
X130427501Y-76582499D01*
X130048975Y-76329576D01*
X130055913Y-76294699D01*
X130043349Y-76231536D01*
X130016641Y-76097269D01*
X129904806Y-75929894D01*
X129862555Y-75901663D01*
X124716000Y-70755109D01*
X124716000Y-67122278D01*
X125061453Y-66891453D01*
X125322478Y-66500803D01*
X125414137Y-66040000D01*
X125545863Y-66040000D01*
X125637522Y-66500803D01*
X125898547Y-66891453D01*
X126244001Y-67122279D01*
X126244000Y-70914866D01*
X126234087Y-70964700D01*
X126244000Y-71014534D01*
X126273359Y-71162130D01*
X126385194Y-71329506D01*
X126427448Y-71357739D01*
X131468074Y-76398366D01*
X131192499Y-76582499D01*
X130920424Y-76989688D01*
X130824884Y-77470000D01*
X130920424Y-77950312D01*
X131192499Y-78357501D01*
X131599688Y-78629576D01*
X131958761Y-78701000D01*
X132201239Y-78701000D01*
X132560312Y-78629576D01*
X132967501Y-78357501D01*
X133239576Y-77950312D01*
X133335116Y-77470000D01*
X133239576Y-76989688D01*
X132967501Y-76582499D01*
X132588975Y-76329576D01*
X132595913Y-76294699D01*
X132583349Y-76231536D01*
X132556641Y-76097269D01*
X132444806Y-75929894D01*
X132402555Y-75901663D01*
X127256000Y-70755109D01*
X127256000Y-67122278D01*
X127601453Y-66891453D01*
X127862478Y-66500803D01*
X127954137Y-66040000D01*
X127862478Y-65579197D01*
X127601453Y-65188547D01*
X127210803Y-64927522D01*
X126866318Y-64859000D01*
X126633682Y-64859000D01*
X126289197Y-64927522D01*
X125898547Y-65188547D01*
X125637522Y-65579197D01*
X125545863Y-66040000D01*
X125414137Y-66040000D01*
X125322478Y-65579197D01*
X125061453Y-65188547D01*
X124670803Y-64927522D01*
X124326318Y-64859000D01*
X124093682Y-64859000D01*
X123749197Y-64927522D01*
X123358547Y-65188547D01*
X123097522Y-65579197D01*
X123031125Y-65912998D01*
X122940630Y-65912998D01*
X123061914Y-65690959D01*
X122822389Y-65184866D01*
X122407423Y-64808959D01*
X122019039Y-64648096D01*
X121797000Y-64770085D01*
X121543000Y-64770085D01*
X121320961Y-64648096D01*
X120932577Y-64808959D01*
X120517611Y-65184866D01*
X120278086Y-65690959D01*
X120399370Y-65912998D01*
X120308875Y-65912998D01*
X120242478Y-65579197D01*
X119981453Y-65188547D01*
X119590803Y-64927522D01*
X119246318Y-64859000D01*
X119013682Y-64859000D01*
X118669197Y-64927522D01*
X118278547Y-65188547D01*
X118017522Y-65579197D01*
X117925863Y-66040000D01*
X117794137Y-66040000D01*
X117702478Y-65579197D01*
X117441453Y-65188547D01*
X117050803Y-64927522D01*
X116706318Y-64859000D01*
X116473682Y-64859000D01*
X116129197Y-64927522D01*
X115738547Y-65188547D01*
X115477522Y-65579197D01*
X115385863Y-66040000D01*
X115254137Y-66040000D01*
X115162478Y-65579197D01*
X114901453Y-65188547D01*
X114510803Y-64927522D01*
X114166318Y-64859000D01*
X113933682Y-64859000D01*
X113589197Y-64927522D01*
X113198547Y-65188547D01*
X112937522Y-65579197D01*
X112845863Y-66040000D01*
X112241000Y-66040000D01*
X112241000Y-64969236D01*
X113229236Y-63981000D01*
X159820764Y-63981000D01*
X160809001Y-64969237D01*
G04 #@! TD*
M02*
