G04 #@! TF.GenerationSoftware,KiCad,Pcbnew,5.0.2-bee76a0~70~ubuntu18.04.1*
G04 #@! TF.CreationDate,2019-01-17T16:48:38+08:00*
G04 #@! TF.ProjectId,inAir9B Shield,696e4169-7239-4422-9053-6869656c642e,rev?*
G04 #@! TF.SameCoordinates,Original*
G04 #@! TF.FileFunction,Legend,Top*
G04 #@! TF.FilePolarity,Positive*
%FSLAX46Y46*%
G04 Gerber Fmt 4.6, Leading zero omitted, Abs format (unit mm)*
G04 Created by KiCad (PCBNEW 5.0.2-bee76a0~70~ubuntu18.04.1) date Thu Jan 17 16:48:38 2019*
%MOMM*%
%LPD*%
G01*
G04 APERTURE LIST*
%ADD10C,0.200000*%
%ADD11C,0.120000*%
%ADD12C,0.150000*%
G04 APERTURE END LIST*
D10*
X158202380Y-67992619D02*
X158202380Y-67897380D01*
X158250000Y-67802142D01*
X158297619Y-67754523D01*
X158392857Y-67706904D01*
X158583333Y-67659285D01*
X158821428Y-67659285D01*
X159011904Y-67706904D01*
X159107142Y-67754523D01*
X159154761Y-67802142D01*
X159202380Y-67897380D01*
X159202380Y-67992619D01*
X159154761Y-68087857D01*
X159107142Y-68135476D01*
X159011904Y-68183095D01*
X158821428Y-68230714D01*
X158583333Y-68230714D01*
X158392857Y-68183095D01*
X158297619Y-68135476D01*
X158250000Y-68087857D01*
X158202380Y-67992619D01*
X124864761Y-70500714D02*
X124912380Y-70357857D01*
X124912380Y-70119761D01*
X124864761Y-70024523D01*
X124817142Y-69976904D01*
X124721904Y-69929285D01*
X124626666Y-69929285D01*
X124531428Y-69976904D01*
X124483809Y-70024523D01*
X124436190Y-70119761D01*
X124388571Y-70310238D01*
X124340952Y-70405476D01*
X124293333Y-70453095D01*
X124198095Y-70500714D01*
X124102857Y-70500714D01*
X124007619Y-70453095D01*
X123960000Y-70405476D01*
X123912380Y-70310238D01*
X123912380Y-70072142D01*
X123960000Y-69929285D01*
X124817142Y-68929285D02*
X124864761Y-68976904D01*
X124912380Y-69119761D01*
X124912380Y-69215000D01*
X124864761Y-69357857D01*
X124769523Y-69453095D01*
X124674285Y-69500714D01*
X124483809Y-69548333D01*
X124340952Y-69548333D01*
X124150476Y-69500714D01*
X124055238Y-69453095D01*
X123960000Y-69357857D01*
X123912380Y-69215000D01*
X123912380Y-69119761D01*
X123960000Y-68976904D01*
X124007619Y-68929285D01*
X124912380Y-68500714D02*
X123912380Y-68500714D01*
X124912380Y-67929285D02*
X124340952Y-68357857D01*
X123912380Y-67929285D02*
X124483809Y-68500714D01*
X127404761Y-69389523D02*
X127452380Y-69246666D01*
X127452380Y-69008571D01*
X127404761Y-68913333D01*
X127357142Y-68865714D01*
X127261904Y-68818095D01*
X127166666Y-68818095D01*
X127071428Y-68865714D01*
X127023809Y-68913333D01*
X126976190Y-69008571D01*
X126928571Y-69199047D01*
X126880952Y-69294285D01*
X126833333Y-69341904D01*
X126738095Y-69389523D01*
X126642857Y-69389523D01*
X126547619Y-69341904D01*
X126500000Y-69294285D01*
X126452380Y-69199047D01*
X126452380Y-68960952D01*
X126500000Y-68818095D01*
X126452380Y-68199047D02*
X126452380Y-68008571D01*
X126500000Y-67913333D01*
X126595238Y-67818095D01*
X126785714Y-67770476D01*
X127119047Y-67770476D01*
X127309523Y-67818095D01*
X127404761Y-67913333D01*
X127452380Y-68008571D01*
X127452380Y-68199047D01*
X127404761Y-68294285D01*
X127309523Y-68389523D01*
X127119047Y-68437142D01*
X126785714Y-68437142D01*
X126595238Y-68389523D01*
X126500000Y-68294285D01*
X126452380Y-68199047D01*
X129944761Y-69103809D02*
X129992380Y-68960952D01*
X129992380Y-68722857D01*
X129944761Y-68627619D01*
X129897142Y-68580000D01*
X129801904Y-68532380D01*
X129706666Y-68532380D01*
X129611428Y-68580000D01*
X129563809Y-68627619D01*
X129516190Y-68722857D01*
X129468571Y-68913333D01*
X129420952Y-69008571D01*
X129373333Y-69056190D01*
X129278095Y-69103809D01*
X129182857Y-69103809D01*
X129087619Y-69056190D01*
X129040000Y-69008571D01*
X128992380Y-68913333D01*
X128992380Y-68675238D01*
X129040000Y-68532380D01*
X129992380Y-68103809D02*
X128992380Y-68103809D01*
X132437142Y-68746666D02*
X132484761Y-68794285D01*
X132532380Y-68937142D01*
X132532380Y-69032380D01*
X132484761Y-69175238D01*
X132389523Y-69270476D01*
X132294285Y-69318095D01*
X132103809Y-69365714D01*
X131960952Y-69365714D01*
X131770476Y-69318095D01*
X131675238Y-69270476D01*
X131580000Y-69175238D01*
X131532380Y-69032380D01*
X131532380Y-68937142D01*
X131580000Y-68794285D01*
X131627619Y-68746666D01*
X132484761Y-68365714D02*
X132532380Y-68222857D01*
X132532380Y-67984761D01*
X132484761Y-67889523D01*
X132437142Y-67841904D01*
X132341904Y-67794285D01*
X132246666Y-67794285D01*
X132151428Y-67841904D01*
X132103809Y-67889523D01*
X132056190Y-67984761D01*
X132008571Y-68175238D01*
X131960952Y-68270476D01*
X131913333Y-68318095D01*
X131818095Y-68365714D01*
X131722857Y-68365714D01*
X131627619Y-68318095D01*
X131580000Y-68270476D01*
X131532380Y-68175238D01*
X131532380Y-67937142D01*
X131580000Y-67794285D01*
X135072380Y-68135476D02*
X135072380Y-67945000D01*
X135024761Y-67849761D01*
X134977142Y-67802142D01*
X134834285Y-67706904D01*
X134643809Y-67659285D01*
X134262857Y-67659285D01*
X134167619Y-67706904D01*
X134120000Y-67754523D01*
X134072380Y-67849761D01*
X134072380Y-68040238D01*
X134120000Y-68135476D01*
X134167619Y-68183095D01*
X134262857Y-68230714D01*
X134500952Y-68230714D01*
X134596190Y-68183095D01*
X134643809Y-68135476D01*
X134691428Y-68040238D01*
X134691428Y-67849761D01*
X134643809Y-67754523D01*
X134596190Y-67706904D01*
X134500952Y-67659285D01*
X137040952Y-68040238D02*
X136993333Y-68135476D01*
X136945714Y-68183095D01*
X136850476Y-68230714D01*
X136802857Y-68230714D01*
X136707619Y-68183095D01*
X136660000Y-68135476D01*
X136612380Y-68040238D01*
X136612380Y-67849761D01*
X136660000Y-67754523D01*
X136707619Y-67706904D01*
X136802857Y-67659285D01*
X136850476Y-67659285D01*
X136945714Y-67706904D01*
X136993333Y-67754523D01*
X137040952Y-67849761D01*
X137040952Y-68040238D01*
X137088571Y-68135476D01*
X137136190Y-68183095D01*
X137231428Y-68230714D01*
X137421904Y-68230714D01*
X137517142Y-68183095D01*
X137564761Y-68135476D01*
X137612380Y-68040238D01*
X137612380Y-67849761D01*
X137564761Y-67754523D01*
X137517142Y-67706904D01*
X137421904Y-67659285D01*
X137231428Y-67659285D01*
X137136190Y-67706904D01*
X137088571Y-67754523D01*
X137040952Y-67849761D01*
X140422380Y-68278333D02*
X140422380Y-67611666D01*
X141422380Y-68040238D01*
X142962380Y-67754523D02*
X142962380Y-67945000D01*
X143010000Y-68040238D01*
X143057619Y-68087857D01*
X143200476Y-68183095D01*
X143390952Y-68230714D01*
X143771904Y-68230714D01*
X143867142Y-68183095D01*
X143914761Y-68135476D01*
X143962380Y-68040238D01*
X143962380Y-67849761D01*
X143914761Y-67754523D01*
X143867142Y-67706904D01*
X143771904Y-67659285D01*
X143533809Y-67659285D01*
X143438571Y-67706904D01*
X143390952Y-67754523D01*
X143343333Y-67849761D01*
X143343333Y-68040238D01*
X143390952Y-68135476D01*
X143438571Y-68183095D01*
X143533809Y-68230714D01*
X145502380Y-67706904D02*
X145502380Y-68183095D01*
X145978571Y-68230714D01*
X145930952Y-68183095D01*
X145883333Y-68087857D01*
X145883333Y-67849761D01*
X145930952Y-67754523D01*
X145978571Y-67706904D01*
X146073809Y-67659285D01*
X146311904Y-67659285D01*
X146407142Y-67706904D01*
X146454761Y-67754523D01*
X146502380Y-67849761D01*
X146502380Y-68087857D01*
X146454761Y-68183095D01*
X146407142Y-68230714D01*
X148375714Y-67754523D02*
X149042380Y-67754523D01*
X147994761Y-67992619D02*
X148709047Y-68230714D01*
X148709047Y-67611666D01*
X150582380Y-68278333D02*
X150582380Y-67659285D01*
X150963333Y-67992619D01*
X150963333Y-67849761D01*
X151010952Y-67754523D01*
X151058571Y-67706904D01*
X151153809Y-67659285D01*
X151391904Y-67659285D01*
X151487142Y-67706904D01*
X151534761Y-67754523D01*
X151582380Y-67849761D01*
X151582380Y-68135476D01*
X151534761Y-68230714D01*
X151487142Y-68278333D01*
X153217619Y-68230714D02*
X153170000Y-68183095D01*
X153122380Y-68087857D01*
X153122380Y-67849761D01*
X153170000Y-67754523D01*
X153217619Y-67706904D01*
X153312857Y-67659285D01*
X153408095Y-67659285D01*
X153550952Y-67706904D01*
X154122380Y-68278333D01*
X154122380Y-67659285D01*
X156662380Y-67659285D02*
X156662380Y-68230714D01*
X156662380Y-67945000D02*
X155662380Y-67945000D01*
X155805238Y-68040238D01*
X155900476Y-68135476D01*
X155948095Y-68230714D01*
X128722380Y-112307619D02*
X128246190Y-112640952D01*
X128722380Y-112879047D02*
X127722380Y-112879047D01*
X127722380Y-112498095D01*
X127770000Y-112402857D01*
X127817619Y-112355238D01*
X127912857Y-112307619D01*
X128055714Y-112307619D01*
X128150952Y-112355238D01*
X128198571Y-112402857D01*
X128246190Y-112498095D01*
X128246190Y-112879047D01*
X128674761Y-111926666D02*
X128722380Y-111783809D01*
X128722380Y-111545714D01*
X128674761Y-111450476D01*
X128627142Y-111402857D01*
X128531904Y-111355238D01*
X128436666Y-111355238D01*
X128341428Y-111402857D01*
X128293809Y-111450476D01*
X128246190Y-111545714D01*
X128198571Y-111736190D01*
X128150952Y-111831428D01*
X128103333Y-111879047D01*
X128008095Y-111926666D01*
X127912857Y-111926666D01*
X127817619Y-111879047D01*
X127770000Y-111831428D01*
X127722380Y-111736190D01*
X127722380Y-111498095D01*
X127770000Y-111355238D01*
X127722380Y-111069523D02*
X127722380Y-110498095D01*
X128722380Y-110783809D02*
X127722380Y-110783809D01*
X130262380Y-112998095D02*
X130262380Y-112379047D01*
X130643333Y-112712380D01*
X130643333Y-112569523D01*
X130690952Y-112474285D01*
X130738571Y-112426666D01*
X130833809Y-112379047D01*
X131071904Y-112379047D01*
X131167142Y-112426666D01*
X131214761Y-112474285D01*
X131262380Y-112569523D01*
X131262380Y-112855238D01*
X131214761Y-112950476D01*
X131167142Y-112998095D01*
X130262380Y-112093333D02*
X131262380Y-111760000D01*
X130262380Y-111426666D01*
X130262380Y-111188571D02*
X130262380Y-110569523D01*
X130643333Y-110902857D01*
X130643333Y-110760000D01*
X130690952Y-110664761D01*
X130738571Y-110617142D01*
X130833809Y-110569523D01*
X131071904Y-110569523D01*
X131167142Y-110617142D01*
X131214761Y-110664761D01*
X131262380Y-110760000D01*
X131262380Y-111045714D01*
X131214761Y-111140952D01*
X131167142Y-111188571D01*
X132802380Y-111950476D02*
X132802380Y-112426666D01*
X133278571Y-112474285D01*
X133230952Y-112426666D01*
X133183333Y-112331428D01*
X133183333Y-112093333D01*
X133230952Y-111998095D01*
X133278571Y-111950476D01*
X133373809Y-111902857D01*
X133611904Y-111902857D01*
X133707142Y-111950476D01*
X133754761Y-111998095D01*
X133802380Y-112093333D01*
X133802380Y-112331428D01*
X133754761Y-112426666D01*
X133707142Y-112474285D01*
X132802380Y-111617142D02*
X133802380Y-111283809D01*
X132802380Y-110950476D01*
X135390000Y-112521904D02*
X135342380Y-112617142D01*
X135342380Y-112760000D01*
X135390000Y-112902857D01*
X135485238Y-112998095D01*
X135580476Y-113045714D01*
X135770952Y-113093333D01*
X135913809Y-113093333D01*
X136104285Y-113045714D01*
X136199523Y-112998095D01*
X136294761Y-112902857D01*
X136342380Y-112760000D01*
X136342380Y-112664761D01*
X136294761Y-112521904D01*
X136247142Y-112474285D01*
X135913809Y-112474285D01*
X135913809Y-112664761D01*
X136342380Y-112045714D02*
X135342380Y-112045714D01*
X136342380Y-111474285D01*
X135342380Y-111474285D01*
X136342380Y-110998095D02*
X135342380Y-110998095D01*
X135342380Y-110760000D01*
X135390000Y-110617142D01*
X135485238Y-110521904D01*
X135580476Y-110474285D01*
X135770952Y-110426666D01*
X135913809Y-110426666D01*
X136104285Y-110474285D01*
X136199523Y-110521904D01*
X136294761Y-110617142D01*
X136342380Y-110760000D01*
X136342380Y-110998095D01*
X137930000Y-112521904D02*
X137882380Y-112617142D01*
X137882380Y-112760000D01*
X137930000Y-112902857D01*
X138025238Y-112998095D01*
X138120476Y-113045714D01*
X138310952Y-113093333D01*
X138453809Y-113093333D01*
X138644285Y-113045714D01*
X138739523Y-112998095D01*
X138834761Y-112902857D01*
X138882380Y-112760000D01*
X138882380Y-112664761D01*
X138834761Y-112521904D01*
X138787142Y-112474285D01*
X138453809Y-112474285D01*
X138453809Y-112664761D01*
X138882380Y-112045714D02*
X137882380Y-112045714D01*
X138882380Y-111474285D01*
X137882380Y-111474285D01*
X138882380Y-110998095D02*
X137882380Y-110998095D01*
X137882380Y-110760000D01*
X137930000Y-110617142D01*
X138025238Y-110521904D01*
X138120476Y-110474285D01*
X138310952Y-110426666D01*
X138453809Y-110426666D01*
X138644285Y-110474285D01*
X138739523Y-110521904D01*
X138834761Y-110617142D01*
X138882380Y-110760000D01*
X138882380Y-110998095D01*
X140422380Y-112855238D02*
X141422380Y-112521904D01*
X140422380Y-112188571D01*
X141422380Y-111855238D02*
X140422380Y-111855238D01*
X141422380Y-111379047D02*
X140422380Y-111379047D01*
X141422380Y-110807619D01*
X140422380Y-110807619D01*
X158916666Y-112474285D02*
X158916666Y-111998095D01*
X159202380Y-112569523D02*
X158202380Y-112236190D01*
X159202380Y-111902857D01*
X158202380Y-111093333D02*
X158202380Y-111569523D01*
X158678571Y-111617142D01*
X158630952Y-111569523D01*
X158583333Y-111474285D01*
X158583333Y-111236190D01*
X158630952Y-111140952D01*
X158678571Y-111093333D01*
X158773809Y-111045714D01*
X159011904Y-111045714D01*
X159107142Y-111093333D01*
X159154761Y-111140952D01*
X159202380Y-111236190D01*
X159202380Y-111474285D01*
X159154761Y-111569523D01*
X159107142Y-111617142D01*
X156376666Y-112474285D02*
X156376666Y-111998095D01*
X156662380Y-112569523D02*
X155662380Y-112236190D01*
X156662380Y-111902857D01*
X155995714Y-111140952D02*
X156662380Y-111140952D01*
X155614761Y-111379047D02*
X156329047Y-111617142D01*
X156329047Y-110998095D01*
X153836666Y-112474285D02*
X153836666Y-111998095D01*
X154122380Y-112569523D02*
X153122380Y-112236190D01*
X154122380Y-111902857D01*
X153122380Y-111664761D02*
X153122380Y-111045714D01*
X153503333Y-111379047D01*
X153503333Y-111236190D01*
X153550952Y-111140952D01*
X153598571Y-111093333D01*
X153693809Y-111045714D01*
X153931904Y-111045714D01*
X154027142Y-111093333D01*
X154074761Y-111140952D01*
X154122380Y-111236190D01*
X154122380Y-111521904D01*
X154074761Y-111617142D01*
X154027142Y-111664761D01*
X151296666Y-112474285D02*
X151296666Y-111998095D01*
X151582380Y-112569523D02*
X150582380Y-112236190D01*
X151582380Y-111902857D01*
X150677619Y-111617142D02*
X150630000Y-111569523D01*
X150582380Y-111474285D01*
X150582380Y-111236190D01*
X150630000Y-111140952D01*
X150677619Y-111093333D01*
X150772857Y-111045714D01*
X150868095Y-111045714D01*
X151010952Y-111093333D01*
X151582380Y-111664761D01*
X151582380Y-111045714D01*
X148756666Y-112474285D02*
X148756666Y-111998095D01*
X149042380Y-112569523D02*
X148042380Y-112236190D01*
X149042380Y-111902857D01*
X149042380Y-111045714D02*
X149042380Y-111617142D01*
X149042380Y-111331428D02*
X148042380Y-111331428D01*
X148185238Y-111426666D01*
X148280476Y-111521904D01*
X148328095Y-111617142D01*
X146216666Y-112474285D02*
X146216666Y-111998095D01*
X146502380Y-112569523D02*
X145502380Y-112236190D01*
X146502380Y-111902857D01*
X145502380Y-111379047D02*
X145502380Y-111283809D01*
X145550000Y-111188571D01*
X145597619Y-111140952D01*
X145692857Y-111093333D01*
X145883333Y-111045714D01*
X146121428Y-111045714D01*
X146311904Y-111093333D01*
X146407142Y-111140952D01*
X146454761Y-111188571D01*
X146502380Y-111283809D01*
X146502380Y-111379047D01*
X146454761Y-111474285D01*
X146407142Y-111521904D01*
X146311904Y-111569523D01*
X146121428Y-111617142D01*
X145883333Y-111617142D01*
X145692857Y-111569523D01*
X145597619Y-111521904D01*
X145550000Y-111474285D01*
X145502380Y-111379047D01*
D11*
G04 #@! TO.C,D3*
X156662000Y-106664000D02*
X156662000Y-103979000D01*
X156662000Y-103979000D02*
X154742000Y-103979000D01*
X154742000Y-103979000D02*
X154742000Y-106664000D01*
G04 #@! TO.C,D1*
X146695888Y-106513831D02*
X146695888Y-103828831D01*
X146695888Y-103828831D02*
X144775888Y-103828831D01*
X144775888Y-103828831D02*
X144775888Y-106513831D01*
G04 #@! TO.C,D2*
X149737008Y-103895043D02*
X149737008Y-106580043D01*
X151657008Y-103895043D02*
X149737008Y-103895043D01*
X151657008Y-106580043D02*
X151657008Y-103895043D01*
G04 #@! TO.C,J1*
X149860000Y-72450000D02*
X149860000Y-69790000D01*
X149860000Y-72450000D02*
X157540000Y-72450000D01*
X157540000Y-72450000D02*
X157540000Y-69790000D01*
X149860000Y-69790000D02*
X157540000Y-69790000D01*
X147260000Y-69790000D02*
X148590000Y-69790000D01*
X147260000Y-71120000D02*
X147260000Y-69790000D01*
G04 #@! TO.C,J2*
X141030000Y-100330000D02*
X141030000Y-101660000D01*
X141030000Y-101660000D02*
X139700000Y-101660000D01*
X138430000Y-101660000D02*
X123130000Y-101660000D01*
X123130000Y-99000000D02*
X123130000Y-101660000D01*
X138430000Y-99000000D02*
X123130000Y-99000000D01*
X138430000Y-99000000D02*
X138430000Y-101660000D01*
G04 #@! TO.C,J3*
X125730000Y-78800000D02*
X125730000Y-76140000D01*
X125730000Y-78800000D02*
X141030000Y-78800000D01*
X141030000Y-78800000D02*
X141030000Y-76140000D01*
X125730000Y-76140000D02*
X141030000Y-76140000D01*
X123130000Y-76140000D02*
X124460000Y-76140000D01*
X123130000Y-77470000D02*
X123130000Y-76140000D01*
G04 #@! TO.C,D3*
D12*
X157804380Y-106402095D02*
X156804380Y-106402095D01*
X156804380Y-106164000D01*
X156852000Y-106021142D01*
X156947238Y-105925904D01*
X157042476Y-105878285D01*
X157232952Y-105830666D01*
X157375809Y-105830666D01*
X157566285Y-105878285D01*
X157661523Y-105925904D01*
X157756761Y-106021142D01*
X157804380Y-106164000D01*
X157804380Y-106402095D01*
X156804380Y-105497333D02*
X156804380Y-104878285D01*
X157185333Y-105211619D01*
X157185333Y-105068761D01*
X157232952Y-104973523D01*
X157280571Y-104925904D01*
X157375809Y-104878285D01*
X157613904Y-104878285D01*
X157709142Y-104925904D01*
X157756761Y-104973523D01*
X157804380Y-105068761D01*
X157804380Y-105354476D01*
X157756761Y-105449714D01*
X157709142Y-105497333D01*
G04 #@! TO.C,R3*
X154376380Y-108624666D02*
X153900190Y-108958000D01*
X154376380Y-109196095D02*
X153376380Y-109196095D01*
X153376380Y-108815142D01*
X153424000Y-108719904D01*
X153471619Y-108672285D01*
X153566857Y-108624666D01*
X153709714Y-108624666D01*
X153804952Y-108672285D01*
X153852571Y-108719904D01*
X153900190Y-108815142D01*
X153900190Y-109196095D01*
X153376380Y-108291333D02*
X153376380Y-107672285D01*
X153757333Y-108005619D01*
X153757333Y-107862761D01*
X153804952Y-107767523D01*
X153852571Y-107719904D01*
X153947809Y-107672285D01*
X154185904Y-107672285D01*
X154281142Y-107719904D01*
X154328761Y-107767523D01*
X154376380Y-107862761D01*
X154376380Y-108148476D01*
X154328761Y-108243714D01*
X154281142Y-108291333D01*
G04 #@! TO.C,D1*
X147838268Y-106251926D02*
X146838268Y-106251926D01*
X146838268Y-106013831D01*
X146885888Y-105870973D01*
X146981126Y-105775735D01*
X147076364Y-105728116D01*
X147266840Y-105680497D01*
X147409697Y-105680497D01*
X147600173Y-105728116D01*
X147695411Y-105775735D01*
X147790649Y-105870973D01*
X147838268Y-106013831D01*
X147838268Y-106251926D01*
X147838268Y-104728116D02*
X147838268Y-105299545D01*
X147838268Y-105013831D02*
X146838268Y-105013831D01*
X146981126Y-105109069D01*
X147076364Y-105204307D01*
X147123983Y-105299545D01*
G04 #@! TO.C,D2*
X152799388Y-106318138D02*
X151799388Y-106318138D01*
X151799388Y-106080043D01*
X151847008Y-105937185D01*
X151942246Y-105841947D01*
X152037484Y-105794328D01*
X152227960Y-105746709D01*
X152370817Y-105746709D01*
X152561293Y-105794328D01*
X152656531Y-105841947D01*
X152751769Y-105937185D01*
X152799388Y-106080043D01*
X152799388Y-106318138D01*
X151894627Y-105365757D02*
X151847008Y-105318138D01*
X151799388Y-105222900D01*
X151799388Y-104984804D01*
X151847008Y-104889566D01*
X151894627Y-104841947D01*
X151989865Y-104794328D01*
X152085103Y-104794328D01*
X152227960Y-104841947D01*
X152799388Y-105413376D01*
X152799388Y-104794328D01*
G04 #@! TO.C,J1*
X145272380Y-71453333D02*
X145986666Y-71453333D01*
X146129523Y-71500952D01*
X146224761Y-71596190D01*
X146272380Y-71739047D01*
X146272380Y-71834285D01*
X146272380Y-70453333D02*
X146272380Y-71024761D01*
X146272380Y-70739047D02*
X145272380Y-70739047D01*
X145415238Y-70834285D01*
X145510476Y-70929523D01*
X145558095Y-71024761D01*
G04 #@! TO.C,R1*
X144470380Y-108624666D02*
X143994190Y-108958000D01*
X144470380Y-109196095D02*
X143470380Y-109196095D01*
X143470380Y-108815142D01*
X143518000Y-108719904D01*
X143565619Y-108672285D01*
X143660857Y-108624666D01*
X143803714Y-108624666D01*
X143898952Y-108672285D01*
X143946571Y-108719904D01*
X143994190Y-108815142D01*
X143994190Y-109196095D01*
X144470380Y-107672285D02*
X144470380Y-108243714D01*
X144470380Y-107958000D02*
X143470380Y-107958000D01*
X143613238Y-108053238D01*
X143708476Y-108148476D01*
X143756095Y-108243714D01*
G04 #@! TO.C,R2*
X149550380Y-108624666D02*
X149074190Y-108958000D01*
X149550380Y-109196095D02*
X148550380Y-109196095D01*
X148550380Y-108815142D01*
X148598000Y-108719904D01*
X148645619Y-108672285D01*
X148740857Y-108624666D01*
X148883714Y-108624666D01*
X148978952Y-108672285D01*
X149026571Y-108719904D01*
X149074190Y-108815142D01*
X149074190Y-109196095D01*
X148645619Y-108243714D02*
X148598000Y-108196095D01*
X148550380Y-108100857D01*
X148550380Y-107862761D01*
X148598000Y-107767523D01*
X148645619Y-107719904D01*
X148740857Y-107672285D01*
X148836095Y-107672285D01*
X148978952Y-107719904D01*
X149550380Y-108291333D01*
X149550380Y-107672285D01*
G04 #@! TO.C,R4*
X130943333Y-103422380D02*
X130610000Y-102946190D01*
X130371904Y-103422380D02*
X130371904Y-102422380D01*
X130752857Y-102422380D01*
X130848095Y-102470000D01*
X130895714Y-102517619D01*
X130943333Y-102612857D01*
X130943333Y-102755714D01*
X130895714Y-102850952D01*
X130848095Y-102898571D01*
X130752857Y-102946190D01*
X130371904Y-102946190D01*
X131800476Y-102755714D02*
X131800476Y-103422380D01*
X131562380Y-102374761D02*
X131324285Y-103089047D01*
X131943333Y-103089047D01*
G04 #@! TD*
M02*
